<svg width="619" height="619" viewBox="0 0 619 619" fill="none" xmlns="http://www.w3.org/2000/svg">
<g clip-path="url(#clip0_47_68)">
<g opacity="0.8">
<path opacity="0.17" d="M309.5 527.774C430.049 527.774 527.774 430.049 527.774 309.5C527.774 188.951 430.049 91.2265 309.5 91.2265C188.951 91.2265 91.2265 188.951 91.2265 309.5C91.2265 430.049 188.951 527.774 309.5 527.774Z" fill="#E65100"/>
<path d="M309.5 617.969C479.863 617.969 617.969 479.863 617.969 309.5C617.969 139.137 479.863 1.03082 309.5 1.03082C139.137 1.03082 1.03081 139.137 1.03081 309.5C1.03081 479.863 139.137 617.969 309.5 617.969Z" stroke="#E65100" stroke-width="4" stroke-dasharray="15 15"/>
<path opacity="0.17" d="M309.5 439.124C381.089 439.124 439.124 381.089 439.124 309.5C439.124 237.911 381.089 179.876 309.5 179.876C237.911 179.876 179.876 237.911 179.876 309.5C179.876 381.089 237.911 439.124 309.5 439.124Z" fill="#E65100"/>
<path d="M309.5 378.822C347.785 378.822 378.822 347.785 378.822 309.5C378.822 271.215 347.785 240.178 309.5 240.178C271.215 240.178 240.178 271.215 240.178 309.5C240.178 347.785 271.215 378.822 309.5 378.822Z" fill="#E65100"/>
</g>
<path d="M17.0083 414.385C19.5702 414.385 21.647 412.308 21.647 409.746C21.647 407.184 19.5702 405.107 17.0083 405.107C14.4465 405.107 12.3697 407.184 12.3697 409.746C12.3697 412.308 14.4465 414.385 17.0083 414.385Z" fill="#E65100"/>
<path d="M120.604 204.615C123.166 204.615 125.243 202.539 125.243 199.977C125.243 197.415 123.166 195.338 120.604 195.338C118.043 195.338 115.966 197.415 115.966 199.977C115.966 202.539 118.043 204.615 120.604 204.615Z" fill="#E65100"/>
<path d="M393.253 412.838C395.815 412.838 397.892 410.762 397.892 408.2C397.892 405.638 395.815 403.561 393.253 403.561C390.691 403.561 388.614 405.638 388.614 408.2C388.614 410.762 390.691 412.838 393.253 412.838Z" fill="#E65100"/>
</g>
<defs>
<clipPath id="clip0_47_68">
<rect width="619" height="619" fill="white"/>
</clipPath>
</defs>
</svg>
