<svg width="292" height="455" viewBox="0 0 292 455" fill="none" xmlns="http://www.w3.org/2000/svg">
<g filter="url(#filter0_d_4_30)">
<path d="M134.533 2.04173C133.365 4.09007 132.781 4.38269 131.32 2.77328C128.544 0.286003 123.578 0.578623 117.735 3.79745C114.96 5.40687 111.6 6.43104 109.993 5.99211C106.487 5.11425 94.9477 15.356 94.9477 19.4527C94.9477 21.0621 94.3634 22.9641 93.487 23.842C92.7566 24.5735 92.0262 26.9145 92.0262 28.8165C92.0262 30.8649 92.0262 36.571 92.0262 41.5455C91.8802 47.1053 92.4645 50.7631 93.3409 50.7631C94.2173 50.7631 94.9477 49.7389 94.9477 48.5684C94.9477 44.3254 99.3299 37.7415 103.42 35.6931C108.386 33.0595 138.624 25.8903 144.174 25.8903C152.939 25.8903 158.636 28.6702 163.31 35.2542C165.939 38.7656 167.984 42.4234 167.984 43.3012C167.984 44.0328 168.861 45.3496 169.883 45.9348C173.097 47.9832 176.603 54.7135 176.749 59.1028C176.895 73.1486 179.086 93.632 180.108 90.5595C180.839 88.8038 183.468 85.7313 186.097 83.6829C189.895 80.7567 191.356 78.2694 192.817 71.6855C193.839 67.0035 195.592 61.8827 196.615 60.1269C198.367 57.4934 198.367 56.1766 196.468 50.7631C195.3 47.2516 194.569 43.3012 195.008 41.9845C196.761 36.571 189.457 27.4997 178.209 21.2084C173.827 18.5748 167.254 14.3318 163.748 11.6982C160.242 9.06463 155.714 6.86997 153.815 6.86997C151.478 6.86997 149.871 5.8458 149.433 3.94376C148.995 2.33435 147.534 1.01755 146.219 0.871244C144.905 0.871244 142.129 0.432313 139.938 0.139692C137.309 -0.299239 135.556 0.286003 134.533 2.04173Z" fill="white"/>
<path d="M134.533 2.04173C133.365 4.09007 132.781 4.38269 131.32 2.77328C128.544 0.286003 123.578 0.578623 117.735 3.79745C114.96 5.40687 111.6 6.43104 109.993 5.99211C106.487 5.11425 94.9477 15.356 94.9477 19.4527C94.9477 21.0621 94.3634 22.9641 93.487 23.842C92.7566 24.5735 92.0262 26.9145 92.0262 28.8165C92.0262 30.8649 92.0262 36.571 92.0262 41.5455C91.8802 47.1053 92.4645 50.7631 93.3409 50.7631C94.2173 50.7631 94.9477 49.7389 94.9477 48.5684C94.9477 44.3254 99.3299 37.7415 103.42 35.6931C108.386 33.0595 138.624 25.8903 144.174 25.8903C152.939 25.8903 158.636 28.6702 163.31 35.2542C165.939 38.7656 167.984 42.4234 167.984 43.3012C167.984 44.0328 168.861 45.3496 169.883 45.9348C173.097 47.9832 176.603 54.7135 176.749 59.1028C176.895 73.1486 179.086 93.632 180.108 90.5595C180.839 88.8038 183.468 85.7313 186.097 83.6829C189.895 80.7567 191.356 78.2694 192.817 71.6855C193.839 67.0035 195.592 61.8827 196.615 60.1269C198.367 57.4934 198.367 56.1766 196.468 50.7631C195.3 47.2516 194.569 43.3012 195.008 41.9845C196.761 36.571 189.457 27.4997 178.209 21.2084C173.827 18.5748 167.254 14.3318 163.748 11.6982C160.242 9.06463 155.714 6.86997 153.815 6.86997C151.478 6.86997 149.871 5.8458 149.433 3.94376C148.995 2.33435 147.534 1.01755 146.219 0.871244C144.905 0.871244 142.129 0.432313 139.938 0.139692C137.309 -0.299239 135.556 0.286003 134.533 2.04173Z" fill="url(#paint0_linear_4_30)"/>
<path d="M93.78 61.2979C91.7349 63.3463 91.4428 68.3209 93.3417 68.3209C94.2182 68.3209 94.3642 70.5155 93.926 73.1491C93.3417 77.2458 93.78 78.4163 96.7014 80.3183C102.398 84.1224 107.657 82.074 113.5 74.027C116.275 70.0766 119.197 66.8577 119.781 66.8577C120.511 66.8577 122.41 68.9061 124.163 71.2471C127.815 76.3679 134.242 80.0257 139.063 79.8794C142.276 79.8794 142.276 79.7331 139.501 78.5626C137.894 77.831 137.456 77.2458 138.624 77.2458C139.793 77.0995 141.4 75.929 142.422 74.6122C143.883 72.7102 144.759 72.4175 146.22 73.7343C148.996 75.929 157.76 77.6847 157.76 75.929C157.76 75.1974 154.839 73.4417 151.187 72.1249C145.198 69.784 142.422 66.8577 146.074 66.8577C149.434 66.8577 147.097 64.2242 142.13 62.3221C135.995 59.9811 122.995 61.0053 121.242 64.0778C120.365 65.3946 118.466 64.9557 113.646 62.6147C106.488 59.2496 96.5553 58.518 93.78 61.2979Z" fill="#87CEEB"/>
<path d="M93.78 61.2979C91.7349 63.3463 91.4428 68.3209 93.3417 68.3209C94.2182 68.3209 94.3642 70.5155 93.926 73.1491C93.3417 77.2458 93.78 78.4163 96.7014 80.3183C102.398 84.1224 107.657 82.074 113.5 74.027C116.275 70.0766 119.197 66.8577 119.781 66.8577C120.511 66.8577 122.41 68.9061 124.163 71.2471C127.815 76.3679 134.242 80.0257 139.063 79.8794C142.276 79.8794 142.276 79.7331 139.501 78.5626C137.894 77.831 137.456 77.2458 138.624 77.2458C139.793 77.0995 141.4 75.929 142.422 74.6122C143.883 72.7102 144.759 72.4175 146.22 73.7343C148.996 75.929 157.76 77.6847 157.76 75.929C157.76 75.1974 154.839 73.4417 151.187 72.1249C145.198 69.784 142.422 66.8577 146.074 66.8577C149.434 66.8577 147.097 64.2242 142.13 62.3221C135.995 59.9811 122.995 61.0053 121.242 64.0778C120.365 65.3946 118.466 64.9557 113.646 62.6147C106.488 59.2496 96.5553 58.518 93.78 61.2979Z" fill="url(#paint1_linear_4_30)"/>
<path d="M105.903 98.7547C106.633 102.12 105.903 103.437 102.251 106.07C98.4533 108.996 97.869 110.313 98.015 114.995C98.3072 117.921 97.869 121.14 97.2847 122.164C95.6779 124.798 98.8915 133.284 102.982 137.088C106.925 140.892 107.802 145.867 104.588 145.867C103.42 145.867 101.083 147.622 99.4758 149.671C90.2732 161.375 102.982 187.419 121.825 195.758C131.466 200.001 144.028 200.001 155.13 195.758C171.344 189.467 185.513 172.056 185.513 158.303C185.513 151.719 183.906 148.939 177.917 145.135C173.243 142.209 172.804 142.94 176.31 148.208C184.636 161.083 168.568 184.346 147.826 189.174C129.129 193.564 112.038 185.224 106.487 169.423C104.004 162.253 109.847 152.158 113.207 157.571C113.645 158.303 115.106 159.035 116.274 159.035C117.443 159.035 121.387 160.937 125.039 163.278C132.926 168.106 136.578 167.813 139.646 161.814C140.814 159.473 142.275 157.571 143.005 157.571C143.736 157.571 144.028 156.401 143.59 154.938C143.152 153.036 144.904 151.28 150.747 148.208C158.343 144.111 166.523 137.527 166.523 135.479C166.523 134.601 152.062 131.967 148.994 132.406C148.556 132.406 147.096 131.821 145.635 130.943C143.882 130.065 142.275 130.065 141.253 130.943C140.23 131.674 133.803 132.699 126.645 132.991C115.69 133.577 113.207 133.284 108.386 130.504C104.588 128.456 102.835 126.407 102.543 123.481C101.959 119.092 105.611 117.775 107.218 121.725C107.802 123.335 110.431 123.92 117.589 123.92C126.061 123.92 127.084 123.627 127.084 120.994C127.084 118.36 126.061 118.068 119.05 118.068C111.016 118.068 108.386 116.166 113.937 114.41C118.173 113.093 133.073 115.141 136.87 117.482C141.107 120.116 141.691 120.116 141.691 116.897C141.691 115.288 140.376 112.947 138.623 111.337C136.286 109.143 135.41 108.996 134.387 110.606C133.511 112.215 132.196 112.215 128.544 110.898C125.915 110.021 121.533 109.289 118.903 109.289C116.274 109.289 113.207 108.85 111.892 108.411C108.532 107.094 108.97 104.461 112.33 105.339C115.836 106.216 121.095 101.242 118.027 100.071C117.005 99.6325 118.319 99.1936 120.948 99.1936C125.915 99.0473 127.376 96.7063 123.14 95.6821C121.679 95.2432 117.005 94.9506 112.768 94.9506C105.027 94.8043 105.027 94.8043 105.903 98.7547Z" fill="white"/>
<path d="M105.903 98.7547C106.633 102.12 105.903 103.437 102.251 106.07C98.4533 108.996 97.869 110.313 98.015 114.995C98.3072 117.921 97.869 121.14 97.2847 122.164C95.6779 124.798 98.8915 133.284 102.982 137.088C106.925 140.892 107.802 145.867 104.588 145.867C103.42 145.867 101.083 147.622 99.4758 149.671C90.2732 161.375 102.982 187.419 121.825 195.758C131.466 200.001 144.028 200.001 155.13 195.758C171.344 189.467 185.513 172.056 185.513 158.303C185.513 151.719 183.906 148.939 177.917 145.135C173.243 142.209 172.804 142.94 176.31 148.208C184.636 161.083 168.568 184.346 147.826 189.174C129.129 193.564 112.038 185.224 106.487 169.423C104.004 162.253 109.847 152.158 113.207 157.571C113.645 158.303 115.106 159.035 116.274 159.035C117.443 159.035 121.387 160.937 125.039 163.278C132.926 168.106 136.578 167.813 139.646 161.814C140.814 159.473 142.275 157.571 143.005 157.571C143.736 157.571 144.028 156.401 143.59 154.938C143.152 153.036 144.904 151.28 150.747 148.208C158.343 144.111 166.523 137.527 166.523 135.479C166.523 134.601 152.062 131.967 148.994 132.406C148.556 132.406 147.096 131.821 145.635 130.943C143.882 130.065 142.275 130.065 141.253 130.943C140.23 131.674 133.803 132.699 126.645 132.991C115.69 133.577 113.207 133.284 108.386 130.504C104.588 128.456 102.835 126.407 102.543 123.481C101.959 119.092 105.611 117.775 107.218 121.725C107.802 123.335 110.431 123.92 117.589 123.92C126.061 123.92 127.084 123.627 127.084 120.994C127.084 118.36 126.061 118.068 119.05 118.068C111.016 118.068 108.386 116.166 113.937 114.41C118.173 113.093 133.073 115.141 136.87 117.482C141.107 120.116 141.691 120.116 141.691 116.897C141.691 115.288 140.376 112.947 138.623 111.337C136.286 109.143 135.41 108.996 134.387 110.606C133.511 112.215 132.196 112.215 128.544 110.898C125.915 110.021 121.533 109.289 118.903 109.289C116.274 109.289 113.207 108.85 111.892 108.411C108.532 107.094 108.97 104.461 112.33 105.339C115.836 106.216 121.095 101.242 118.027 100.071C117.005 99.6325 118.319 99.1936 120.948 99.1936C125.915 99.0473 127.376 96.7063 123.14 95.6821C121.679 95.2432 117.005 94.9506 112.768 94.9506C105.027 94.8043 105.027 94.8043 105.903 98.7547Z" fill="url(#paint2_linear_4_30)"/>
<path d="M238.538 201.462C234.448 209.948 230.212 219.75 229.335 223.262C228.459 226.92 225.83 233.211 223.492 237.454C221.301 241.697 218.964 248.574 218.38 252.67C217.796 256.621 216.773 260.279 216.189 260.718C215.458 261.157 215.312 264.961 215.751 269.204C217.796 286.761 216.481 299.49 212.683 299.49C211.514 299.49 210.2 300.514 209.762 301.831C208.593 304.757 212.975 310.171 215.751 309.147C218.526 307.976 218.234 318.95 215.312 324.802L212.829 329.484L216.043 326.704C219.548 323.485 219.548 323.339 217.503 333.142C215.897 340.604 215.897 340.604 210.638 340.165C204.211 339.579 203.042 342.213 206.548 349.09C209.615 354.942 209.469 358.307 205.964 366.062C202.458 373.816 196.615 380.986 190.626 384.497C188.289 386.106 187.12 387.277 188.143 387.277C189.457 387.277 189.749 388.301 189.019 390.496C188.143 393.276 188.581 393.129 192.087 389.472C195.008 386.106 195.738 385.814 195.008 388.009C194.424 389.618 193.84 392.69 193.693 394.885C193.255 399.713 188.727 404.834 178.794 411.418C173.681 414.93 170.322 416.1 167.838 415.661C165.355 415.076 164.917 415.222 166.232 416.247C170.322 419.027 137.017 420.636 127.084 418.002C124.309 417.271 117.735 415.661 112.477 414.345C100.645 411.418 92.7567 407.029 87.7902 400.445L83.9923 395.47L88.6666 398.689C93.1949 401.908 104.004 406.297 107.218 406.297C108.094 406.297 104.881 404.249 100.06 401.762C87.7902 395.617 79.9022 385.814 88.8127 387.862C91.8802 388.594 91.442 388.009 86.0373 384.497C79.464 380.254 75.8121 375.426 78.7336 374.402C79.464 374.109 77.419 369.573 74.2053 364.452C69.2388 356.698 68.5085 354.65 70.2614 353.479C71.8682 352.601 71.8682 352.162 70.4074 352.162C69.3849 352.162 67.632 349.968 66.4634 347.334L64.4184 342.652L64.2723 348.066C64.2723 356.405 61.7891 354.796 58.4294 343.969C54.4854 331.093 54.7776 321.437 59.4519 309.732C60.4744 307.098 62.5195 315.292 63.9802 328.606C64.8566 336.8 65.4409 337.97 68.3624 338.409C71.576 338.994 71.576 338.848 69.3849 333.727C67.1938 328.313 66.3174 321.583 68.2163 323.339C68.6545 323.924 69.9692 323.193 70.9917 321.876C72.4525 319.681 72.1603 318.657 69.2388 315.145C65.2949 310.463 64.8566 306.806 67.486 301.977C68.3624 300.222 69.2388 293.93 69.3849 288.078C69.3849 279.299 69.0928 277.836 67.632 279.884C64.2723 284.566 62.6655 276.08 64.2723 261.157C65.0027 253.695 65.2949 247.403 65.0027 246.964C64.5645 246.672 64.2723 247.55 64.2723 249.159C64.1263 251.793 64.1263 251.793 62.5195 249.013C61.643 247.403 59.598 244.916 58.1373 243.307C55.5079 240.38 54.1933 237.308 47.766 217.556C45.8671 211.557 42.7995 203.217 41.1927 199.267C39.4398 195.17 37.687 190.634 37.2487 189.025C36.2262 186.245 36.0802 186.245 33.8891 189.61C30.8215 194.146 24.6864 208.338 18.2592 225.603C10.6634 246.086 2.92147 264.961 1.31466 266.57C0.584294 267.302 0 269.643 0 271.837C0 276.227 5.98901 281.786 13.4388 284.713L17.3827 286.176L16.5063 313.097C15.922 331.679 16.2142 342.945 17.3827 349.236C19.2817 358.893 31.2597 391.959 34.4733 396.787C38.8556 403.079 36.5184 408.053 17.5288 432.633C13.5848 437.901 10.2251 442.583 10.2251 443.022C10.2251 443.461 14.0231 445.07 18.6974 446.533C31.1137 450.337 62.3734 451.215 74.4975 448.142C79.6101 446.826 84.1383 445.363 84.5766 445.07C84.8687 444.631 83.2619 442.144 80.7786 439.51C78.2954 437.023 75.9582 433.072 75.3739 430.731C74.9357 428.537 73.9132 426.781 73.1828 426.781C71.2839 426.781 61.3509 411.418 61.3509 408.638C61.3509 407.175 60.4744 406.736 59.1598 407.175C57.8451 407.761 56.9687 407.175 56.9687 405.712C56.9687 404.395 53.9011 400.299 50.2493 396.641C43.676 389.911 40.1702 383.912 40.7545 380.254C40.9006 379.376 40.3163 378.498 39.4398 378.498C38.7095 378.498 37.9791 377.181 37.9791 375.718C37.9791 374.109 37.2487 372.646 36.2262 372.353C35.3498 372.061 34.0351 367.232 33.4508 361.819C32.7205 356.259 31.5519 351.138 30.8215 350.114C30.0911 349.236 29.3608 347.773 29.2147 347.041C28.4843 344.115 27.1697 341.189 26.1472 340.457C25.5629 340.018 25.855 336.8 26.8775 333.142C30.0911 321.583 31.9901 318.657 36.0802 318.511C38.2713 318.511 42.3613 325.972 42.3613 329.777C42.3613 331.093 45.2828 335.336 48.7886 338.994C54.7776 344.993 59.8901 353.918 66.4634 368.988C67.7781 372.207 73.0368 383.327 78.0033 393.861C83.1158 404.249 88.6666 416.832 90.4195 421.806C92.1724 426.781 95.6781 433.072 98.0153 435.999L102.251 441.12L118.758 436.291C146.95 427.805 169.591 419.465 186.682 411.126C201.581 403.956 203.042 402.932 202.166 399.86C201.728 397.665 202.312 395.617 203.773 394.007C205.087 392.69 206.402 390.203 206.548 388.447C206.694 386.545 207.863 383.034 209.177 380.693C211.514 376.157 213.998 368.842 219.11 350.992C220.863 345.286 222.762 340.457 223.346 340.457C223.931 340.457 227.875 337.092 231.965 333.142C236.201 329.045 240.145 325.826 240.729 325.826C243.358 325.826 246.572 320.559 247.01 315.584C247.595 306.074 247.156 305.489 240.291 303.733C229.774 301.1 229.335 298.905 238.538 294.662C248.909 289.98 278.854 272.276 283.09 268.326C284.843 266.716 286.304 264.522 286.304 263.498C286.304 261.01 264.247 215.215 256.651 202.193C245.988 183.612 247.302 183.758 238.538 201.462ZM56.0922 293.052C56.5304 294.223 55.9462 297.442 54.9236 300.222C51.5639 308.269 43.3838 310.756 37.9791 305.343C36.3723 303.733 35.0576 301.831 35.0576 301.246C35.0576 298.027 39.4398 294.808 46.0132 292.906C55.5079 290.419 55.0697 290.419 56.0922 293.052ZM191.941 405.42C190.48 406.59 188.873 407.175 188.581 406.883C188.143 406.59 189.165 405.273 190.772 404.249C192.233 403.079 193.84 402.493 194.132 402.786C194.57 403.079 193.547 404.395 191.941 405.42Z" fill="white"/>
<path d="M238.538 201.462C234.448 209.948 230.212 219.75 229.335 223.262C228.459 226.92 225.83 233.211 223.492 237.454C221.301 241.697 218.964 248.574 218.38 252.67C217.796 256.621 216.773 260.279 216.189 260.718C215.458 261.157 215.312 264.961 215.751 269.204C217.796 286.761 216.481 299.49 212.683 299.49C211.514 299.49 210.2 300.514 209.762 301.831C208.593 304.757 212.975 310.171 215.751 309.147C218.526 307.976 218.234 318.95 215.312 324.802L212.829 329.484L216.043 326.704C219.548 323.485 219.548 323.339 217.503 333.142C215.897 340.604 215.897 340.604 210.638 340.165C204.211 339.579 203.042 342.213 206.548 349.09C209.615 354.942 209.469 358.307 205.964 366.062C202.458 373.816 196.615 380.986 190.626 384.497C188.289 386.106 187.12 387.277 188.143 387.277C189.457 387.277 189.749 388.301 189.019 390.496C188.143 393.276 188.581 393.129 192.087 389.472C195.008 386.106 195.738 385.814 195.008 388.009C194.424 389.618 193.84 392.69 193.693 394.885C193.255 399.713 188.727 404.834 178.794 411.418C173.681 414.93 170.322 416.1 167.838 415.661C165.355 415.076 164.917 415.222 166.232 416.247C170.322 419.027 137.017 420.636 127.084 418.002C124.309 417.271 117.735 415.661 112.477 414.345C100.645 411.418 92.7567 407.029 87.7902 400.445L83.9923 395.47L88.6666 398.689C93.1949 401.908 104.004 406.297 107.218 406.297C108.094 406.297 104.881 404.249 100.06 401.762C87.7902 395.617 79.9022 385.814 88.8127 387.862C91.8802 388.594 91.442 388.009 86.0373 384.497C79.464 380.254 75.8121 375.426 78.7336 374.402C79.464 374.109 77.419 369.573 74.2053 364.452C69.2388 356.698 68.5085 354.65 70.2614 353.479C71.8682 352.601 71.8682 352.162 70.4074 352.162C69.3849 352.162 67.632 349.968 66.4634 347.334L64.4184 342.652L64.2723 348.066C64.2723 356.405 61.7891 354.796 58.4294 343.969C54.4854 331.093 54.7776 321.437 59.4519 309.732C60.4744 307.098 62.5195 315.292 63.9802 328.606C64.8566 336.8 65.4409 337.97 68.3624 338.409C71.576 338.994 71.576 338.848 69.3849 333.727C67.1938 328.313 66.3174 321.583 68.2163 323.339C68.6545 323.924 69.9692 323.193 70.9917 321.876C72.4525 319.681 72.1603 318.657 69.2388 315.145C65.2949 310.463 64.8566 306.806 67.486 301.977C68.3624 300.222 69.2388 293.93 69.3849 288.078C69.3849 279.299 69.0928 277.836 67.632 279.884C64.2723 284.566 62.6655 276.08 64.2723 261.157C65.0027 253.695 65.2949 247.403 65.0027 246.964C64.5645 246.672 64.2723 247.55 64.2723 249.159C64.1263 251.793 64.1263 251.793 62.5195 249.013C61.643 247.403 59.598 244.916 58.1373 243.307C55.5079 240.38 54.1933 237.308 47.766 217.556C45.8671 211.557 42.7995 203.217 41.1927 199.267C39.4398 195.17 37.687 190.634 37.2487 189.025C36.2262 186.245 36.0802 186.245 33.8891 189.61C30.8215 194.146 24.6864 208.338 18.2592 225.603C10.6634 246.086 2.92147 264.961 1.31466 266.57C0.584294 267.302 0 269.643 0 271.837C0 276.227 5.98901 281.786 13.4388 284.713L17.3827 286.176L16.5063 313.097C15.922 331.679 16.2142 342.945 17.3827 349.236C19.2817 358.893 31.2597 391.959 34.4733 396.787C38.8556 403.079 36.5184 408.053 17.5288 432.633C13.5848 437.901 10.2251 442.583 10.2251 443.022C10.2251 443.461 14.0231 445.07 18.6974 446.533C31.1137 450.337 62.3734 451.215 74.4975 448.142C79.6101 446.826 84.1383 445.363 84.5766 445.07C84.8687 444.631 83.2619 442.144 80.7786 439.51C78.2954 437.023 75.9582 433.072 75.3739 430.731C74.9357 428.537 73.9132 426.781 73.1828 426.781C71.2839 426.781 61.3509 411.418 61.3509 408.638C61.3509 407.175 60.4744 406.736 59.1598 407.175C57.8451 407.761 56.9687 407.175 56.9687 405.712C56.9687 404.395 53.9011 400.299 50.2493 396.641C43.676 389.911 40.1702 383.912 40.7545 380.254C40.9006 379.376 40.3163 378.498 39.4398 378.498C38.7095 378.498 37.9791 377.181 37.9791 375.718C37.9791 374.109 37.2487 372.646 36.2262 372.353C35.3498 372.061 34.0351 367.232 33.4508 361.819C32.7205 356.259 31.5519 351.138 30.8215 350.114C30.0911 349.236 29.3608 347.773 29.2147 347.041C28.4843 344.115 27.1697 341.189 26.1472 340.457C25.5629 340.018 25.855 336.8 26.8775 333.142C30.0911 321.583 31.9901 318.657 36.0802 318.511C38.2713 318.511 42.3613 325.972 42.3613 329.777C42.3613 331.093 45.2828 335.336 48.7886 338.994C54.7776 344.993 59.8901 353.918 66.4634 368.988C67.7781 372.207 73.0368 383.327 78.0033 393.861C83.1158 404.249 88.6666 416.832 90.4195 421.806C92.1724 426.781 95.6781 433.072 98.0153 435.999L102.251 441.12L118.758 436.291C146.95 427.805 169.591 419.465 186.682 411.126C201.581 403.956 203.042 402.932 202.166 399.86C201.728 397.665 202.312 395.617 203.773 394.007C205.087 392.69 206.402 390.203 206.548 388.447C206.694 386.545 207.863 383.034 209.177 380.693C211.514 376.157 213.998 368.842 219.11 350.992C220.863 345.286 222.762 340.457 223.346 340.457C223.931 340.457 227.875 337.092 231.965 333.142C236.201 329.045 240.145 325.826 240.729 325.826C243.358 325.826 246.572 320.559 247.01 315.584C247.595 306.074 247.156 305.489 240.291 303.733C229.774 301.1 229.335 298.905 238.538 294.662C248.909 289.98 278.854 272.276 283.09 268.326C284.843 266.716 286.304 264.522 286.304 263.498C286.304 261.01 264.247 215.215 256.651 202.193C245.988 183.612 247.302 183.758 238.538 201.462ZM56.0922 293.052C56.5304 294.223 55.9462 297.442 54.9236 300.222C51.5639 308.269 43.3838 310.756 37.9791 305.343C36.3723 303.733 35.0576 301.831 35.0576 301.246C35.0576 298.027 39.4398 294.808 46.0132 292.906C55.5079 290.419 55.0697 290.419 56.0922 293.052ZM191.941 405.42C190.48 406.59 188.873 407.175 188.581 406.883C188.143 406.59 189.165 405.273 190.772 404.249C192.233 403.079 193.84 402.493 194.132 402.786C194.57 403.079 193.547 404.395 191.941 405.42Z" fill="url(#paint3_linear_4_30)"/>
</g>
<defs>
<filter id="filter0_d_4_30" x="0" y="1.52588e-05" width="291.304" height="455" filterUnits="userSpaceOnUse" color-interpolation-filters="sRGB">
<feFlood flood-opacity="0" result="BackgroundImageFix"/>
<feColorMatrix in="SourceAlpha" type="matrix" values="0 0 0 0 0 0 0 0 0 0 0 0 0 0 0 0 0 0 127 0" result="hardAlpha"/>
<feOffset dx="5" dy="5"/>
<feComposite in2="hardAlpha" operator="out"/>
<feColorMatrix type="matrix" values="0 0 0 0 0 0 0 0 0 0 0 0 0 0 0 0 0 0 1 0"/>
<feBlend mode="normal" in2="BackgroundImageFix" result="effect1_dropShadow_4_30"/>
<feBlend mode="normal" in="SourceGraphic" in2="effect1_dropShadow_4_30" result="shape"/>
</filter>
<linearGradient id="paint0_linear_4_30" x1="144.958" y1="90.869" x2="163.41" y2="80.8558" gradientUnits="userSpaceOnUse">
<stop offset="0.9999" stop-color="#006DDD"/>
<stop offset="1" stop-opacity="0"/>
</linearGradient>
<linearGradient id="paint1_linear_4_30" x1="124.915" y1="82.1678" x2="130.141" y2="75.0884" gradientUnits="userSpaceOnUse">
<stop offset="0.9999" stop-color="#87CEEB"/>
<stop offset="1" stop-opacity="0"/>
</linearGradient>
<linearGradient id="paint2_linear_4_30" x1="140.962" y1="198.941" x2="158.301" y2="192.027" gradientUnits="userSpaceOnUse">
<stop offset="0.9999" stop-color="#006DDD"/>
<stop offset="1" stop-opacity="0"/>
</linearGradient>
<linearGradient id="paint3_linear_4_30" x1="143.152" y1="450" x2="194.526" y2="423.961" gradientUnits="userSpaceOnUse">
<stop offset="0.9999" stop-color="#006DDD"/>
<stop offset="1" stop-opacity="0"/>
</linearGradient>
</defs>
</svg>
