<svg width="444" height="696" viewBox="0 0 444 696" fill="none" xmlns="http://www.w3.org/2000/svg">
<g filter="url(#filter0_d_7_33)">
<path d="M206.285 3.9567C204.493 7.09749 203.597 7.54617 201.358 5.0784C197.102 1.26457 189.487 1.71326 180.528 6.6488C176.272 9.11658 171.12 10.687 168.657 10.0139C163.281 8.66789 145.587 24.3719 145.587 30.6535C145.587 33.1213 144.691 36.0377 143.347 37.3838C142.227 38.5055 141.107 42.095 141.107 45.0114C141.107 48.1522 141.107 56.9016 141.107 64.5293C140.883 73.0543 141.779 78.6629 143.123 78.6629C144.467 78.6629 145.587 77.0925 145.587 75.2977C145.587 68.7918 152.306 58.6963 158.578 55.5555C166.193 51.5174 212.557 40.5246 221.068 40.5246C234.507 40.5246 243.242 44.7871 250.409 54.8825C254.441 60.2667 257.576 65.8753 257.576 67.2214C257.576 68.3431 258.92 70.3622 260.488 71.2595C265.416 74.4003 270.791 84.7201 271.015 91.4504C271.239 112.987 274.599 144.395 276.167 139.684C277.287 136.992 281.318 132.281 285.35 129.14C291.173 124.653 293.413 120.839 295.653 110.744C297.221 103.565 299.909 95.7129 301.477 93.0208C304.164 88.9826 304.164 86.9636 301.253 78.6629C299.461 73.2786 298.341 67.2214 299.013 65.2023C301.7 56.9016 290.501 42.9923 273.255 33.3456C266.536 29.3074 256.457 22.8015 251.081 18.7633C245.706 14.7252 238.762 11.36 235.85 11.36C232.267 11.36 229.803 9.78961 229.131 6.87315C228.459 4.40538 226.219 2.38629 224.204 2.16194C222.188 2.16194 217.932 1.48892 214.572 1.04024C210.541 0.367203 207.853 1.26457 206.285 3.9567Z" fill="white"/>
<path d="M206.285 3.9567C204.493 7.09749 203.597 7.54617 201.358 5.0784C197.102 1.26457 189.487 1.71326 180.528 6.6488C176.272 9.11658 171.12 10.687 168.657 10.0139C163.281 8.66789 145.587 24.3719 145.587 30.6535C145.587 33.1213 144.691 36.0377 143.347 37.3838C142.227 38.5055 141.107 42.095 141.107 45.0114C141.107 48.1522 141.107 56.9016 141.107 64.5293C140.883 73.0543 141.779 78.6629 143.123 78.6629C144.467 78.6629 145.587 77.0925 145.587 75.2977C145.587 68.7918 152.306 58.6963 158.578 55.5555C166.193 51.5174 212.557 40.5246 221.068 40.5246C234.507 40.5246 243.242 44.7871 250.409 54.8825C254.441 60.2667 257.576 65.8753 257.576 67.2214C257.576 68.3431 258.92 70.3622 260.488 71.2595C265.416 74.4003 270.791 84.7201 271.015 91.4504C271.239 112.987 274.599 144.395 276.167 139.684C277.287 136.992 281.318 132.281 285.35 129.14C291.173 124.653 293.413 120.839 295.653 110.744C297.221 103.565 299.909 95.7129 301.477 93.0208C304.164 88.9826 304.164 86.9636 301.253 78.6629C299.461 73.2786 298.341 67.2214 299.013 65.2023C301.7 56.9016 290.501 42.9923 273.255 33.3456C266.536 29.3074 256.457 22.8015 251.081 18.7633C245.706 14.7252 238.762 11.36 235.85 11.36C232.267 11.36 229.803 9.78961 229.131 6.87315C228.459 4.40538 226.219 2.38629 224.204 2.16194C222.188 2.16194 217.932 1.48892 214.572 1.04024C210.541 0.367203 207.853 1.26457 206.285 3.9567Z" fill="url(#paint0_linear_7_33)"/>
<path d="M143.795 94.815C140.659 97.9558 140.211 105.583 143.123 105.583C144.467 105.583 144.691 108.949 144.019 112.987C143.123 119.268 143.795 121.063 148.275 123.98C157.01 129.812 165.073 126.672 174.032 114.333C178.288 108.276 182.768 103.34 183.663 103.34C184.783 103.34 187.695 106.481 190.383 110.07C195.982 117.922 205.837 123.531 213.229 123.307C218.156 123.307 218.156 123.082 213.901 121.287C211.437 120.166 210.765 119.268 212.557 119.268C214.349 119.044 216.812 117.249 218.38 115.23C220.62 112.314 221.964 111.865 224.204 113.884C228.459 117.249 241.898 119.941 241.898 117.249C241.898 116.128 237.419 113.435 231.819 111.416C222.636 107.827 218.38 103.34 223.98 103.34C229.131 103.34 225.548 99.3018 217.932 96.3854C208.525 92.7959 188.591 94.3663 185.903 99.0775C184.559 101.097 181.648 100.424 174.256 96.834C163.281 91.6742 148.051 90.5524 143.795 94.815Z" fill="white"/>
<path d="M143.795 94.815C140.659 97.9558 140.211 105.583 143.123 105.583C144.467 105.583 144.691 108.949 144.019 112.987C143.123 119.268 143.795 121.063 148.275 123.98C157.01 129.812 165.073 126.672 174.032 114.333C178.288 108.276 182.768 103.34 183.663 103.34C184.783 103.34 187.695 106.481 190.383 110.07C195.982 117.922 205.837 123.531 213.229 123.307C218.156 123.307 218.156 123.082 213.901 121.287C211.437 120.166 210.765 119.268 212.557 119.268C214.349 119.044 216.812 117.249 218.38 115.23C220.62 112.314 221.964 111.865 224.204 113.884C228.459 117.249 241.898 119.941 241.898 117.249C241.898 116.128 237.419 113.435 231.819 111.416C222.636 107.827 218.38 103.34 223.98 103.34C229.131 103.34 225.548 99.3018 217.932 96.3854C208.525 92.7959 188.591 94.3663 185.903 99.0775C184.559 101.097 181.648 100.424 174.256 96.834C163.281 91.6742 148.051 90.5524 143.795 94.815Z" fill="url(#paint1_linear_7_33)"/>
<path d="M162.385 152.247C163.505 157.407 162.385 159.426 156.786 163.464C150.962 167.951 150.066 169.97 150.29 177.149C150.738 181.636 150.066 186.571 149.171 188.142C146.707 192.18 151.634 205.192 157.906 211.025C163.953 216.858 165.297 224.485 160.37 224.485C158.578 224.485 154.994 227.177 152.53 230.318C138.42 248.266 157.906 288.199 186.799 300.986C201.582 307.492 220.844 307.492 237.866 300.986C262.728 291.339 284.454 264.643 284.454 243.554C284.454 233.459 281.99 229.197 272.807 223.364C265.64 218.877 264.968 219.998 270.343 228.075C283.11 247.817 258.473 283.487 226.667 290.891C197.998 297.621 171.792 284.833 163.281 260.604C159.474 249.612 168.433 234.132 173.584 242.433C174.256 243.554 176.496 244.676 178.288 244.676C180.08 244.676 186.127 247.593 191.727 251.182C203.822 258.585 209.421 258.137 214.125 248.939C215.916 245.349 218.156 242.433 219.276 242.433C220.396 242.433 220.844 240.638 220.172 238.395C219.5 235.478 222.188 232.786 231.147 228.075C242.794 221.793 255.337 211.698 255.337 208.557C255.337 207.211 233.163 203.173 228.459 203.846C227.787 203.846 225.548 202.948 223.308 201.602C220.62 200.256 218.156 200.256 216.588 201.602C215.021 202.724 205.165 204.294 194.19 204.743C177.392 205.641 173.584 205.192 166.193 200.929C160.37 197.789 157.682 194.648 157.234 190.161C156.338 183.431 161.937 181.412 164.401 187.469C165.297 189.937 169.329 190.834 180.304 190.834C193.294 190.834 194.862 190.385 194.862 186.347C194.862 182.309 193.294 181.86 182.543 181.86C170.225 181.86 166.193 178.944 174.704 176.252C181.2 174.233 204.046 177.373 209.869 180.963C216.364 185.001 217.26 185.001 217.26 180.065C217.26 177.598 215.244 174.008 212.557 171.54C208.973 168.175 207.629 167.951 206.061 170.419C204.717 172.887 202.702 172.887 197.102 170.867C193.071 169.521 186.351 168.4 182.319 168.4C178.288 168.4 173.584 167.727 171.568 167.054C166.417 165.035 167.089 160.996 172.24 162.342C177.616 163.688 185.679 156.061 180.976 154.266C179.408 153.593 181.424 152.92 185.455 152.92C193.071 152.696 195.31 149.106 188.815 147.536C186.575 146.863 179.408 146.414 172.912 146.414C161.041 146.19 161.041 146.19 162.385 152.247Z" fill="white"/>
<path d="M162.385 152.247C163.505 157.407 162.385 159.426 156.786 163.464C150.962 167.951 150.066 169.97 150.29 177.149C150.738 181.636 150.066 186.571 149.171 188.142C146.707 192.18 151.634 205.192 157.906 211.025C163.953 216.858 165.297 224.485 160.37 224.485C158.578 224.485 154.994 227.177 152.53 230.318C138.42 248.266 157.906 288.199 186.799 300.986C201.582 307.492 220.844 307.492 237.866 300.986C262.728 291.339 284.454 264.643 284.454 243.554C284.454 233.459 281.99 229.197 272.807 223.364C265.64 218.877 264.968 219.998 270.343 228.075C283.11 247.817 258.473 283.487 226.667 290.891C197.998 297.621 171.792 284.833 163.281 260.604C159.474 249.612 168.433 234.132 173.584 242.433C174.256 243.554 176.496 244.676 178.288 244.676C180.08 244.676 186.127 247.593 191.727 251.182C203.822 258.585 209.421 258.137 214.125 248.939C215.916 245.349 218.156 242.433 219.276 242.433C220.396 242.433 220.844 240.638 220.172 238.395C219.5 235.478 222.188 232.786 231.147 228.075C242.794 221.793 255.337 211.698 255.337 208.557C255.337 207.211 233.163 203.173 228.459 203.846C227.787 203.846 225.548 202.948 223.308 201.602C220.62 200.256 218.156 200.256 216.588 201.602C215.021 202.724 205.165 204.294 194.19 204.743C177.392 205.641 173.584 205.192 166.193 200.929C160.37 197.789 157.682 194.648 157.234 190.161C156.338 183.431 161.937 181.412 164.401 187.469C165.297 189.937 169.329 190.834 180.304 190.834C193.294 190.834 194.862 190.385 194.862 186.347C194.862 182.309 193.294 181.86 182.543 181.86C170.225 181.86 166.193 178.944 174.704 176.252C181.2 174.233 204.046 177.373 209.869 180.963C216.364 185.001 217.26 185.001 217.26 180.065C217.26 177.598 215.244 174.008 212.557 171.54C208.973 168.175 207.629 167.951 206.061 170.419C204.717 172.887 202.702 172.887 197.102 170.867C193.071 169.521 186.351 168.4 182.319 168.4C178.288 168.4 173.584 167.727 171.568 167.054C166.417 165.035 167.089 160.996 172.24 162.342C177.616 163.688 185.679 156.061 180.976 154.266C179.408 153.593 181.424 152.92 185.455 152.92C193.071 152.696 195.31 149.106 188.815 147.536C186.575 146.863 179.408 146.414 172.912 146.414C161.041 146.19 161.041 146.19 162.385 152.247Z" fill="url(#paint2_linear_7_33)"/>
<path d="M365.759 309.736C359.487 322.748 352.992 337.779 351.648 343.163C350.304 348.772 346.272 358.418 342.689 364.924C339.329 371.43 335.745 381.974 334.849 388.256C333.954 394.313 332.386 399.922 331.49 400.595C330.37 401.268 330.146 407.101 330.818 413.607C333.954 440.528 331.938 460.046 326.114 460.046C324.322 460.046 322.307 461.616 321.635 463.635C319.843 468.122 326.562 476.423 330.818 474.852C335.073 473.057 334.626 489.883 330.146 498.857L326.338 506.036L331.266 501.773C336.641 496.838 336.641 496.613 333.506 511.644C331.042 523.086 331.042 523.086 322.979 522.413C313.123 521.515 311.332 525.554 316.707 536.098C321.411 545.071 321.187 550.231 315.811 562.121C310.436 574.012 301.477 585.004 292.293 590.389C288.71 592.856 286.918 594.651 288.486 594.651C290.502 594.651 290.949 596.222 289.83 599.587C288.486 603.849 289.158 603.625 294.533 598.016C299.013 592.856 300.133 592.408 299.013 595.773C298.117 598.241 297.221 602.952 296.997 606.317C296.325 613.72 289.382 621.572 274.151 631.668C266.312 637.052 261.16 638.847 257.353 638.174C253.545 637.276 252.873 637.501 254.889 639.071C261.16 643.334 210.093 645.801 194.862 641.763C190.607 640.641 180.528 638.174 172.464 636.155C154.322 631.668 142.227 624.937 134.612 614.842L128.788 607.214L135.956 612.15C142.899 617.085 159.473 623.816 164.401 623.816C165.745 623.816 160.817 620.675 153.426 616.861C134.612 607.439 122.517 592.408 136.18 595.549C140.883 596.67 140.211 595.773 131.924 590.389C121.845 583.883 116.245 576.479 120.725 574.909C121.845 574.46 118.709 567.506 113.782 559.654C106.166 547.764 105.046 544.623 107.734 542.828C110.198 541.482 110.198 540.809 107.958 540.809C106.39 540.809 103.703 537.444 101.911 533.406L98.775 526.227L98.551 534.527C98.551 547.315 94.7434 544.847 89.5918 528.246C83.5444 508.504 83.9923 493.697 91.1597 475.75C92.7276 471.711 95.8633 484.275 98.1031 504.69C99.4469 517.253 100.343 519.048 104.822 519.721C109.75 520.618 109.75 520.394 106.39 512.542C103.031 504.241 101.687 493.921 104.598 496.613C105.27 497.511 107.286 496.389 108.854 494.37C111.094 491.005 110.646 489.434 106.166 484.05C100.119 476.871 99.4469 471.263 103.479 463.859C104.822 461.167 106.166 451.521 106.39 442.547C106.39 429.086 105.942 426.843 103.703 429.984C98.551 437.163 96.0872 424.151 98.551 401.268C99.6709 389.826 100.119 380.18 99.6709 379.507C98.999 379.058 98.551 380.404 98.551 382.872C98.327 386.91 98.327 386.91 95.8633 382.647C94.5194 380.18 91.3837 376.366 89.1439 373.898C85.1122 369.411 83.0964 364.7 73.2413 334.414C70.3296 325.216 65.626 312.428 63.1622 306.371C60.4745 300.089 57.7867 293.135 57.1148 290.667C55.5469 286.404 55.323 286.404 51.9633 291.564C47.2597 298.519 37.8526 320.28 27.9974 346.752C16.3505 378.16 4.47959 407.101 2.01582 409.568C0.895918 410.69 0 414.28 0 417.645C0 424.375 9.18316 432.9 20.6061 437.387L26.6536 439.63L25.3097 480.909C24.4138 509.401 24.8617 526.675 26.6536 536.322C29.5653 551.129 47.9316 601.83 52.8592 609.233C59.5786 618.88 55.9949 626.508 26.8776 664.197C20.8301 672.274 15.6786 679.453 15.6786 680.126C15.6786 680.799 21.502 683.267 28.6694 685.51C47.7077 691.343 95.6393 692.689 114.23 687.978C122.069 685.959 129.012 683.715 129.684 683.267C130.132 682.593 127.668 678.78 123.861 674.741C120.053 670.928 116.469 664.87 115.573 661.281C114.902 657.916 113.334 655.224 112.214 655.224C109.302 655.224 94.0714 631.668 94.0714 627.405C94.0714 625.162 92.7276 624.489 90.7117 625.162C88.6959 626.059 87.352 625.162 87.352 622.918C87.352 620.899 82.6485 614.618 77.049 609.009C66.9699 598.689 61.5944 589.491 62.4903 583.883C62.7143 582.537 61.8184 581.191 60.4745 581.191C59.3546 581.191 58.2347 579.172 58.2347 576.928C58.2347 574.46 57.1148 572.217 55.5469 571.768C54.2031 571.32 52.1872 563.916 51.2913 555.616C50.1714 547.09 48.3796 539.238 47.2597 537.668C46.1398 536.322 45.0199 534.079 44.7959 532.957C43.676 528.47 41.6602 523.983 40.0923 522.861C39.1964 522.188 39.6444 517.253 41.2122 511.644C46.1398 493.921 49.0515 489.434 55.323 489.21C58.6827 489.21 64.9541 500.652 64.9541 506.484C64.9541 508.504 69.4337 515.009 74.8092 520.618C83.9923 529.816 91.8316 543.501 101.911 566.608C103.927 571.544 111.99 588.594 119.605 604.747C127.444 620.675 135.956 639.968 138.643 647.596C141.331 655.224 146.707 664.87 150.29 669.357L156.786 677.209L182.095 669.806C225.323 656.794 260.04 644.007 286.246 631.219C309.092 620.226 311.332 618.656 309.988 613.945C309.316 610.579 310.212 607.439 312.452 604.971C314.467 602.952 316.483 599.138 316.707 596.446C316.931 593.529 318.723 588.145 320.739 584.556C324.322 577.601 328.13 566.384 335.969 539.014C338.657 530.265 341.569 522.861 342.465 522.861C343.361 522.861 349.408 517.702 355.68 511.644C362.175 505.363 368.222 500.427 369.118 500.427C373.15 500.427 378.078 492.351 378.749 484.723C379.645 470.141 378.973 469.244 368.446 466.551C352.32 462.513 351.648 459.148 365.759 452.642C381.661 445.463 427.577 418.318 434.072 412.261C436.76 409.793 439 406.428 439 404.857C439 401.043 405.179 330.824 393.532 310.858C377.182 282.366 379.197 282.59 365.759 309.736ZM86.0082 450.174C86.6801 451.969 85.7842 456.905 84.2163 461.167C79.0648 473.506 66.5219 477.32 58.2347 469.019C55.7709 466.551 53.7551 463.635 53.7551 462.738C53.7551 457.802 60.4745 452.867 70.5536 449.95C85.1122 446.136 84.4403 446.136 86.0082 450.174ZM294.309 622.47C292.069 624.264 289.606 625.162 289.158 624.713C288.486 624.264 290.054 622.245 292.517 620.675C294.757 618.88 297.221 617.983 297.669 618.431C298.341 618.88 296.773 620.899 294.309 622.47Z" fill="white"/>
<path d="M365.759 309.736C359.487 322.748 352.992 337.779 351.648 343.163C350.304 348.772 346.272 358.418 342.689 364.924C339.329 371.43 335.745 381.974 334.849 388.256C333.954 394.313 332.386 399.922 331.49 400.595C330.37 401.268 330.146 407.101 330.818 413.607C333.954 440.528 331.938 460.046 326.114 460.046C324.322 460.046 322.307 461.616 321.635 463.635C319.843 468.122 326.562 476.423 330.818 474.852C335.073 473.057 334.626 489.883 330.146 498.857L326.338 506.036L331.266 501.773C336.641 496.838 336.641 496.613 333.506 511.644C331.042 523.086 331.042 523.086 322.979 522.413C313.123 521.515 311.332 525.554 316.707 536.098C321.411 545.071 321.187 550.231 315.811 562.121C310.436 574.012 301.477 585.004 292.293 590.389C288.71 592.856 286.918 594.651 288.486 594.651C290.502 594.651 290.949 596.222 289.83 599.587C288.486 603.849 289.158 603.625 294.533 598.016C299.013 592.856 300.133 592.408 299.013 595.773C298.117 598.241 297.221 602.952 296.997 606.317C296.325 613.72 289.382 621.572 274.151 631.668C266.312 637.052 261.16 638.847 257.353 638.174C253.545 637.276 252.873 637.501 254.889 639.071C261.16 643.334 210.093 645.801 194.862 641.763C190.607 640.641 180.528 638.174 172.464 636.155C154.322 631.668 142.227 624.937 134.612 614.842L128.788 607.214L135.956 612.15C142.899 617.085 159.473 623.816 164.401 623.816C165.745 623.816 160.817 620.675 153.426 616.861C134.612 607.439 122.517 592.408 136.18 595.549C140.883 596.67 140.211 595.773 131.924 590.389C121.845 583.883 116.245 576.479 120.725 574.909C121.845 574.46 118.709 567.506 113.782 559.654C106.166 547.764 105.046 544.623 107.734 542.828C110.198 541.482 110.198 540.809 107.958 540.809C106.39 540.809 103.703 537.444 101.911 533.406L98.775 526.227L98.551 534.527C98.551 547.315 94.7434 544.847 89.5918 528.246C83.5444 508.504 83.9923 493.697 91.1597 475.75C92.7276 471.711 95.8633 484.275 98.1031 504.69C99.4469 517.253 100.343 519.048 104.822 519.721C109.75 520.618 109.75 520.394 106.39 512.542C103.031 504.241 101.687 493.921 104.598 496.613C105.27 497.511 107.286 496.389 108.854 494.37C111.094 491.005 110.646 489.434 106.166 484.05C100.119 476.871 99.4469 471.263 103.479 463.859C104.822 461.167 106.166 451.521 106.39 442.547C106.39 429.086 105.942 426.843 103.703 429.984C98.551 437.163 96.0872 424.151 98.551 401.268C99.6709 389.826 100.119 380.18 99.6709 379.507C98.999 379.058 98.551 380.404 98.551 382.872C98.327 386.91 98.327 386.91 95.8633 382.647C94.5194 380.18 91.3837 376.366 89.1439 373.898C85.1122 369.411 83.0964 364.7 73.2413 334.414C70.3296 325.216 65.626 312.428 63.1622 306.371C60.4745 300.089 57.7867 293.135 57.1148 290.667C55.5469 286.404 55.323 286.404 51.9633 291.564C47.2597 298.519 37.8526 320.28 27.9974 346.752C16.3505 378.16 4.47959 407.101 2.01582 409.568C0.895918 410.69 0 414.28 0 417.645C0 424.375 9.18316 432.9 20.6061 437.387L26.6536 439.63L25.3097 480.909C24.4138 509.401 24.8617 526.675 26.6536 536.322C29.5653 551.129 47.9316 601.83 52.8592 609.233C59.5786 618.88 55.9949 626.508 26.8776 664.197C20.8301 672.274 15.6786 679.453 15.6786 680.126C15.6786 680.799 21.502 683.267 28.6694 685.51C47.7077 691.343 95.6393 692.689 114.23 687.978C122.069 685.959 129.012 683.715 129.684 683.267C130.132 682.593 127.668 678.78 123.861 674.741C120.053 670.928 116.469 664.87 115.573 661.281C114.902 657.916 113.334 655.224 112.214 655.224C109.302 655.224 94.0714 631.668 94.0714 627.405C94.0714 625.162 92.7276 624.489 90.7117 625.162C88.6959 626.059 87.352 625.162 87.352 622.918C87.352 620.899 82.6485 614.618 77.049 609.009C66.9699 598.689 61.5944 589.491 62.4903 583.883C62.7143 582.537 61.8184 581.191 60.4745 581.191C59.3546 581.191 58.2347 579.172 58.2347 576.928C58.2347 574.46 57.1148 572.217 55.5469 571.768C54.2031 571.32 52.1872 563.916 51.2913 555.616C50.1714 547.09 48.3796 539.238 47.2597 537.668C46.1398 536.322 45.0199 534.079 44.7959 532.957C43.676 528.47 41.6602 523.983 40.0923 522.861C39.1964 522.188 39.6444 517.253 41.2122 511.644C46.1398 493.921 49.0515 489.434 55.323 489.21C58.6827 489.21 64.9541 500.652 64.9541 506.484C64.9541 508.504 69.4337 515.009 74.8092 520.618C83.9923 529.816 91.8316 543.501 101.911 566.608C103.927 571.544 111.99 588.594 119.605 604.747C127.444 620.675 135.956 639.968 138.643 647.596C141.331 655.224 146.707 664.87 150.29 669.357L156.786 677.209L182.095 669.806C225.323 656.794 260.04 644.007 286.246 631.219C309.092 620.226 311.332 618.656 309.988 613.945C309.316 610.579 310.212 607.439 312.452 604.971C314.467 602.952 316.483 599.138 316.707 596.446C316.931 593.529 318.723 588.145 320.739 584.556C324.322 577.601 328.13 566.384 335.969 539.014C338.657 530.265 341.569 522.861 342.465 522.861C343.361 522.861 349.408 517.702 355.68 511.644C362.175 505.363 368.222 500.427 369.118 500.427C373.15 500.427 378.078 492.351 378.749 484.723C379.645 470.141 378.973 469.244 368.446 466.551C352.32 462.513 351.648 459.148 365.759 452.642C381.661 445.463 427.577 418.318 434.072 412.261C436.76 409.793 439 406.428 439 404.857C439 401.043 405.179 330.824 393.532 310.858C377.182 282.366 379.197 282.59 365.759 309.736ZM86.0082 450.174C86.6801 451.969 85.7842 456.905 84.2163 461.167C79.0648 473.506 66.5219 477.32 58.2347 469.019C55.7709 466.551 53.7551 463.635 53.7551 462.738C53.7551 457.802 60.4745 452.867 70.5536 449.95C85.1122 446.136 84.4403 446.136 86.0082 450.174ZM294.309 622.47C292.069 624.264 289.606 625.162 289.158 624.713C288.486 624.264 290.054 622.245 292.517 620.675C294.757 618.88 297.221 617.983 297.669 618.431C298.341 618.88 296.773 620.899 294.309 622.47Z" fill="url(#paint3_linear_7_33)"/>
</g>
<defs>
<filter id="filter0_d_7_33" x="0" y="0.82605" width="444" height="695" filterUnits="userSpaceOnUse" color-interpolation-filters="sRGB">
<feFlood flood-opacity="0" result="BackgroundImageFix"/>
<feColorMatrix in="SourceAlpha" type="matrix" values="0 0 0 0 0 0 0 0 0 0 0 0 0 0 0 0 0 0 127 0" result="hardAlpha"/>
<feOffset dx="5" dy="5"/>
<feComposite in2="hardAlpha" operator="out"/>
<feColorMatrix type="matrix" values="0 0 0 0 0 0 0 0 0 0 0 0 0 0 0 0 0 0 0.5 0"/>
<feBlend mode="normal" in2="BackgroundImageFix" result="effect1_dropShadow_7_33"/>
<feBlend mode="normal" in="SourceGraphic" in2="effect1_dropShadow_7_33" result="shape"/>
</filter>
<linearGradient id="paint0_linear_7_33" x1="222.269" y1="140.159" x2="250.563" y2="124.805" gradientUnits="userSpaceOnUse">
<stop offset="0.9999" stop-color="#DD2E44"/>
<stop offset="1" stop-opacity="0"/>
</linearGradient>
<linearGradient id="paint1_linear_7_33" x1="191.535" y1="126.815" x2="199.549" y2="115.96" gradientUnits="userSpaceOnUse">
<stop offset="0.9999" stop-color="#DD2E44"/>
<stop offset="1" stop-opacity="0"/>
</linearGradient>
<linearGradient id="paint2_linear_7_33" x1="216.143" y1="305.866" x2="242.729" y2="295.264" gradientUnits="userSpaceOnUse">
<stop offset="0.9999" stop-color="#DD2E44"/>
<stop offset="1" stop-opacity="0"/>
</linearGradient>
<linearGradient id="paint3_linear_7_33" x1="219.5" y1="690.826" x2="298.273" y2="650.899" gradientUnits="userSpaceOnUse">
<stop offset="0.9999" stop-color="#DD2E44"/>
<stop offset="1" stop-opacity="0"/>
</linearGradient>
</defs>
</svg>
