<?xml version="1.0" standalone="no"?>
<!DOCTYPE svg PUBLIC "-//W3C//DTD SVG 20010904//EN"
 "http://www.w3.org/TR/2001/REC-SVG-20010904/DTD/svg10.dtd">
<svg version="1.0" xmlns="http://www.w3.org/2000/svg"
 width="500.000000pt" height="500.000000pt" viewBox="0 0 500.000000 500.000000"
 preserveAspectRatio="xMidYMid meet">

<g transform="translate(0.000000,500.000000) scale(0.100000,-0.100000)"
fill="#000000" stroke="none">
<path d="M2651 4023 c-8 -14 -12 -16 -22 -5 -19 17 -53 15 -93 -7 -19 -11 -42
-18 -53 -15 -24 6 -103 -64 -103 -92 0 -11 -4 -24 -10 -30 -5 -5 -10 -21 -10
-34 0 -14 0 -53 0 -87 -1 -38 3 -63 9 -63 6 0 11 7 11 15 0 29 30 74 58 88 34
18 241 67 279 67 60 0 99 -19 131 -64 18 -24 32 -49 32 -55 0 -5 6 -14 13 -18
22 -14 46 -60 47 -90 1 -96 16 -236 23 -215 5 12 23 33 41 47 26 20 36 37 46
82 7 32 19 67 26 79 12 18 12 27 -1 64 -8 24 -13 51 -10 60 12 37 -38 99 -115
142 -30 18 -75 47 -99 65 -24 18 -55 33 -68 33 -16 0 -27 7 -30 20 -3 11 -13
20 -22 21 -9 0 -28 3 -43 5 -18 3 -30 -1 -37 -13z"/>
<path d="M2372 3618 c-14 -14 -16 -48 -3 -48 6 0 7 -15 4 -33 -4 -28 -1 -36
19 -49 39 -26 75 -12 115 43 19 27 39 49 43 49 5 0 18 -14 30 -30 25 -35 69
-60 102 -59 22 0 22 1 3 9 -11 5 -14 9 -6 9 8 1 19 9 26 18 10 13 16 15 26 6
19 -15 79 -27 79 -15 0 5 -20 17 -45 26 -41 16 -60 36 -35 36 23 0 7 18 -27
31 -42 16 -131 9 -143 -12 -6 -9 -19 -6 -52 10 -49 23 -117 28 -136 9z"/>
<path d="M3031 3453 c0 -4 4 -17 9 -28 8 -19 9 -19 9 2 1 12 -3 25 -9 28 -5 3
-10 3 -9 -2z"/>
<path d="M2982 3394 c1 -9 9 -19 16 -22 9 -3 13 2 10 14 -1 9 -9 19 -16 22 -9
3 -13 -2 -10 -14z"/>
<path d="M2455 3362 c5 -23 0 -32 -25 -50 -26 -20 -30 -29 -29 -61 2 -20 -1
-42 -5 -49 -11 -18 11 -76 39 -102 27 -26 33 -60 11 -60 -8 0 -24 -12 -35 -26
-63 -80 24 -258 153 -315 66 -29 152 -29 228 0 111 43 208 162 208 256 0 45
-11 64 -52 90 -32 20 -35 15 -11 -21 57 -88 -53 -247 -195 -280 -128 -30 -245
27 -283 135 -17 49 23 118 46 81 3 -5 13 -10 21 -10 8 0 35 -13 60 -29 54 -33
79 -31 100 10 8 16 18 29 23 29 5 0 7 8 4 18 -3 13 9 25 49 46 52 28 108 73
108 87 0 6 -99 24 -120 21 -3 0 -13 4 -23 10 -12 6 -23 6 -30 0 -7 -5 -51 -12
-100 -14 -75 -4 -92 -2 -125 17 -26 14 -38 28 -40 48 -4 30 21 39 32 12 4 -11
22 -15 71 -15 58 0 65 2 65 20 0 18 -7 20 -55 20 -55 0 -73 13 -35 25 29 9
131 -5 157 -21 29 -18 33 -18 33 4 0 11 -9 27 -21 38 -16 15 -22 16 -29 5 -6
-11 -15 -11 -40 -2 -18 6 -48 11 -66 11 -18 0 -39 3 -48 6 -23 9 -20 27 3 21
24 -6 60 28 39 36 -7 3 2 6 20 6 34 1 44 17 15 24 -10 3 -42 5 -71 5 -53 1
-53 1 -47 -26z"/>
<path d="M3363 2660 c-28 -58 -57 -125 -63 -149 -6 -25 -24 -68 -40 -97 -15
-29 -31 -76 -35 -104 -4 -27 -11 -52 -15 -55 -5 -3 -6 -29 -3 -58 14 -120 5
-207 -21 -207 -8 0 -17 -7 -20 -16 -8 -20 22 -57 41 -50 19 8 17 -67 -3 -107
l-17 -32 22 19 c24 22 24 23 10 -44 -11 -51 -11 -51 -47 -48 -44 4 -52 -14
-28 -61 21 -40 20 -63 -4 -116 -24 -53 -64 -102 -105 -126 -16 -11 -24 -19
-17 -19 9 0 11 -7 6 -22 -6 -19 -3 -18 21 7 20 23 25 25 20 10 -4 -11 -8 -32
-9 -47 -3 -33 -34 -68 -102 -113 -35 -24 -58 -32 -75 -29 -17 4 -20 3 -11 -4
28 -19 -200 -30 -268 -12 -19 5 -64 16 -100 25 -81 20 -135 50 -169 95 l-26
34 32 -22 c31 -22 105 -52 127 -52 6 0 -16 14 -49 31 -84 42 -138 109 -77 95
21 -5 18 -1 -19 23 -45 29 -70 62 -50 69 5 2 -9 33 -31 68 -34 53 -39 67 -27
75 11 6 11 9 1 9 -7 0 -19 15 -27 33 l-14 32 -1 -37 c0 -57 -17 -46 -40 28
-27 88 -25 154 7 234 7 18 21 -38 31 -129 6 -56 10 -64 30 -67 22 -4 22 -3 7
32 -15 37 -21 83 -8 71 3 -4 12 1 19 10 10 15 8 22 -12 46 -27 32 -30 57 -12
90 6 12 12 55 13 95 0 60 -2 70 -12 56 -23 -32 -34 26 -23 128 5 51 7 94 5 97
-3 2 -5 -4 -5 -15 -1 -18 -1 -18 -12 1 -6 11 -20 28 -30 39 -18 20 -27 41 -71
176 -13 41 -34 98 -45 125 -12 28 -24 59 -27 70 -7 19 -8 19 -23 -4 -21 -31
-63 -128 -107 -246 -52 -140 -105 -269 -116 -280 -5 -5 -9 -21 -9 -36 0 -30
41 -68 92 -88 l27 -10 -6 -184 c-4 -127 -2 -204 6 -247 13 -66 95 -292 117
-325 30 -43 14 -77 -116 -245 -27 -36 -50 -68 -50 -71 0 -3 26 -14 58 -24 85
-26 299 -32 382 -11 35 9 66 19 69 21 2 3 -9 20 -26 38 -17 17 -33 44 -37 60
-3 15 -10 27 -15 27 -13 0 -81 105 -81 124 0 10 -6 13 -15 10 -9 -4 -15 0 -15
10 0 9 -21 37 -46 62 -45 46 -69 87 -65 112 1 6 -3 12 -9 12 -5 0 -10 9 -10
19 0 11 -5 21 -12 23 -6 2 -15 35 -19 72 -5 38 -13 73 -18 80 -5 6 -10 16 -11
21 -5 20 -14 40 -21 45 -4 3 -2 25 5 50 22 79 35 99 63 100 15 0 43 -51 43
-77 0 -9 20 -38 44 -63 41 -41 76 -102 121 -205 9 -22 45 -98 79 -170 35 -71
73 -157 85 -191 12 -34 36 -77 52 -97 l29 -35 113 33 c193 58 348 115 465 172
102 49 112 56 106 77 -3 15 1 29 11 40 9 9 18 26 19 38 1 13 9 37 18 53 16 31
33 81 68 203 12 39 25 72 29 72 4 0 31 23 59 50 29 28 56 50 60 50 18 0 40 36
43 70 4 65 1 69 -46 81 -72 18 -75 33 -12 62 71 32 276 153 305 180 12 11 22
26 22 33 0 17 -151 330 -203 419 -73 127 -64 126 -124 5z m-1249 -626 c3 -8
-1 -30 -8 -49 -23 -55 -79 -72 -116 -35 -11 11 -20 24 -20 28 0 22 30 44 75
57 65 17 62 17 69 -1z m930 -768 c-10 -8 -21 -12 -23 -10 -3 2 4 11 15 18 10
8 21 12 23 10 3 -2 -4 -11 -15 -18z"/>
<path d="M3416 1494 c-11 -27 -7 -37 9 -24 16 14 20 40 6 40 -5 0 -12 -7 -15
-16z"/>
<path d="M2380 1370 c8 -5 20 -10 25 -10 6 0 3 5 -5 10 -8 5 -19 10 -25 10 -5
0 -3 -5 5 -10z"/>
<path d="M2743 1243 c9 -2 23 -2 30 0 6 3 -1 5 -18 5 -16 0 -22 -2 -12 -5z"/>
</g>
</svg>
