<svg width="262" height="416" viewBox="0 0 262 416" fill="none" xmlns="http://www.w3.org/2000/svg">
<path d="M83.3722 114.551C94.933 160.23 87.332 210.304 66.6735 252.343C57.4125 271.189 45.0022 289.765 28.5208 303.103C23.852 306.882 16.2205 312.546 9.83146 309.351C5.71103 307.291 3.90204 302.62 3.74914 298.237C3.25485 284.068 16.6615 275.156 28.6313 271.033C42.9769 266.091 60.6758 265.92 75.0781 270.756C89.686 275.662 100.668 287.09 112.236 296.689" stroke="#04A5FF" stroke-width="7" stroke-linecap="round"/>
<path d="M60.956 172.509C67.5082 155.749 71.6746 138.471 75.1932 120.863C79.6074 98.7745 84.4886 76.5835 87.4434 54.2417C89.4219 39.2821 89.651 24.2562 88.6219 9.18253C87.5689 -6.24183 88.0351 16.8143 88.1799 19.8554C89.7279 52.3467 90.61 85.046 94.0526 117.432C99.9911 173.297 113.97 227.601 132.486 280.877C143.248 311.842 154.692 342.702 167.094 373.111C172.908 387.366 178.509 400.476 188.578 412.267" stroke="#04A5FF" stroke-width="7" stroke-linecap="round"/>
<path d="M43.5607 321.571C45.8702 321.443 47.9889 320.62 50.1406 319.802C66.6613 313.524 82.4007 305.289 98.9098 298.901C127.76 287.737 156.929 277.534 185.445 265.503C200.48 259.16 215.264 252.319 230.675 246.925" stroke="#04A5FF" stroke-width="7" stroke-linecap="round"/>
<path d="M98.3015 321.571C110.178 319.922 122.139 313.032 133.137 308.633C147.641 302.831 161.993 297.189 176.929 292.708" stroke="#04A5FF" stroke-width="7" stroke-linecap="round"/>
</svg>
