<svg width="94" height="39" viewBox="0 0 94 39" fill="none" xmlns="http://www.w3.org/2000/svg">
<path d="M16.832 27.256L2.08 21.528V18.072L16.832 12.344V15.672L3.328 20.728V18.872L16.832 23.928V27.256ZM62.1337 34.2L72.6938 4.056H76.2778L65.7178 34.2H62.1337ZM77.0488 27.256V23.928L90.5528 18.872V20.728L77.0488 15.672V12.344L91.8008 18.072V21.528L77.0488 27.256Z" fill="white"/>
<g clip-path="url(#clip0_8_260)">
<path d="M36.5233 21.855C38.9513 23.9159 40.3081 25.1039 40.5938 25.4191L41.187 26.0919C41.5276 26.4434 41.8133 26.6192 42.044 26.6192C42.2747 26.6192 42.4779 26.5585 42.6537 26.4374C42.8295 26.304 43.0382 26.0979 43.2799 25.8191C43.5326 25.5281 43.8127 25.2433 44.1203 24.9644L47.7953 21.8368L43.2964 11.1262C42.9998 10.411 42.7636 9.87149 42.5878 9.5078C42.423 9.14412 42.2692 8.96228 42.1264 8.96228C41.9945 8.96228 41.8572 9.09563 41.7143 9.36233C41.5825 9.61691 41.4068 10.017 41.187 10.5625L36.5233 21.855ZM30.8544 32.8201L28.4154 32.9655C27.5585 32.9655 27.13 32.5837 27.13 31.8199C27.13 31.3229 27.4871 30.7713 28.2012 30.1652C29.4756 29.0498 30.6621 27.3163 31.7607 24.9644L37.4956 12.2354L39.5391 7.45298C40.0224 6.27706 40.4345 5.46484 40.7751 5.01629C41.1266 4.55562 41.5716 4.32529 42.1099 4.32529C42.6482 4.32529 43.0987 4.52531 43.4612 4.92537C43.8347 5.32542 44.2796 6.13766 44.796 7.36206L48.405 15.8723C51.4922 22.6368 53.1347 26.2191 53.3324 26.6192L53.9422 27.8376C54.4255 28.771 54.7606 29.3347 54.9473 29.5286C55.1342 29.7226 55.3264 29.8863 55.5242 30.0196C56.3921 30.5894 56.8261 31.0986 56.8261 31.5471C56.8261 32.4928 56.3976 32.9655 55.5407 32.9655L53.0523 32.8383L49.7069 32.9655C49.1466 32.9655 48.7072 32.8443 48.3886 32.6018C48.0699 32.3594 47.9107 31.9957 47.9107 31.5108C47.9107 30.5167 48.9104 30.0196 50.9099 30.0196C51.0308 30.0196 51.1516 30.0196 51.2724 30.0196C51.3933 30.0196 51.5141 30.0136 51.635 30.0015C51.3383 29.5286 51.0308 28.9286 50.7122 28.2012L49.0313 24.4189L45.9331 27.0738C44.9224 27.9345 44.1698 28.6983 43.6754 29.365C43.1811 30.0196 42.7306 30.347 42.3241 30.347C41.9176 30.347 41.5935 30.2379 41.3518 30.0196C41.1211 29.8014 40.9123 29.5712 40.7256 29.3287L40.0334 28.4558C39.8357 28.2012 39.5721 27.9285 39.2424 27.6375L36.7046 25.5463C36.1882 25.1342 35.6609 24.6917 35.1226 24.2189L32.7001 30.1105H33.1945C34.2711 30.1105 35.0511 30.2197 35.5346 30.4379C36.0179 30.644 36.2596 31.0441 36.2596 31.6381C36.2596 32.5352 35.6993 32.9837 34.5787 32.9837L30.8544 32.8201Z" fill="white"/>
<path d="M36.5233 21.855L35.6702 21.426L35.3614 22.1738L35.9517 22.6749L36.5233 21.855ZM40.5938 25.4191L41.2657 24.6976L41.2567 24.6876L40.5938 25.4191ZM41.187 26.0919L40.5151 26.8132L40.5305 26.8307L40.5466 26.8473L41.187 26.0919ZM42.6537 26.4374L43.1506 27.3146L43.1679 27.3026L43.1848 27.2898L42.6537 26.4374ZM44.1203 24.9644L43.5478 24.1453L43.5364 24.155L43.5253 24.1651L44.1203 24.9644ZM47.7952 21.8367L48.3679 22.6558L48.9608 22.1513L48.6458 21.4017L47.7952 21.8367ZM43.2964 11.1262L42.4439 11.5567L42.4458 11.5612L43.2964 11.1262ZM42.5878 9.5078L41.7492 9.97043L41.7547 9.98261L41.7606 9.99462L42.5878 9.5078ZM41.7143 9.36232L40.9073 8.83605L40.9038 8.84254L40.9004 8.84907L41.7143 9.36232ZM41.187 10.5625L42.0401 10.9915L42.0437 10.9826L41.187 10.5625ZM30.8544 32.8201L30.8917 31.7864L30.8477 31.7844L30.8038 31.787L30.8544 32.8201ZM28.4154 32.9655V34H28.4407L28.466 33.9984L28.4154 32.9655ZM28.2012 30.1652L28.7728 30.9851L28.7783 30.9804L28.7837 30.9757L28.2012 30.1652ZM31.7607 24.9644L32.5941 25.4384L32.5972 25.4317L32.6002 25.425L31.7607 24.9644ZM37.4956 12.2354L38.3351 12.696L38.3394 12.6863L38.3436 12.6766L37.4956 12.2354ZM39.5391 7.45298L40.387 7.89414L40.3899 7.88725L40.3928 7.88032L39.5391 7.45298ZM40.7751 5.01629L40.0579 4.34994L40.0564 4.35192L40.7751 5.01629ZM43.4612 4.92537L42.7983 5.65686L42.8032 5.66231L42.8082 5.66769L43.4612 4.92537ZM44.796 7.36206L43.9461 7.79851L43.9469 7.80051L44.796 7.36206ZM48.405 15.8723L47.5559 16.3107L47.5616 16.3243L47.5677 16.3375L48.405 15.8723ZM53.3324 26.6192L52.5094 27.1146L52.5117 27.1193L53.3324 26.6192ZM53.9422 27.8376L53.1215 28.3376L53.1248 28.3443L53.1281 28.3508L53.9422 27.8376ZM55.5242 30.0196L55.0353 30.9024L55.0448 30.9087L55.5242 30.0196ZM55.5407 32.9655L55.4973 33.9988L55.5189 34H55.5407V32.9655ZM53.0523 32.8383L53.0957 31.8048L53.0578 31.803L53.0199 31.8043L53.0523 32.8383ZM49.7069 32.9655V34H49.723L49.7393 33.9994L49.7069 32.9655ZM51.635 30.0015L51.7199 31.0317L53.3209 30.8711L52.4058 29.4127L51.635 30.0015ZM50.7122 28.2012L51.5562 27.7511L51.5539 27.7457L50.7122 28.2012ZM49.0312 24.4189L49.873 23.9634L49.3658 22.8223L48.4562 23.6019L49.0312 24.4189ZM45.9331 27.0738L46.5059 27.8928L46.5082 27.8908L45.9331 27.0738ZM43.6754 29.365L44.3957 30.0273L44.401 30.0201L43.6754 29.365ZM41.3518 30.0196L40.7417 30.8051L40.7498 30.8128L40.7582 30.8203L41.3518 30.0196ZM40.7256 29.3287L41.4399 28.6586L41.4355 28.6531L41.4311 28.6475L40.7256 29.3287ZM40.0334 28.4558L39.3216 29.1291L39.3279 29.137L40.0334 28.4558ZM39.2424 27.6375L39.8281 26.8297L39.8159 26.8189L39.8033 26.8087L39.2424 27.6375ZM36.7046 25.5463L37.2655 24.7175L37.2598 24.7127L37.2541 24.7082L36.7046 25.5463ZM35.1226 24.2189L35.7064 23.4095L34.7656 22.5832L34.2688 23.7915L35.1226 24.2189ZM32.7001 30.1105L31.8463 29.6832L31.2452 31.145H32.7001V30.1105ZM35.5346 30.4379L35.1796 31.3954L35.1881 31.3992L35.1967 31.4028L35.5346 30.4379ZM34.5787 32.9837L34.5414 34.0174L34.5601 34.0182H34.5787V32.9837ZM35.9517 22.6749C37.1643 23.7042 38.1062 24.5127 38.7791 25.102C39.4753 25.7115 39.8351 26.0449 39.9308 26.1505L41.2567 24.6876C41.0667 24.478 40.6053 24.0597 39.9446 23.4813C39.2608 22.8825 38.3103 22.0666 37.0949 21.0349L35.9517 22.6749ZM39.9218 26.1404L40.5151 26.8132L41.8589 25.3704L41.2657 24.6976L39.9218 26.1404ZM40.5466 26.8473C40.9091 27.2215 41.4276 27.6536 42.044 27.6536V25.5847C42.1414 25.5847 42.1715 25.6197 42.1133 25.5839C42.0585 25.5501 41.9636 25.477 41.8275 25.3364L40.5466 26.8473ZM42.044 27.6536C42.4298 27.6536 42.8093 27.5499 43.1506 27.3146L42.1568 25.5602C42.1465 25.5672 42.1194 25.5847 42.044 25.5847V27.6536ZM43.1848 27.2898C43.4362 27.0991 43.6956 26.8362 43.9574 26.5341L42.603 25.1033C42.3814 25.359 42.2227 25.509 42.1225 25.5849L43.1848 27.2898ZM43.9574 26.5341C44.1822 26.2753 44.434 26.0189 44.7155 25.7639L43.5253 24.1651C43.1915 24.4676 42.8837 24.7803 42.603 25.1033L43.9574 26.5341ZM44.693 25.7836L48.3679 22.6558L47.2227 21.0176L43.5478 24.1453L44.693 25.7836ZM48.6458 21.4017L44.147 10.6912L42.4458 11.5612L46.9447 22.2717L48.6458 21.4017ZM44.1488 10.6957C43.8501 9.97519 43.6044 9.41292 43.415 9.02098L41.7606 9.99462C41.9227 10.33 42.1494 10.8467 42.4439 11.5567L44.1488 10.6957ZM43.4263 9.04517C43.3257 8.8232 43.1989 8.58748 43.0342 8.39281C42.8803 8.21086 42.5751 7.9278 42.1264 7.9278V9.99676C41.9753 9.99676 41.8562 9.94726 41.7803 9.90067C41.7088 9.8569 41.6712 9.81374 41.6634 9.8045C41.6526 9.79167 41.685 9.82872 41.7492 9.97043L43.4263 9.04517ZM42.1264 7.9278C41.7574 7.9278 41.4787 8.11718 41.3051 8.28568C41.1338 8.45204 41.005 8.65343 40.9073 8.83605L42.5214 9.8886C42.5665 9.80451 42.5778 9.80588 42.5438 9.83889C42.5076 9.87404 42.3635 9.99676 42.1264 9.99676V7.9278ZM40.9004 8.84907C40.744 9.15102 40.5526 9.59047 40.3303 10.1423L42.0437 10.9826C42.2609 10.4434 42.421 10.0828 42.5284 9.87557L40.9004 8.84907ZM40.3339 10.1335L35.6702 21.426L37.3764 22.284L42.0401 10.9915L40.3339 10.1335ZM30.8038 31.787L28.3648 31.9326L28.466 33.9984L30.905 33.853L30.8038 31.787ZM28.4154 31.931C28.2612 31.931 28.159 31.9134 28.0968 31.895C28.0364 31.877 28.027 31.8624 28.0404 31.8743C28.058 31.89 28.0718 31.9127 28.0769 31.9265C28.0797 31.9338 28.0675 31.906 28.0675 31.8199H26.1925C26.1925 32.4266 26.3725 33.0473 26.8623 33.4839C27.3138 33.8862 27.8852 34 28.4154 34V31.931ZM28.0675 31.8199C28.0675 31.8528 28.0552 31.7976 28.1607 31.6347C28.2669 31.4707 28.4581 31.2522 28.7728 30.9851L27.6296 29.3451C26.8933 29.9702 26.1925 30.7939 26.1925 31.8199H28.0675ZM28.7837 30.9757C30.1998 29.7364 31.4609 27.8641 32.5941 25.4384L30.9274 24.4904C29.8633 26.7684 28.7514 28.3633 27.6186 29.3546L28.7837 30.9757ZM32.6002 25.425L38.3351 12.696L36.6562 11.7749L30.9213 24.504L32.6002 25.425ZM38.3436 12.6766L40.387 7.89414L38.6911 7.01181L36.6476 11.7943L38.3436 12.6766ZM40.3928 7.88032C40.8729 6.71248 41.2414 6.01283 41.4937 5.68065L40.0564 4.35192C39.6275 4.91683 39.172 5.84164 38.6853 7.02564L40.3928 7.88032ZM41.4922 5.68264C41.6684 5.45164 41.8524 5.35976 42.1099 5.35976V3.2908C41.2906 3.2908 40.5848 3.6596 40.0579 4.34994L41.4922 5.68264ZM42.1099 5.35976C42.4133 5.35976 42.6211 5.46133 42.7983 5.65686L44.1241 4.19388C43.5762 3.58929 42.883 3.2908 42.1099 3.2908V5.35976ZM42.8082 5.66769C43.0457 5.92204 43.4302 6.57518 43.9461 7.79851L45.646 6.92561C45.1292 5.70013 44.6237 4.7288 44.1142 4.18304L42.8082 5.66769ZM43.9469 7.80051L47.5559 16.3107L49.2542 15.4338L45.6452 6.9236L43.9469 7.80051ZM47.5677 16.3375C50.6477 23.0864 52.3018 26.6948 52.5094 27.1146L54.1554 26.1238C53.9675 25.7436 52.3367 22.1873 49.2424 15.407L47.5677 16.3375ZM52.5117 27.1193L53.1215 28.3376L54.7628 27.3374L54.1531 26.1191L52.5117 27.1193ZM53.1281 28.3508C53.3745 28.8265 53.5898 29.2211 53.7721 29.5278C53.9399 29.8101 54.1227 30.0928 54.3049 30.282L55.5899 28.7753C55.5978 28.7836 55.5778 28.7633 55.5259 28.6879C55.478 28.6183 55.4163 28.5215 55.3399 28.3931C55.1872 28.1361 54.9932 27.782 54.7561 27.3243L53.1281 28.3508ZM54.3049 30.282C54.5337 30.5197 54.7769 30.7282 55.0353 30.9024L56.013 29.137C55.8758 29.0445 55.7346 28.9255 55.5899 28.7753L54.3049 30.282ZM55.0448 30.9087C55.4425 31.1698 55.6852 31.3822 55.8176 31.5376C55.9591 31.7035 55.8886 31.7002 55.8886 31.5471H57.7636C57.7636 30.9456 57.476 30.4633 57.1835 30.1202C56.882 29.7664 56.4737 29.4393 56.0035 29.1306L55.0448 30.9087ZM55.8886 31.5471C55.8886 31.8605 55.8182 31.9055 55.8418 31.8794C55.8653 31.8534 55.8246 31.931 55.5407 31.931V34C56.1136 34 56.7156 33.8412 57.1676 33.3424C57.6197 32.8435 57.7636 32.1794 57.7636 31.5471H55.8886ZM55.5841 31.9322L53.0957 31.8048L53.0089 33.8716L55.4973 33.9988L55.5841 31.9322ZM53.0199 31.8043L49.6746 31.9316L49.7393 33.9994L53.0845 33.8721L53.0199 31.8043ZM49.7069 31.931C49.2555 31.931 49.0272 31.8312 48.9208 31.7502L47.8563 33.4535C48.3871 33.8573 49.0377 34 49.7069 34V31.931ZM48.9208 31.7502C48.8873 31.7247 48.8791 31.7082 48.8742 31.697C48.8672 31.6809 48.8482 31.6281 48.8482 31.5108H46.9732C46.9732 32.2823 47.2465 32.9894 47.8563 33.4535L48.9208 31.7502ZM48.8482 31.5108C48.8482 31.4965 48.849 31.487 48.8498 31.4816C48.8505 31.4763 48.8512 31.474 48.8512 31.474C48.8512 31.4739 48.8513 31.4736 48.8512 31.474C48.8511 31.4744 48.8507 31.4752 48.8505 31.4756C48.8501 31.4765 48.8497 31.4762 48.8512 31.474C48.856 31.4667 48.8986 31.4087 49.0456 31.3356C49.3621 31.1782 49.9513 31.0541 50.9099 31.0541V28.9851C49.869 28.9851 48.9586 29.1096 48.2753 29.4493C47.9225 29.6247 47.5896 29.8776 47.3444 30.2432C47.0913 30.6207 46.9732 31.0576 46.9732 31.5108H48.8482ZM50.9099 31.0541C50.9096 31.0541 50.9102 31.0541 50.9099 31.0541C50.9101 31.0541 50.9111 31.0541 50.9113 31.0541C50.911 31.0541 50.9116 31.0541 50.9113 31.0541C50.9115 31.0541 50.9125 31.0541 50.9127 31.0541C50.9124 31.0541 50.913 31.0541 50.9127 31.0541C50.9129 31.0541 50.9139 31.0541 50.9141 31.0541C50.9138 31.0541 50.9144 31.0541 50.9141 31.0541C50.9143 31.0541 50.9153 31.0541 50.9155 31.0541C50.9153 31.0541 50.9158 31.0541 50.9155 31.0541C50.9158 31.0541 50.9167 31.0541 50.917 31.0541C50.9168 31.0541 50.9172 31.0541 50.917 31.0541C50.9173 31.0541 50.9182 31.0541 50.9184 31.0541C50.9183 31.0541 50.9186 31.0541 50.9184 31.0541C50.9187 31.0541 50.9196 31.0541 50.9198 31.0541C50.9197 31.0541 50.92 31.0541 50.9198 31.0541C50.9201 31.0541 50.921 31.0541 50.9213 31.0541C50.9211 31.0541 50.9214 31.0541 50.9213 31.0541C50.9215 31.0541 50.9225 31.0541 50.9227 31.0541C50.9224 31.0541 50.9229 31.0541 50.9227 31.0541C50.9228 31.0541 50.9239 31.0541 50.9241 31.0541C50.9238 31.0541 50.9243 31.0541 50.9241 31.0541C50.9242 31.0541 50.9253 31.0541 50.9255 31.0541C50.9252 31.0541 50.9258 31.0541 50.9255 31.0541C50.9257 31.0541 50.9267 31.0541 50.9269 31.0541C50.9266 31.0541 50.9272 31.0541 50.9269 31.0541C50.9271 31.0541 50.9281 31.0541 50.9283 31.0541C50.928 31.0541 50.9286 31.0541 50.9283 31.0541C50.9286 31.0541 50.9295 31.0541 50.9298 31.0541C50.9296 31.0541 50.93 31.0541 50.9298 31.0541C50.9301 31.0541 50.9309 31.0541 50.9312 31.0541C50.931 31.0541 50.9314 31.0541 50.9312 31.0541C50.9315 31.0541 50.9323 31.0541 50.9326 31.0541C50.9324 31.0541 50.9328 31.0541 50.9326 31.0541C50.9329 31.0541 50.9337 31.0541 50.934 31.0541C50.9338 31.0541 50.9342 31.0541 50.934 31.0541C50.9343 31.0541 50.9351 31.0541 50.9354 31.0541C50.9351 31.0541 50.9356 31.0541 50.9354 31.0541C50.9356 31.0541 50.9366 31.0541 50.9368 31.0541C50.9365 31.0541 50.9371 31.0541 50.9368 31.0541C50.937 31.0541 50.938 31.0541 50.9382 31.0541C50.9379 31.0541 50.9385 31.0541 50.9382 31.0541C50.9384 31.0541 50.9394 31.0541 50.9396 31.0541C50.9393 31.0541 50.9399 31.0541 50.9396 31.0541C50.9398 31.0541 50.9408 31.0541 50.941 31.0541C50.9408 31.0541 50.9413 31.0541 50.941 31.0541C50.9412 31.0541 50.9422 31.0541 50.9425 31.0541C50.9423 31.0541 50.9427 31.0541 50.9425 31.0541C50.9428 31.0541 50.9437 31.0541 50.9439 31.0541C50.9437 31.0541 50.9441 31.0541 50.9439 31.0541C50.9442 31.0541 50.9451 31.0541 50.9453 31.0541C50.9452 31.0541 50.9455 31.0541 50.9453 31.0541C50.9456 31.0541 50.9465 31.0541 50.9467 31.0541C50.9466 31.0541 50.9469 31.0541 50.9467 31.0541C50.947 31.0541 50.9479 31.0541 50.9482 31.0541C50.948 31.0541 50.9483 31.0541 50.9482 31.0541C50.9484 31.0541 50.9494 31.0541 50.9496 31.0541C50.9493 31.0541 50.9498 31.0541 50.9496 31.0541C50.9497 31.0541 50.9508 31.0541 50.951 31.0541C50.9507 31.0541 50.9513 31.0541 50.951 31.0541C50.9512 31.0541 50.9522 31.0541 50.9524 31.0541C50.9521 31.0541 50.9527 31.0541 50.9524 31.0541C50.9526 31.0541 50.9536 31.0541 50.9538 31.0541C50.9535 31.0541 50.9541 31.0541 50.9538 31.0541C50.954 31.0541 50.955 31.0541 50.9552 31.0541C50.9549 31.0541 50.9555 31.0541 50.9552 31.0541C50.9555 31.0541 50.9564 31.0541 50.9567 31.0541C50.9565 31.0541 50.9569 31.0541 50.9567 31.0541C50.957 31.0541 50.9578 31.0541 50.9581 31.0541C50.9579 31.0541 50.9583 31.0541 50.9581 31.0541C50.9584 31.0541 50.9592 31.0541 50.9595 31.0541C50.9593 31.0541 50.9597 31.0541 50.9595 31.0541C50.9598 31.0541 50.9606 31.0541 50.9609 31.0541C50.9607 31.0541 50.9611 31.0541 50.9609 31.0541C50.9612 31.0541 50.962 31.0541 50.9623 31.0541C50.962 31.0541 50.9626 31.0541 50.9623 31.0541C50.9625 31.0541 50.9635 31.0541 50.9637 31.0541C50.9634 31.0541 50.964 31.0541 50.9637 31.0541C50.9639 31.0541 50.9649 31.0541 50.9651 31.0541C50.9648 31.0541 50.9654 31.0541 50.9651 31.0541C50.9653 31.0541 50.9663 31.0541 50.9665 31.0541C50.9663 31.0541 50.9668 31.0541 50.9665 31.0541C50.9667 31.0541 50.9678 31.0541 50.9679 31.0541C50.9677 31.0541 50.9682 31.0541 50.9679 31.0541C50.9681 31.0541 50.9692 31.0541 50.9694 31.0541C50.9692 31.0541 50.9696 31.0541 50.9694 31.0541C50.9697 31.0541 50.9706 31.0541 50.9708 31.0541C50.9707 31.0541 50.971 31.0541 50.9708 31.0541C50.9711 31.0541 50.972 31.0541 50.9722 31.0541C50.9721 31.0541 50.9724 31.0541 50.9722 31.0541C50.9725 31.0541 50.9734 31.0541 50.9737 31.0541C50.9735 31.0541 50.9738 31.0541 50.9737 31.0541C50.9739 31.0541 50.9748 31.0541 50.9751 31.0541C50.9748 31.0541 50.9753 31.0541 50.9751 31.0541C50.9753 31.0541 50.9763 31.0541 50.9765 31.0541C50.9762 31.0541 50.9767 31.0541 50.9765 31.0541C50.9767 31.0541 50.9777 31.0541 50.9779 31.0541C50.9776 31.0541 50.9782 31.0541 50.9779 31.0541C50.9781 31.0541 50.9791 31.0541 50.9793 31.0541C50.979 31.0541 50.9796 31.0541 50.9793 31.0541C50.9795 31.0541 50.9805 31.0541 50.9807 31.0541C50.9804 31.0541 50.981 31.0541 50.9807 31.0541C50.9809 31.0541 50.9819 31.0541 50.9821 31.0541C50.9819 31.0541 50.9824 31.0541 50.9821 31.0541C50.9824 31.0541 50.9833 31.0541 50.9836 31.0541C50.9834 31.0541 50.9838 31.0541 50.9836 31.0541C50.9839 31.0541 50.9847 31.0541 50.985 31.0541C50.9848 31.0541 50.9852 31.0541 50.985 31.0541C50.9853 31.0541 50.9861 31.0541 50.9864 31.0541C50.9862 31.0541 50.9866 31.0541 50.9864 31.0541C50.9867 31.0541 50.9875 31.0541 50.9878 31.0541C50.9876 31.0541 50.988 31.0541 50.9878 31.0541C50.9881 31.0541 50.9889 31.0541 50.9892 31.0541C50.9889 31.0541 50.9895 31.0541 50.9892 31.0541C50.9894 31.0541 50.9904 31.0541 50.9906 31.0541C50.9903 31.0541 50.9909 31.0541 50.9906 31.0541C50.9908 31.0541 50.9918 31.0541 50.992 31.0541C50.9917 31.0541 50.9923 31.0541 50.992 31.0541C50.9922 31.0541 50.9932 31.0541 50.9934 31.0541C50.9932 31.0541 50.9937 31.0541 50.9934 31.0541C50.9936 31.0541 50.9947 31.0541 50.9948 31.0541C50.9946 31.0541 50.9951 31.0541 50.9948 31.0541C50.9951 31.0541 50.9961 31.0541 50.9963 31.0541C50.9962 31.0541 50.9965 31.0541 50.9963 31.0541C50.9966 31.0541 50.9975 31.0541 50.9978 31.0541C50.9976 31.0541 50.9979 31.0541 50.9978 31.0541C50.998 31.0541 50.9989 31.0541 50.9992 31.0541C50.999 31.0541 50.9993 31.0541 50.9992 31.0541C50.9994 31.0541 51.0003 31.0541 51.0006 31.0541C51.0004 31.0541 51.0007 31.0541 51.0006 31.0541C51.0008 31.0541 51.0017 31.0541 51.002 31.0541C51.0017 31.0541 51.0022 31.0541 51.002 31.0541C51.0022 31.0541 51.0032 31.0541 51.0034 31.0541C51.0031 31.0541 51.0037 31.0541 51.0034 31.0541C51.0036 31.0541 51.0046 31.0541 51.0048 31.0541C51.0045 31.0541 51.0051 31.0541 51.0048 31.0541C51.005 31.0541 51.006 31.0541 51.0062 31.0541C51.0059 31.0541 51.0065 31.0541 51.0062 31.0541C51.0064 31.0541 51.0074 31.0541 51.0076 31.0541C51.0073 31.0541 51.0079 31.0541 51.0076 31.0541C51.0078 31.0541 51.0088 31.0541 51.009 31.0541C51.0088 31.0541 51.0093 31.0541 51.009 31.0541C51.0093 31.0541 51.0102 31.0541 51.0105 31.0541C51.0103 31.0541 51.0107 31.0541 51.0105 31.0541C51.0108 31.0541 51.0116 31.0541 51.0119 31.0541C51.0117 31.0541 51.0121 31.0541 51.0119 31.0541C51.0122 31.0541 51.013 31.0541 51.0133 31.0541C51.0131 31.0541 51.0135 31.0541 51.0133 31.0541C51.0136 31.0541 51.0144 31.0541 51.0147 31.0541C51.0145 31.0541 51.0149 31.0541 51.0147 31.0541C51.015 31.0541 51.0159 31.0541 51.0161 31.0541C51.0158 31.0541 51.0164 31.0541 51.0161 31.0541C51.0163 31.0541 51.0173 31.0541 51.0175 31.0541C51.0173 31.0541 51.0178 31.0541 51.0175 31.0541C51.0177 31.0541 51.0187 31.0541 51.0189 31.0541C51.0187 31.0541 51.0192 31.0541 51.0189 31.0541C51.0191 31.0541 51.0202 31.0541 51.0203 31.0541C51.0201 31.0541 51.0206 31.0541 51.0203 31.0541C51.0205 31.0541 51.0216 31.0541 51.0217 31.0541C51.0215 31.0541 51.022 31.0541 51.0217 31.0541C51.022 31.0541 51.023 31.0541 51.0233 31.0541C51.0231 31.0541 51.0234 31.0541 51.0233 31.0541C51.0235 31.0541 51.0244 31.0541 51.0247 31.0541C51.0245 31.0541 51.0248 31.0541 51.0247 31.0541C51.0249 31.0541 51.0258 31.0541 51.0261 31.0541C51.0259 31.0541 51.0263 31.0541 51.0261 31.0541C51.0263 31.0541 51.0272 31.0541 51.0275 31.0541C51.0273 31.0541 51.0277 31.0541 51.0275 31.0541C51.0278 31.0541 51.0286 31.0541 51.0289 31.0541C51.0286 31.0541 51.0292 31.0541 51.0289 31.0541C51.0291 31.0541 51.0301 31.0541 51.0303 31.0541C51.03 31.0541 51.0306 31.0541 51.0303 31.0541C51.0305 31.0541 51.0315 31.0541 51.0317 31.0541C51.0314 31.0541 51.032 31.0541 51.0317 31.0541C51.0319 31.0541 51.0329 31.0541 51.0331 31.0541C51.0328 31.0541 51.0334 31.0541 51.0331 31.0541C51.0333 31.0541 51.0343 31.0541 51.0345 31.0541C51.0342 31.0541 51.0348 31.0541 51.0345 31.0541C51.0347 31.0541 51.0357 31.0541 51.036 31.0541C51.0358 31.0541 51.0362 31.0541 51.036 31.0541C51.0363 31.0541 51.0371 31.0541 51.0374 31.0541C51.0372 31.0541 51.0376 31.0541 51.0374 31.0541C51.0377 31.0541 51.0385 31.0541 51.0388 31.0541C51.0386 31.0541 51.039 31.0541 51.0388 31.0541C51.0391 31.0541 51.0399 31.0541 51.0402 31.0541C51.04 31.0541 51.0404 31.0541 51.0402 31.0541C51.0405 31.0541 51.0413 31.0541 51.0416 31.0541C51.0414 31.0541 51.0418 31.0541 51.0416 31.0541C51.0419 31.0541 51.0428 31.0541 51.043 31.0541C51.0428 31.0541 51.0433 31.0541 51.043 31.0541C51.0432 31.0541 51.0443 31.0541 51.0444 31.0541C51.0442 31.0541 51.0447 31.0541 51.0444 31.0541C51.0446 31.0541 51.0457 31.0541 51.0458 31.0541C51.0456 31.0541 51.0461 31.0541 51.0458 31.0541C51.046 31.0541 51.0471 31.0541 51.0473 31.0541C51.047 31.0541 51.0475 31.0541 51.0473 31.0541C51.0474 31.0541 51.0485 31.0541 51.0487 31.0541C51.0485 31.0541 51.0489 31.0541 51.0487 31.0541C51.0489 31.0541 51.0499 31.0541 51.0502 31.0541C51.05 31.0541 51.0503 31.0541 51.0502 31.0541C51.0504 31.0541 51.0513 31.0541 51.0516 31.0541C51.0514 31.0541 51.0518 31.0541 51.0516 31.0541C51.0518 31.0541 51.0527 31.0541 51.053 31.0541C51.0528 31.0541 51.0532 31.0541 51.053 31.0541C51.0532 31.0541 51.0541 31.0541 51.0544 31.0541C51.0542 31.0541 51.0546 31.0541 51.0544 31.0541C51.0547 31.0541 51.0555 31.0541 51.0558 31.0541C51.0555 31.0541 51.0561 31.0541 51.0558 31.0541C51.056 31.0541 51.057 31.0541 51.0572 31.0541C51.0569 31.0541 51.0575 31.0541 51.0572 31.0541C51.0574 31.0541 51.0584 31.0541 51.0586 31.0541C51.0583 31.0541 51.0589 31.0541 51.0586 31.0541C51.0588 31.0541 51.0598 31.0541 51.06 31.0541C51.0597 31.0541 51.0603 31.0541 51.06 31.0541C51.0602 31.0541 51.0612 31.0541 51.0614 31.0541C51.0611 31.0541 51.0617 31.0541 51.0614 31.0541C51.0616 31.0541 51.0626 31.0541 51.0629 31.0541C51.0627 31.0541 51.0631 31.0541 51.0629 31.0541C51.0632 31.0541 51.064 31.0541 51.0643 31.0541C51.0641 31.0541 51.0645 31.0541 51.0643 31.0541C51.0646 31.0541 51.0654 31.0541 51.0657 31.0541C51.0655 31.0541 51.0659 31.0541 51.0657 31.0541C51.066 31.0541 51.0668 31.0541 51.0671 31.0541C51.0669 31.0541 51.0673 31.0541 51.0671 31.0541C51.0674 31.0541 51.0682 31.0541 51.0685 31.0541C51.0682 31.0541 51.0687 31.0541 51.0685 31.0541C51.0687 31.0541 51.0697 31.0541 51.0699 31.0541C51.0697 31.0541 51.0702 31.0541 51.0699 31.0541C51.0701 31.0541 51.0712 31.0541 51.0713 31.0541C51.0711 31.0541 51.0716 31.0541 51.0713 31.0541C51.0715 31.0541 51.0726 31.0541 51.0728 31.0541C51.0725 31.0541 51.073 31.0541 51.0728 31.0541C51.0729 31.0541 51.074 31.0541 51.0742 31.0541C51.0739 31.0541 51.0744 31.0541 51.0742 31.0541C51.0743 31.0541 51.0754 31.0541 51.0756 31.0541C51.0754 31.0541 51.0758 31.0541 51.0756 31.0541C51.0758 31.0541 51.0768 31.0541 51.0771 31.0541C51.0769 31.0541 51.0772 31.0541 51.0771 31.0541C51.0773 31.0541 51.0782 31.0541 51.0785 31.0541C51.0783 31.0541 51.0787 31.0541 51.0785 31.0541C51.0788 31.0541 51.0796 31.0541 51.0799 31.0541C51.0797 31.0541 51.0801 31.0541 51.0799 31.0541C51.0802 31.0541 51.081 31.0541 51.0813 31.0541C51.0811 31.0541 51.0815 31.0541 51.0813 31.0541C51.0816 31.0541 51.0825 31.0541 51.0827 31.0541C51.0824 31.0541 51.083 31.0541 51.0827 31.0541C51.0829 31.0541 51.0839 31.0541 51.0841 31.0541C51.0838 31.0541 51.0844 31.0541 51.0841 31.0541C51.0843 31.0541 51.0853 31.0541 51.0855 31.0541C51.0852 31.0541 51.0858 31.0541 51.0855 31.0541C51.0857 31.0541 51.0867 31.0541 51.0869 31.0541C51.0866 31.0541 51.0872 31.0541 51.0869 31.0541C51.0871 31.0541 51.0881 31.0541 51.0883 31.0541C51.088 31.0541 51.0886 31.0541 51.0883 31.0541C51.0886 31.0541 51.0895 31.0541 51.0898 31.0541C51.0896 31.0541 51.09 31.0541 51.0898 31.0541C51.0901 31.0541 51.0909 31.0541 51.0912 31.0541C51.091 31.0541 51.0914 31.0541 51.0912 31.0541C51.0915 31.0541 51.0923 31.0541 51.0926 31.0541C51.0924 31.0541 51.0928 31.0541 51.0926 31.0541C51.0929 31.0541 51.0938 31.0541 51.094 31.0541C51.0938 31.0541 51.0942 31.0541 51.094 31.0541C51.0943 31.0541 51.0952 31.0541 51.0954 31.0541C51.0952 31.0541 51.0956 31.0541 51.0954 31.0541C51.0956 31.0541 51.0967 31.0541 51.0968 31.0541C51.0966 31.0541 51.0971 31.0541 51.0968 31.0541C51.097 31.0541 51.0981 31.0541 51.0982 31.0541C51.098 31.0541 51.0985 31.0541 51.0982 31.0541C51.0984 31.0541 51.0995 31.0541 51.0997 31.0541C51.0994 31.0541 51.0999 31.0541 51.0997 31.0541C51.0998 31.0541 51.1009 31.0541 51.1011 31.0541C51.1008 31.0541 51.1013 31.0541 51.1011 31.0541C51.1012 31.0541 51.1023 31.0541 51.1026 31.0541C51.1024 31.0541 51.1028 31.0541 51.1026 31.0541C51.1028 31.0541 51.1037 31.0541 51.104 31.0541C51.1038 31.0541 51.1042 31.0541 51.104 31.0541C51.1042 31.0541 51.1051 31.0541 51.1054 31.0541C51.1052 31.0541 51.1056 31.0541 51.1054 31.0541C51.1057 31.0541 51.1065 31.0541 51.1068 31.0541C51.1066 31.0541 51.107 31.0541 51.1068 31.0541C51.1071 31.0541 51.1079 31.0541 51.1082 31.0541C51.108 31.0541 51.1084 31.0541 51.1082 31.0541C51.1085 31.0541 51.1094 31.0541 51.1096 31.0541C51.1093 31.0541 51.1099 31.0541 51.1096 31.0541C51.1098 31.0541 51.1108 31.0541 51.111 31.0541C51.1107 31.0541 51.1113 31.0541 51.111 31.0541C51.1112 31.0541 51.1122 31.0541 51.1124 31.0541C51.1121 31.0541 51.1127 31.0541 51.1124 31.0541C51.1126 31.0541 51.1136 31.0541 51.1138 31.0541C51.1135 31.0541 51.1141 31.0541 51.1138 31.0541C51.114 31.0541 51.115 31.0541 51.1152 31.0541C51.1149 31.0541 51.1155 31.0541 51.1152 31.0541C51.1155 31.0541 51.1164 31.0541 51.1167 31.0541C51.1165 31.0541 51.1169 31.0541 51.1167 31.0541C51.117 31.0541 51.1178 31.0541 51.1181 31.0541C51.1179 31.0541 51.1183 31.0541 51.1181 31.0541C51.1184 31.0541 51.1193 31.0541 51.1195 31.0541C51.1193 31.0541 51.1197 31.0541 51.1195 31.0541C51.1198 31.0541 51.1207 31.0541 51.1209 31.0541C51.1208 31.0541 51.1211 31.0541 51.1209 31.0541C51.1212 31.0541 51.1221 31.0541 51.1223 31.0541C51.1221 31.0541 51.1226 31.0541 51.1223 31.0541C51.1225 31.0541 51.1236 31.0541 51.1238 31.0541C51.1235 31.0541 51.124 31.0541 51.1238 31.0541C51.1239 31.0541 51.125 31.0541 51.1252 31.0541C51.1249 31.0541 51.1254 31.0541 51.1252 31.0541C51.1253 31.0541 51.1264 31.0541 51.1266 31.0541C51.1263 31.0541 51.1268 31.0541 51.1266 31.0541C51.1268 31.0541 51.1278 31.0541 51.128 31.0541C51.1277 31.0541 51.1283 31.0541 51.128 31.0541C51.1282 31.0541 51.1292 31.0541 51.1295 31.0541C51.1293 31.0541 51.1297 31.0541 51.1295 31.0541C51.1297 31.0541 51.1306 31.0541 51.1309 31.0541C51.1307 31.0541 51.1311 31.0541 51.1309 31.0541C51.1312 31.0541 51.132 31.0541 51.1323 31.0541C51.1321 31.0541 51.1325 31.0541 51.1323 31.0541C51.1326 31.0541 51.1334 31.0541 51.1337 31.0541C51.1335 31.0541 51.1339 31.0541 51.1337 31.0541C51.134 31.0541 51.1348 31.0541 51.1351 31.0541C51.1348 31.0541 51.1353 31.0541 51.1351 31.0541C51.1353 31.0541 51.1363 31.0541 51.1365 31.0541C51.1362 31.0541 51.1368 31.0541 51.1365 31.0541C51.1367 31.0541 51.1377 31.0541 51.1379 31.0541C51.1376 31.0541 51.1382 31.0541 51.1379 31.0541C51.1381 31.0541 51.1391 31.0541 51.1393 31.0541C51.139 31.0541 51.1396 31.0541 51.1393 31.0541C51.1395 31.0541 51.1405 31.0541 51.1407 31.0541C51.1404 31.0541 51.141 31.0541 51.1407 31.0541C51.1409 31.0541 51.1419 31.0541 51.1421 31.0541C51.1419 31.0541 51.1424 31.0541 51.1421 31.0541C51.1424 31.0541 51.1433 31.0541 51.1436 31.0541C51.1434 31.0541 51.1438 31.0541 51.1436 31.0541C51.1439 31.0541 51.1448 31.0541 51.145 31.0541C51.1448 31.0541 51.1452 31.0541 51.145 31.0541C51.1453 31.0541 51.1462 31.0541 51.1464 31.0541C51.1463 31.0541 51.1466 31.0541 51.1464 31.0541C51.1467 31.0541 51.1476 31.0541 51.1478 31.0541C51.1477 31.0541 51.148 31.0541 51.1478 31.0541C51.1481 31.0541 51.149 31.0541 51.1493 31.0541C51.149 31.0541 51.1495 31.0541 51.1493 31.0541C51.1494 31.0541 51.1505 31.0541 51.1507 31.0541C51.1504 31.0541 51.1509 31.0541 51.1507 31.0541C51.1508 31.0541 51.1519 31.0541 51.1521 31.0541C51.1518 31.0541 51.1523 31.0541 51.1521 31.0541C51.1523 31.0541 51.1533 31.0541 51.1535 31.0541C51.1532 31.0541 51.1538 31.0541 51.1535 31.0541C51.1537 31.0541 51.1547 31.0541 51.1549 31.0541C51.1546 31.0541 51.1552 31.0541 51.1549 31.0541C51.1552 31.0541 51.1561 31.0541 51.1564 31.0541C51.1562 31.0541 51.1566 31.0541 51.1564 31.0541C51.1567 31.0541 51.1575 31.0541 51.1578 31.0541C51.1576 31.0541 51.158 31.0541 51.1578 31.0541C51.1581 31.0541 51.1589 31.0541 51.1592 31.0541C51.159 31.0541 51.1594 31.0541 51.1592 31.0541C51.1595 31.0541 51.1603 31.0541 51.1606 31.0541C51.1604 31.0541 51.1608 31.0541 51.1606 31.0541C51.1609 31.0541 51.1617 31.0541 51.162 31.0541C51.1617 31.0541 51.1622 31.0541 51.162 31.0541C51.1622 31.0541 51.1632 31.0541 51.1634 31.0541C51.1631 31.0541 51.1637 31.0541 51.1634 31.0541C51.1636 31.0541 51.1646 31.0541 51.1648 31.0541C51.1645 31.0541 51.1651 31.0541 51.1648 31.0541C51.165 31.0541 51.166 31.0541 51.1662 31.0541C51.1659 31.0541 51.1665 31.0541 51.1662 31.0541C51.1664 31.0541 51.1674 31.0541 51.1676 31.0541C51.1673 31.0541 51.1679 31.0541 51.1676 31.0541C51.1678 31.0541 51.1688 31.0541 51.169 31.0541C51.1688 31.0541 51.1693 31.0541 51.169 31.0541C51.1693 31.0541 51.1702 31.0541 51.1705 31.0541C51.1703 31.0541 51.1707 31.0541 51.1705 31.0541C51.1708 31.0541 51.1717 31.0541 51.1719 31.0541C51.1717 31.0541 51.1721 31.0541 51.1719 31.0541C51.1722 31.0541 51.1731 31.0541 51.1733 31.0541C51.1732 31.0541 51.1735 31.0541 51.1733 31.0541C51.1736 31.0541 51.1745 31.0541 51.1747 31.0541C51.1746 31.0541 51.1749 31.0541 51.1747 31.0541C51.175 31.0541 51.176 31.0541 51.1762 31.0541C51.1759 31.0541 51.1764 31.0541 51.1762 31.0541C51.1763 31.0541 51.1774 31.0541 51.1776 31.0541C51.1773 31.0541 51.1778 31.0541 51.1776 31.0541C51.1777 31.0541 51.1788 31.0541 51.179 31.0541C51.1787 31.0541 51.1792 31.0541 51.179 31.0541C51.1792 31.0541 51.1802 31.0541 51.1804 31.0541C51.1801 31.0541 51.1807 31.0541 51.1804 31.0541C51.1806 31.0541 51.1816 31.0541 51.1818 31.0541C51.1815 31.0541 51.1821 31.0541 51.1818 31.0541C51.1821 31.0541 51.183 31.0541 51.1833 31.0541C51.1831 31.0541 51.1835 31.0541 51.1833 31.0541C51.1836 31.0541 51.1844 31.0541 51.1847 31.0541C51.1845 31.0541 51.1849 31.0541 51.1847 31.0541C51.185 31.0541 51.1858 31.0541 51.1861 31.0541C51.1859 31.0541 51.1863 31.0541 51.1861 31.0541C51.1864 31.0541 51.1872 31.0541 51.1875 31.0541C51.1873 31.0541 51.1877 31.0541 51.1875 31.0541C51.1878 31.0541 51.1886 31.0541 51.1889 31.0541C51.1886 31.0541 51.1892 31.0541 51.1889 31.0541C51.1891 31.0541 51.1901 31.0541 51.1903 31.0541C51.19 31.0541 51.1906 31.0541 51.1903 31.0541C51.1905 31.0541 51.1915 31.0541 51.1917 31.0541C51.1914 31.0541 51.192 31.0541 51.1917 31.0541C51.1919 31.0541 51.1929 31.0541 51.1931 31.0541C51.1928 31.0541 51.1934 31.0541 51.1931 31.0541C51.1933 31.0541 51.1943 31.0541 51.1945 31.0541C51.1943 31.0541 51.1948 31.0541 51.1945 31.0541C51.1947 31.0541 51.1957 31.0541 51.196 31.0541C51.1958 31.0541 51.1962 31.0541 51.196 31.0541C51.1963 31.0541 51.1972 31.0541 51.1974 31.0541C51.1973 31.0541 51.1976 31.0541 51.1974 31.0541C51.1977 31.0541 51.1986 31.0541 51.1988 31.0541C51.1987 31.0541 51.199 31.0541 51.1988 31.0541C51.1991 31.0541 51.2 31.0541 51.2003 31.0541C51.2001 31.0541 51.2004 31.0541 51.2003 31.0541C51.2005 31.0541 51.2014 31.0541 51.2017 31.0541C51.2015 31.0541 51.2018 31.0541 51.2017 31.0541C51.2019 31.0541 51.2029 31.0541 51.2031 31.0541C51.2028 31.0541 51.2033 31.0541 51.2031 31.0541C51.2033 31.0541 51.2043 31.0541 51.2045 31.0541C51.2042 31.0541 51.2048 31.0541 51.2045 31.0541C51.2047 31.0541 51.2057 31.0541 51.2059 31.0541C51.2056 31.0541 51.2062 31.0541 51.2059 31.0541C51.2061 31.0541 51.2071 31.0541 51.2073 31.0541C51.207 31.0541 51.2076 31.0541 51.2073 31.0541C51.2075 31.0541 51.2085 31.0541 51.2087 31.0541C51.2085 31.0541 51.209 31.0541 51.2087 31.0541C51.209 31.0541 51.2099 31.0541 51.2102 31.0541C51.21 31.0541 51.2104 31.0541 51.2102 31.0541C51.2105 31.0541 51.2113 31.0541 51.2116 31.0541C51.2114 31.0541 51.2118 31.0541 51.2116 31.0541C51.2119 31.0541 51.2127 31.0541 51.213 31.0541C51.2128 31.0541 51.2132 31.0541 51.213 31.0541C51.2133 31.0541 51.2141 31.0541 51.2144 31.0541C51.2142 31.0541 51.2146 31.0541 51.2144 31.0541C51.2147 31.0541 51.2155 31.0541 51.2158 31.0541C51.2155 31.0541 51.2161 31.0541 51.2158 31.0541C51.216 31.0541 51.217 31.0541 51.2172 31.0541C51.2169 31.0541 51.2175 31.0541 51.2172 31.0541C51.2174 31.0541 51.2184 31.0541 51.2186 31.0541C51.2183 31.0541 51.2189 31.0541 51.2186 31.0541C51.2188 31.0541 51.2198 31.0541 51.22 31.0541C51.2197 31.0541 51.2203 31.0541 51.22 31.0541C51.2202 31.0541 51.2213 31.0541 51.2214 31.0541C51.2212 31.0541 51.2217 31.0541 51.2214 31.0541C51.2216 31.0541 51.2227 31.0541 51.2229 31.0541C51.2227 31.0541 51.2231 31.0541 51.2229 31.0541C51.2232 31.0541 51.2241 31.0541 51.2243 31.0541C51.2242 31.0541 51.2245 31.0541 51.2243 31.0541C51.2246 31.0541 51.2255 31.0541 51.2257 31.0541C51.2256 31.0541 51.2259 31.0541 51.2257 31.0541C51.226 31.0541 51.2269 31.0541 51.2272 31.0541C51.227 31.0541 51.2273 31.0541 51.2272 31.0541C51.2274 31.0541 51.2283 31.0541 51.2286 31.0541C51.2283 31.0541 51.2288 31.0541 51.2286 31.0541C51.2288 31.0541 51.2298 31.0541 51.23 31.0541C51.2297 31.0541 51.2303 31.0541 51.23 31.0541C51.2302 31.0541 51.2312 31.0541 51.2314 31.0541C51.2311 31.0541 51.2317 31.0541 51.2314 31.0541C51.2316 31.0541 51.2326 31.0541 51.2328 31.0541C51.2325 31.0541 51.2331 31.0541 51.2328 31.0541C51.233 31.0541 51.234 31.0541 51.2342 31.0541C51.2339 31.0541 51.2345 31.0541 51.2342 31.0541C51.2344 31.0541 51.2354 31.0541 51.2356 31.0541C51.2354 31.0541 51.2359 31.0541 51.2356 31.0541C51.2359 31.0541 51.2368 31.0541 51.2371 31.0541C51.2369 31.0541 51.2373 31.0541 51.2371 31.0541C51.2374 31.0541 51.2382 31.0541 51.2385 31.0541C51.2383 31.0541 51.2387 31.0541 51.2385 31.0541C51.2388 31.0541 51.2396 31.0541 51.2399 31.0541C51.2397 31.0541 51.2401 31.0541 51.2399 31.0541C51.2402 31.0541 51.241 31.0541 51.2413 31.0541C51.2411 31.0541 51.2415 31.0541 51.2413 31.0541C51.2416 31.0541 51.2425 31.0541 51.2427 31.0541C51.2424 31.0541 51.243 31.0541 51.2427 31.0541C51.2429 31.0541 51.2439 31.0541 51.2441 31.0541C51.2438 31.0541 51.2444 31.0541 51.2441 31.0541C51.2443 31.0541 51.2453 31.0541 51.2455 31.0541C51.2453 31.0541 51.2458 31.0541 51.2455 31.0541C51.2457 31.0541 51.2467 31.0541 51.2469 31.0541C51.2467 31.0541 51.2472 31.0541 51.2469 31.0541C51.2471 31.0541 51.2482 31.0541 51.2483 31.0541C51.2481 31.0541 51.2486 31.0541 51.2483 31.0541C51.2486 31.0541 51.2496 31.0541 51.2498 31.0541C51.2497 31.0541 51.25 31.0541 51.2498 31.0541C51.2501 31.0541 51.251 31.0541 51.2512 31.0541C51.2511 31.0541 51.2514 31.0541 51.2512 31.0541C51.2515 31.0541 51.2524 31.0541 51.2527 31.0541C51.2525 31.0541 51.2528 31.0541 51.2527 31.0541C51.2529 31.0541 51.2538 31.0541 51.2541 31.0541C51.2539 31.0541 51.2542 31.0541 51.2541 31.0541C51.2543 31.0541 51.2552 31.0541 51.2555 31.0541C51.2552 31.0541 51.2557 31.0541 51.2555 31.0541C51.2557 31.0541 51.2567 31.0541 51.2569 31.0541C51.2566 31.0541 51.2572 31.0541 51.2569 31.0541C51.2571 31.0541 51.2581 31.0541 51.2583 31.0541C51.258 31.0541 51.2586 31.0541 51.2583 31.0541C51.2585 31.0541 51.2595 31.0541 51.2597 31.0541C51.2594 31.0541 51.26 31.0541 51.2597 31.0541C51.2599 31.0541 51.2609 31.0541 51.2611 31.0541C51.2608 31.0541 51.2614 31.0541 51.2611 31.0541C51.2613 31.0541 51.2623 31.0541 51.2626 31.0541C51.2624 31.0541 51.2628 31.0541 51.2626 31.0541C51.2629 31.0541 51.2637 31.0541 51.264 31.0541C51.2638 31.0541 51.2642 31.0541 51.264 31.0541C51.2643 31.0541 51.2651 31.0541 51.2654 31.0541C51.2652 31.0541 51.2656 31.0541 51.2654 31.0541C51.2657 31.0541 51.2665 31.0541 51.2668 31.0541C51.2666 31.0541 51.267 31.0541 51.2668 31.0541C51.2671 31.0541 51.2679 31.0541 51.2682 31.0541C51.268 31.0541 51.2684 31.0541 51.2682 31.0541C51.2685 31.0541 51.2694 31.0541 51.2696 31.0541C51.2693 31.0541 51.2699 31.0541 51.2696 31.0541C51.2698 31.0541 51.2708 31.0541 51.271 31.0541C51.2708 31.0541 51.2713 31.0541 51.271 31.0541C51.2712 31.0541 51.2723 31.0541 51.2724 31.0541V28.9851C51.2723 28.9851 51.2726 28.9851 51.2724 28.9851C51.2722 28.9851 51.2713 28.9851 51.271 28.9851C51.2708 28.9851 51.2712 28.9851 51.271 28.9851C51.2708 28.9851 51.2699 28.9851 51.2696 28.9851C51.2694 28.9851 51.2699 28.9851 51.2696 28.9851C51.2694 28.9851 51.2684 28.9851 51.2682 28.9851C51.2679 28.9851 51.2685 28.9851 51.2682 28.9851C51.268 28.9851 51.267 28.9851 51.2668 28.9851C51.2665 28.9851 51.2671 28.9851 51.2668 28.9851C51.2666 28.9851 51.2656 28.9851 51.2654 28.9851C51.2651 28.9851 51.2657 28.9851 51.2654 28.9851C51.2652 28.9851 51.2642 28.9851 51.264 28.9851C51.2637 28.9851 51.2643 28.9851 51.264 28.9851C51.2638 28.9851 51.2628 28.9851 51.2626 28.9851C51.2623 28.9851 51.2628 28.9851 51.2626 28.9851C51.2623 28.9851 51.2614 28.9851 51.2611 28.9851C51.2609 28.9851 51.2613 28.9851 51.2611 28.9851C51.2608 28.9851 51.26 28.9851 51.2597 28.9851C51.2595 28.9851 51.2599 28.9851 51.2597 28.9851C51.2594 28.9851 51.2586 28.9851 51.2583 28.9851C51.2581 28.9851 51.2585 28.9851 51.2583 28.9851C51.258 28.9851 51.2572 28.9851 51.2569 28.9851C51.2567 28.9851 51.2571 28.9851 51.2569 28.9851C51.2566 28.9851 51.2557 28.9851 51.2555 28.9851C51.2552 28.9851 51.2557 28.9851 51.2555 28.9851C51.2553 28.9851 51.2542 28.9851 51.2541 28.9851C51.2538 28.9851 51.2543 28.9851 51.2541 28.9851C51.2539 28.9851 51.2528 28.9851 51.2527 28.9851C51.2524 28.9851 51.2529 28.9851 51.2527 28.9851C51.2525 28.9851 51.2514 28.9851 51.2512 28.9851C51.251 28.9851 51.2515 28.9851 51.2512 28.9851C51.2511 28.9851 51.25 28.9851 51.2498 28.9851C51.2496 28.9851 51.2501 28.9851 51.2498 28.9851C51.2496 28.9851 51.2486 28.9851 51.2483 28.9851C51.2482 28.9851 51.2485 28.9851 51.2483 28.9851C51.2481 28.9851 51.2472 28.9851 51.2469 28.9851C51.2467 28.9851 51.2471 28.9851 51.2469 28.9851C51.2467 28.9851 51.2458 28.9851 51.2455 28.9851C51.2453 28.9851 51.2457 28.9851 51.2455 28.9851C51.2453 28.9851 51.2444 28.9851 51.2441 28.9851C51.2439 28.9851 51.2443 28.9851 51.2441 28.9851C51.2438 28.9851 51.243 28.9851 51.2427 28.9851C51.2425 28.9851 51.243 28.9851 51.2427 28.9851C51.2425 28.9851 51.2415 28.9851 51.2413 28.9851C51.241 28.9851 51.2416 28.9851 51.2413 28.9851C51.2411 28.9851 51.2401 28.9851 51.2399 28.9851C51.2396 28.9851 51.2402 28.9851 51.2399 28.9851C51.2397 28.9851 51.2387 28.9851 51.2385 28.9851C51.2382 28.9851 51.2388 28.9851 51.2385 28.9851C51.2383 28.9851 51.2373 28.9851 51.2371 28.9851C51.2368 28.9851 51.2374 28.9851 51.2371 28.9851C51.2369 28.9851 51.2359 28.9851 51.2356 28.9851C51.2354 28.9851 51.2358 28.9851 51.2356 28.9851C51.2353 28.9851 51.2345 28.9851 51.2342 28.9851C51.234 28.9851 51.2344 28.9851 51.2342 28.9851C51.2339 28.9851 51.2331 28.9851 51.2328 28.9851C51.2326 28.9851 51.233 28.9851 51.2328 28.9851C51.2325 28.9851 51.2317 28.9851 51.2314 28.9851C51.2312 28.9851 51.2316 28.9851 51.2314 28.9851C51.2311 28.9851 51.2303 28.9851 51.23 28.9851C51.2298 28.9851 51.2302 28.9851 51.23 28.9851C51.2297 28.9851 51.2288 28.9851 51.2286 28.9851C51.2283 28.9851 51.2288 28.9851 51.2286 28.9851C51.2284 28.9851 51.2273 28.9851 51.2272 28.9851C51.2269 28.9851 51.2274 28.9851 51.2272 28.9851C51.227 28.9851 51.2259 28.9851 51.2257 28.9851C51.2255 28.9851 51.226 28.9851 51.2257 28.9851C51.2256 28.9851 51.2245 28.9851 51.2243 28.9851C51.2241 28.9851 51.2246 28.9851 51.2243 28.9851C51.2242 28.9851 51.2231 28.9851 51.2229 28.9851C51.2227 28.9851 51.2231 28.9851 51.2229 28.9851C51.2227 28.9851 51.2217 28.9851 51.2214 28.9851C51.2213 28.9851 51.2216 28.9851 51.2214 28.9851C51.2212 28.9851 51.2203 28.9851 51.22 28.9851C51.2198 28.9851 51.2202 28.9851 51.22 28.9851C51.2197 28.9851 51.2189 28.9851 51.2186 28.9851C51.2184 28.9851 51.2188 28.9851 51.2186 28.9851C51.2183 28.9851 51.2175 28.9851 51.2172 28.9851C51.217 28.9851 51.2174 28.9851 51.2172 28.9851C51.2169 28.9851 51.2161 28.9851 51.2158 28.9851C51.2155 28.9851 51.2161 28.9851 51.2158 28.9851C51.2156 28.9851 51.2146 28.9851 51.2144 28.9851C51.2141 28.9851 51.2147 28.9851 51.2144 28.9851C51.2142 28.9851 51.2132 28.9851 51.213 28.9851C51.2127 28.9851 51.2133 28.9851 51.213 28.9851C51.2128 28.9851 51.2118 28.9851 51.2116 28.9851C51.2113 28.9851 51.2119 28.9851 51.2116 28.9851C51.2114 28.9851 51.2104 28.9851 51.2102 28.9851C51.2099 28.9851 51.2105 28.9851 51.2102 28.9851C51.21 28.9851 51.209 28.9851 51.2087 28.9851C51.2085 28.9851 51.2089 28.9851 51.2087 28.9851C51.2084 28.9851 51.2076 28.9851 51.2073 28.9851C51.2071 28.9851 51.2075 28.9851 51.2073 28.9851C51.207 28.9851 51.2062 28.9851 51.2059 28.9851C51.2057 28.9851 51.2061 28.9851 51.2059 28.9851C51.2056 28.9851 51.2048 28.9851 51.2045 28.9851C51.2043 28.9851 51.2047 28.9851 51.2045 28.9851C51.2042 28.9851 51.2033 28.9851 51.2031 28.9851C51.2029 28.9851 51.2033 28.9851 51.2031 28.9851C51.2029 28.9851 51.2018 28.9851 51.2017 28.9851C51.2014 28.9851 51.2019 28.9851 51.2017 28.9851C51.2015 28.9851 51.2004 28.9851 51.2003 28.9851C51.2 28.9851 51.2005 28.9851 51.2003 28.9851C51.2001 28.9851 51.199 28.9851 51.1988 28.9851C51.1986 28.9851 51.1991 28.9851 51.1988 28.9851C51.1987 28.9851 51.1976 28.9851 51.1974 28.9851C51.1972 28.9851 51.1977 28.9851 51.1974 28.9851C51.1973 28.9851 51.1962 28.9851 51.196 28.9851C51.1957 28.9851 51.1962 28.9851 51.196 28.9851C51.1957 28.9851 51.1948 28.9851 51.1945 28.9851C51.1943 28.9851 51.1947 28.9851 51.1945 28.9851C51.1943 28.9851 51.1934 28.9851 51.1931 28.9851C51.1929 28.9851 51.1933 28.9851 51.1931 28.9851C51.1928 28.9851 51.192 28.9851 51.1917 28.9851C51.1915 28.9851 51.1919 28.9851 51.1917 28.9851C51.1914 28.9851 51.1906 28.9851 51.1903 28.9851C51.1901 28.9851 51.1905 28.9851 51.1903 28.9851C51.19 28.9851 51.1892 28.9851 51.1889 28.9851C51.1886 28.9851 51.1892 28.9851 51.1889 28.9851C51.1887 28.9851 51.1877 28.9851 51.1875 28.9851C51.1872 28.9851 51.1878 28.9851 51.1875 28.9851C51.1873 28.9851 51.1863 28.9851 51.1861 28.9851C51.1858 28.9851 51.1864 28.9851 51.1861 28.9851C51.1859 28.9851 51.1849 28.9851 51.1847 28.9851C51.1844 28.9851 51.185 28.9851 51.1847 28.9851C51.1845 28.9851 51.1835 28.9851 51.1833 28.9851C51.183 28.9851 51.1836 28.9851 51.1833 28.9851C51.183 28.9851 51.1821 28.9851 51.1818 28.9851C51.1816 28.9851 51.182 28.9851 51.1818 28.9851C51.1815 28.9851 51.1807 28.9851 51.1804 28.9851C51.1802 28.9851 51.1806 28.9851 51.1804 28.9851C51.1801 28.9851 51.1792 28.9851 51.179 28.9851C51.1788 28.9851 51.1792 28.9851 51.179 28.9851C51.1787 28.9851 51.1778 28.9851 51.1776 28.9851C51.1774 28.9851 51.1777 28.9851 51.1776 28.9851C51.1773 28.9851 51.1764 28.9851 51.1762 28.9851C51.176 28.9851 51.1764 28.9851 51.1762 28.9851C51.176 28.9851 51.1749 28.9851 51.1747 28.9851C51.1745 28.9851 51.175 28.9851 51.1747 28.9851C51.1746 28.9851 51.1735 28.9851 51.1733 28.9851C51.1731 28.9851 51.1736 28.9851 51.1733 28.9851C51.1732 28.9851 51.1721 28.9851 51.1719 28.9851C51.1717 28.9851 51.1722 28.9851 51.1719 28.9851C51.1717 28.9851 51.1707 28.9851 51.1705 28.9851C51.1702 28.9851 51.1708 28.9851 51.1705 28.9851C51.1703 28.9851 51.1693 28.9851 51.169 28.9851C51.1688 28.9851 51.1692 28.9851 51.169 28.9851C51.1688 28.9851 51.1679 28.9851 51.1676 28.9851C51.1674 28.9851 51.1678 28.9851 51.1676 28.9851C51.1673 28.9851 51.1665 28.9851 51.1662 28.9851C51.166 28.9851 51.1664 28.9851 51.1662 28.9851C51.1659 28.9851 51.1651 28.9851 51.1648 28.9851C51.1646 28.9851 51.165 28.9851 51.1648 28.9851C51.1645 28.9851 51.1637 28.9851 51.1634 28.9851C51.1632 28.9851 51.1636 28.9851 51.1634 28.9851C51.1631 28.9851 51.1622 28.9851 51.162 28.9851C51.1617 28.9851 51.1623 28.9851 51.162 28.9851C51.1618 28.9851 51.1608 28.9851 51.1606 28.9851C51.1603 28.9851 51.1609 28.9851 51.1606 28.9851C51.1604 28.9851 51.1594 28.9851 51.1592 28.9851C51.1589 28.9851 51.1595 28.9851 51.1592 28.9851C51.159 28.9851 51.158 28.9851 51.1578 28.9851C51.1575 28.9851 51.1581 28.9851 51.1578 28.9851C51.1576 28.9851 51.1566 28.9851 51.1564 28.9851C51.1561 28.9851 51.1567 28.9851 51.1564 28.9851C51.1561 28.9851 51.1552 28.9851 51.1549 28.9851C51.1547 28.9851 51.1551 28.9851 51.1549 28.9851C51.1546 28.9851 51.1538 28.9851 51.1535 28.9851C51.1533 28.9851 51.1537 28.9851 51.1535 28.9851C51.1532 28.9851 51.1523 28.9851 51.1521 28.9851C51.1519 28.9851 51.1523 28.9851 51.1521 28.9851C51.1518 28.9851 51.1509 28.9851 51.1507 28.9851C51.1505 28.9851 51.1508 28.9851 51.1507 28.9851C51.1504 28.9851 51.1495 28.9851 51.1493 28.9851C51.149 28.9851 51.1495 28.9851 51.1493 28.9851C51.1491 28.9851 51.148 28.9851 51.1478 28.9851C51.1476 28.9851 51.1481 28.9851 51.1478 28.9851C51.1477 28.9851 51.1466 28.9851 51.1464 28.9851C51.1462 28.9851 51.1467 28.9851 51.1464 28.9851C51.1463 28.9851 51.1452 28.9851 51.145 28.9851C51.1448 28.9851 51.1453 28.9851 51.145 28.9851C51.1448 28.9851 51.1438 28.9851 51.1436 28.9851C51.1433 28.9851 51.1439 28.9851 51.1436 28.9851C51.1434 28.9851 51.1424 28.9851 51.1421 28.9851C51.1419 28.9851 51.1423 28.9851 51.1421 28.9851C51.1418 28.9851 51.141 28.9851 51.1407 28.9851C51.1405 28.9851 51.1409 28.9851 51.1407 28.9851C51.1404 28.9851 51.1396 28.9851 51.1393 28.9851C51.1391 28.9851 51.1395 28.9851 51.1393 28.9851C51.139 28.9851 51.1382 28.9851 51.1379 28.9851C51.1377 28.9851 51.1381 28.9851 51.1379 28.9851C51.1376 28.9851 51.1368 28.9851 51.1365 28.9851C51.1363 28.9851 51.1367 28.9851 51.1365 28.9851C51.1362 28.9851 51.1353 28.9851 51.1351 28.9851C51.1348 28.9851 51.1354 28.9851 51.1351 28.9851C51.1349 28.9851 51.1339 28.9851 51.1337 28.9851C51.1334 28.9851 51.134 28.9851 51.1337 28.9851C51.1335 28.9851 51.1325 28.9851 51.1323 28.9851C51.132 28.9851 51.1326 28.9851 51.1323 28.9851C51.1321 28.9851 51.1311 28.9851 51.1309 28.9851C51.1306 28.9851 51.1312 28.9851 51.1309 28.9851C51.1307 28.9851 51.1297 28.9851 51.1295 28.9851C51.1292 28.9851 51.1297 28.9851 51.1295 28.9851C51.1292 28.9851 51.1283 28.9851 51.128 28.9851C51.1278 28.9851 51.1282 28.9851 51.128 28.9851C51.1277 28.9851 51.1268 28.9851 51.1266 28.9851C51.1264 28.9851 51.1268 28.9851 51.1266 28.9851C51.1263 28.9851 51.1254 28.9851 51.1252 28.9851C51.125 28.9851 51.1253 28.9851 51.1252 28.9851C51.1249 28.9851 51.124 28.9851 51.1238 28.9851C51.1236 28.9851 51.1239 28.9851 51.1238 28.9851C51.1235 28.9851 51.1226 28.9851 51.1223 28.9851C51.1221 28.9851 51.1226 28.9851 51.1223 28.9851C51.1222 28.9851 51.1211 28.9851 51.1209 28.9851C51.1207 28.9851 51.1212 28.9851 51.1209 28.9851C51.1208 28.9851 51.1197 28.9851 51.1195 28.9851C51.1193 28.9851 51.1198 28.9851 51.1195 28.9851C51.1193 28.9851 51.1183 28.9851 51.1181 28.9851C51.1178 28.9851 51.1184 28.9851 51.1181 28.9851C51.1179 28.9851 51.1169 28.9851 51.1167 28.9851C51.1164 28.9851 51.117 28.9851 51.1167 28.9851C51.1164 28.9851 51.1155 28.9851 51.1152 28.9851C51.115 28.9851 51.1154 28.9851 51.1152 28.9851C51.1149 28.9851 51.1141 28.9851 51.1138 28.9851C51.1136 28.9851 51.114 28.9851 51.1138 28.9851C51.1135 28.9851 51.1127 28.9851 51.1124 28.9851C51.1122 28.9851 51.1126 28.9851 51.1124 28.9851C51.1121 28.9851 51.1113 28.9851 51.111 28.9851C51.1108 28.9851 51.1112 28.9851 51.111 28.9851C51.1107 28.9851 51.1099 28.9851 51.1096 28.9851C51.1094 28.9851 51.1099 28.9851 51.1096 28.9851C51.1094 28.9851 51.1084 28.9851 51.1082 28.9851C51.1079 28.9851 51.1085 28.9851 51.1082 28.9851C51.108 28.9851 51.107 28.9851 51.1068 28.9851C51.1065 28.9851 51.1071 28.9851 51.1068 28.9851C51.1066 28.9851 51.1056 28.9851 51.1054 28.9851C51.1051 28.9851 51.1057 28.9851 51.1054 28.9851C51.1052 28.9851 51.1042 28.9851 51.104 28.9851C51.1037 28.9851 51.1042 28.9851 51.104 28.9851C51.1038 28.9851 51.1028 28.9851 51.1026 28.9851C51.1023 28.9851 51.1028 28.9851 51.1026 28.9851C51.1023 28.9851 51.1013 28.9851 51.1011 28.9851C51.1009 28.9851 51.1012 28.9851 51.1011 28.9851C51.1008 28.9851 51.0999 28.9851 51.0997 28.9851C51.0995 28.9851 51.0998 28.9851 51.0997 28.9851C51.0994 28.9851 51.0985 28.9851 51.0982 28.9851C51.0981 28.9851 51.0984 28.9851 51.0982 28.9851C51.098 28.9851 51.0971 28.9851 51.0968 28.9851C51.0967 28.9851 51.097 28.9851 51.0968 28.9851C51.0966 28.9851 51.0956 28.9851 51.0954 28.9851C51.0952 28.9851 51.0957 28.9851 51.0954 28.9851C51.0952 28.9851 51.0942 28.9851 51.094 28.9851C51.0938 28.9851 51.0943 28.9851 51.094 28.9851C51.0938 28.9851 51.0928 28.9851 51.0926 28.9851C51.0923 28.9851 51.0929 28.9851 51.0926 28.9851C51.0924 28.9851 51.0914 28.9851 51.0912 28.9851C51.0909 28.9851 51.0915 28.9851 51.0912 28.9851C51.091 28.9851 51.09 28.9851 51.0898 28.9851C51.0895 28.9851 51.0901 28.9851 51.0898 28.9851C51.0895 28.9851 51.0886 28.9851 51.0883 28.9851C51.0881 28.9851 51.0885 28.9851 51.0883 28.9851C51.088 28.9851 51.0872 28.9851 51.0869 28.9851C51.0867 28.9851 51.0871 28.9851 51.0869 28.9851C51.0866 28.9851 51.0858 28.9851 51.0855 28.9851C51.0853 28.9851 51.0857 28.9851 51.0855 28.9851C51.0852 28.9851 51.0844 28.9851 51.0841 28.9851C51.0839 28.9851 51.0843 28.9851 51.0841 28.9851C51.0838 28.9851 51.083 28.9851 51.0827 28.9851C51.0825 28.9851 51.083 28.9851 51.0827 28.9851C51.0825 28.9851 51.0815 28.9851 51.0813 28.9851C51.081 28.9851 51.0816 28.9851 51.0813 28.9851C51.0811 28.9851 51.0801 28.9851 51.0799 28.9851C51.0796 28.9851 51.0802 28.9851 51.0799 28.9851C51.0797 28.9851 51.0787 28.9851 51.0785 28.9851C51.0782 28.9851 51.0788 28.9851 51.0785 28.9851C51.0783 28.9851 51.0772 28.9851 51.0771 28.9851C51.0768 28.9851 51.0773 28.9851 51.0771 28.9851C51.0769 28.9851 51.0758 28.9851 51.0756 28.9851C51.0754 28.9851 51.0757 28.9851 51.0756 28.9851C51.0753 28.9851 51.0744 28.9851 51.0742 28.9851C51.074 28.9851 51.0743 28.9851 51.0742 28.9851C51.0739 28.9851 51.073 28.9851 51.0728 28.9851C51.0726 28.9851 51.0729 28.9851 51.0728 28.9851C51.0725 28.9851 51.0716 28.9851 51.0713 28.9851C51.0712 28.9851 51.0715 28.9851 51.0713 28.9851C51.0711 28.9851 51.0702 28.9851 51.0699 28.9851C51.0697 28.9851 51.0701 28.9851 51.0699 28.9851C51.0697 28.9851 51.0687 28.9851 51.0685 28.9851C51.0682 28.9851 51.0688 28.9851 51.0685 28.9851C51.0683 28.9851 51.0673 28.9851 51.0671 28.9851C51.0668 28.9851 51.0674 28.9851 51.0671 28.9851C51.0669 28.9851 51.0659 28.9851 51.0657 28.9851C51.0654 28.9851 51.066 28.9851 51.0657 28.9851C51.0655 28.9851 51.0645 28.9851 51.0643 28.9851C51.064 28.9851 51.0646 28.9851 51.0643 28.9851C51.0641 28.9851 51.0631 28.9851 51.0629 28.9851C51.0626 28.9851 51.0631 28.9851 51.0629 28.9851C51.0626 28.9851 51.0617 28.9851 51.0614 28.9851C51.0612 28.9851 51.0616 28.9851 51.0614 28.9851C51.0611 28.9851 51.0603 28.9851 51.06 28.9851C51.0598 28.9851 51.0602 28.9851 51.06 28.9851C51.0597 28.9851 51.0589 28.9851 51.0586 28.9851C51.0584 28.9851 51.0588 28.9851 51.0586 28.9851C51.0583 28.9851 51.0575 28.9851 51.0572 28.9851C51.057 28.9851 51.0574 28.9851 51.0572 28.9851C51.0569 28.9851 51.0561 28.9851 51.0558 28.9851C51.0555 28.9851 51.0561 28.9851 51.0558 28.9851C51.0556 28.9851 51.0546 28.9851 51.0544 28.9851C51.0541 28.9851 51.0547 28.9851 51.0544 28.9851C51.0542 28.9851 51.0532 28.9851 51.053 28.9851C51.0527 28.9851 51.0532 28.9851 51.053 28.9851C51.0528 28.9851 51.0518 28.9851 51.0516 28.9851C51.0513 28.9851 51.0518 28.9851 51.0516 28.9851C51.0514 28.9851 51.0503 28.9851 51.0502 28.9851C51.0499 28.9851 51.0504 28.9851 51.0502 28.9851C51.05 28.9851 51.0489 28.9851 51.0487 28.9851C51.0485 28.9851 51.0488 28.9851 51.0487 28.9851C51.0484 28.9851 51.0475 28.9851 51.0473 28.9851C51.0471 28.9851 51.0474 28.9851 51.0473 28.9851C51.047 28.9851 51.0461 28.9851 51.0458 28.9851C51.0457 28.9851 51.046 28.9851 51.0458 28.9851C51.0456 28.9851 51.0447 28.9851 51.0444 28.9851C51.0443 28.9851 51.0446 28.9851 51.0444 28.9851C51.0442 28.9851 51.0433 28.9851 51.043 28.9851C51.0428 28.9851 51.0433 28.9851 51.043 28.9851C51.0428 28.9851 51.0418 28.9851 51.0416 28.9851C51.0413 28.9851 51.0419 28.9851 51.0416 28.9851C51.0414 28.9851 51.0404 28.9851 51.0402 28.9851C51.0399 28.9851 51.0405 28.9851 51.0402 28.9851C51.04 28.9851 51.039 28.9851 51.0388 28.9851C51.0385 28.9851 51.0391 28.9851 51.0388 28.9851C51.0386 28.9851 51.0376 28.9851 51.0374 28.9851C51.0371 28.9851 51.0377 28.9851 51.0374 28.9851C51.0372 28.9851 51.0362 28.9851 51.036 28.9851C51.0357 28.9851 51.0362 28.9851 51.036 28.9851C51.0357 28.9851 51.0348 28.9851 51.0345 28.9851C51.0343 28.9851 51.0347 28.9851 51.0345 28.9851C51.0342 28.9851 51.0334 28.9851 51.0331 28.9851C51.0329 28.9851 51.0333 28.9851 51.0331 28.9851C51.0328 28.9851 51.032 28.9851 51.0317 28.9851C51.0315 28.9851 51.0319 28.9851 51.0317 28.9851C51.0314 28.9851 51.0306 28.9851 51.0303 28.9851C51.0301 28.9851 51.0305 28.9851 51.0303 28.9851C51.03 28.9851 51.0292 28.9851 51.0289 28.9851C51.0286 28.9851 51.0292 28.9851 51.0289 28.9851C51.0287 28.9851 51.0277 28.9851 51.0275 28.9851C51.0272 28.9851 51.0278 28.9851 51.0275 28.9851C51.0273 28.9851 51.0263 28.9851 51.0261 28.9851C51.0258 28.9851 51.0263 28.9851 51.0261 28.9851C51.0259 28.9851 51.0248 28.9851 51.0247 28.9851C51.0244 28.9851 51.0249 28.9851 51.0247 28.9851C51.0245 28.9851 51.0234 28.9851 51.0233 28.9851C51.023 28.9851 51.0235 28.9851 51.0233 28.9851C51.023 28.9851 51.022 28.9851 51.0217 28.9851C51.0216 28.9851 51.0219 28.9851 51.0217 28.9851C51.0215 28.9851 51.0206 28.9851 51.0203 28.9851C51.0202 28.9851 51.0205 28.9851 51.0203 28.9851C51.0201 28.9851 51.0192 28.9851 51.0189 28.9851C51.0187 28.9851 51.0191 28.9851 51.0189 28.9851C51.0187 28.9851 51.0178 28.9851 51.0175 28.9851C51.0173 28.9851 51.0177 28.9851 51.0175 28.9851C51.0173 28.9851 51.0164 28.9851 51.0161 28.9851C51.0159 28.9851 51.0164 28.9851 51.0161 28.9851C51.0159 28.9851 51.0149 28.9851 51.0147 28.9851C51.0144 28.9851 51.015 28.9851 51.0147 28.9851C51.0145 28.9851 51.0135 28.9851 51.0133 28.9851C51.013 28.9851 51.0136 28.9851 51.0133 28.9851C51.0131 28.9851 51.0121 28.9851 51.0119 28.9851C51.0116 28.9851 51.0122 28.9851 51.0119 28.9851C51.0117 28.9851 51.0107 28.9851 51.0105 28.9851C51.0102 28.9851 51.0108 28.9851 51.0105 28.9851C51.0103 28.9851 51.0093 28.9851 51.009 28.9851C51.0088 28.9851 51.0092 28.9851 51.009 28.9851C51.0087 28.9851 51.0079 28.9851 51.0076 28.9851C51.0074 28.9851 51.0078 28.9851 51.0076 28.9851C51.0073 28.9851 51.0065 28.9851 51.0062 28.9851C51.006 28.9851 51.0064 28.9851 51.0062 28.9851C51.0059 28.9851 51.0051 28.9851 51.0048 28.9851C51.0046 28.9851 51.005 28.9851 51.0048 28.9851C51.0045 28.9851 51.0037 28.9851 51.0034 28.9851C51.0032 28.9851 51.0036 28.9851 51.0034 28.9851C51.0031 28.9851 51.0022 28.9851 51.002 28.9851C51.0017 28.9851 51.0023 28.9851 51.002 28.9851C51.0018 28.9851 51.0007 28.9851 51.0006 28.9851C51.0003 28.9851 51.0008 28.9851 51.0006 28.9851C51.0004 28.9851 50.9993 28.9851 50.9992 28.9851C50.9989 28.9851 50.9994 28.9851 50.9992 28.9851C50.999 28.9851 50.9979 28.9851 50.9978 28.9851C50.9975 28.9851 50.998 28.9851 50.9978 28.9851C50.9976 28.9851 50.9965 28.9851 50.9963 28.9851C50.9961 28.9851 50.9966 28.9851 50.9963 28.9851C50.9961 28.9851 50.9951 28.9851 50.9948 28.9851C50.9947 28.9851 50.995 28.9851 50.9948 28.9851C50.9946 28.9851 50.9937 28.9851 50.9934 28.9851C50.9932 28.9851 50.9936 28.9851 50.9934 28.9851C50.9932 28.9851 50.9923 28.9851 50.992 28.9851C50.9918 28.9851 50.9922 28.9851 50.992 28.9851C50.9917 28.9851 50.9909 28.9851 50.9906 28.9851C50.9904 28.9851 50.9908 28.9851 50.9906 28.9851C50.9903 28.9851 50.9895 28.9851 50.9892 28.9851C50.9889 28.9851 50.9895 28.9851 50.9892 28.9851C50.989 28.9851 50.988 28.9851 50.9878 28.9851C50.9875 28.9851 50.9881 28.9851 50.9878 28.9851C50.9876 28.9851 50.9866 28.9851 50.9864 28.9851C50.9861 28.9851 50.9867 28.9851 50.9864 28.9851C50.9862 28.9851 50.9852 28.9851 50.985 28.9851C50.9847 28.9851 50.9853 28.9851 50.985 28.9851C50.9848 28.9851 50.9838 28.9851 50.9836 28.9851C50.9833 28.9851 50.9839 28.9851 50.9836 28.9851C50.9834 28.9851 50.9824 28.9851 50.9821 28.9851C50.9819 28.9851 50.9823 28.9851 50.9821 28.9851C50.9818 28.9851 50.981 28.9851 50.9807 28.9851C50.9805 28.9851 50.9809 28.9851 50.9807 28.9851C50.9804 28.9851 50.9796 28.9851 50.9793 28.9851C50.9791 28.9851 50.9795 28.9851 50.9793 28.9851C50.979 28.9851 50.9782 28.9851 50.9779 28.9851C50.9777 28.9851 50.9781 28.9851 50.9779 28.9851C50.9776 28.9851 50.9767 28.9851 50.9765 28.9851C50.9763 28.9851 50.9767 28.9851 50.9765 28.9851C50.9762 28.9851 50.9753 28.9851 50.9751 28.9851C50.9748 28.9851 50.9753 28.9851 50.9751 28.9851C50.9749 28.9851 50.9738 28.9851 50.9737 28.9851C50.9734 28.9851 50.9739 28.9851 50.9737 28.9851C50.9735 28.9851 50.9724 28.9851 50.9722 28.9851C50.972 28.9851 50.9725 28.9851 50.9722 28.9851C50.9721 28.9851 50.971 28.9851 50.9708 28.9851C50.9706 28.9851 50.9711 28.9851 50.9708 28.9851C50.9707 28.9851 50.9696 28.9851 50.9694 28.9851C50.9692 28.9851 50.9696 28.9851 50.9694 28.9851C50.9692 28.9851 50.9682 28.9851 50.9679 28.9851C50.9678 28.9851 50.9681 28.9851 50.9679 28.9851C50.9677 28.9851 50.9668 28.9851 50.9665 28.9851C50.9663 28.9851 50.9667 28.9851 50.9665 28.9851C50.9663 28.9851 50.9654 28.9851 50.9651 28.9851C50.9649 28.9851 50.9653 28.9851 50.9651 28.9851C50.9648 28.9851 50.964 28.9851 50.9637 28.9851C50.9635 28.9851 50.9639 28.9851 50.9637 28.9851C50.9634 28.9851 50.9626 28.9851 50.9623 28.9851C50.962 28.9851 50.9626 28.9851 50.9623 28.9851C50.9621 28.9851 50.9611 28.9851 50.9609 28.9851C50.9606 28.9851 50.9612 28.9851 50.9609 28.9851C50.9607 28.9851 50.9597 28.9851 50.9595 28.9851C50.9592 28.9851 50.9598 28.9851 50.9595 28.9851C50.9593 28.9851 50.9583 28.9851 50.9581 28.9851C50.9578 28.9851 50.9584 28.9851 50.9581 28.9851C50.9579 28.9851 50.9569 28.9851 50.9567 28.9851C50.9564 28.9851 50.957 28.9851 50.9567 28.9851C50.9564 28.9851 50.9555 28.9851 50.9552 28.9851C50.955 28.9851 50.9554 28.9851 50.9552 28.9851C50.9549 28.9851 50.9541 28.9851 50.9538 28.9851C50.9536 28.9851 50.954 28.9851 50.9538 28.9851C50.9535 28.9851 50.9527 28.9851 50.9524 28.9851C50.9522 28.9851 50.9526 28.9851 50.9524 28.9851C50.9521 28.9851 50.9513 28.9851 50.951 28.9851C50.9508 28.9851 50.9512 28.9851 50.951 28.9851C50.9507 28.9851 50.9498 28.9851 50.9496 28.9851C50.9494 28.9851 50.9498 28.9851 50.9496 28.9851C50.9494 28.9851 50.9483 28.9851 50.9482 28.9851C50.9479 28.9851 50.9484 28.9851 50.9482 28.9851C50.948 28.9851 50.9469 28.9851 50.9467 28.9851C50.9465 28.9851 50.947 28.9851 50.9467 28.9851C50.9466 28.9851 50.9455 28.9851 50.9453 28.9851C50.9451 28.9851 50.9456 28.9851 50.9453 28.9851C50.9452 28.9851 50.9441 28.9851 50.9439 28.9851C50.9437 28.9851 50.9442 28.9851 50.9439 28.9851C50.9437 28.9851 50.9427 28.9851 50.9425 28.9851C50.9422 28.9851 50.9427 28.9851 50.9425 28.9851C50.9422 28.9851 50.9413 28.9851 50.941 28.9851C50.9408 28.9851 50.9412 28.9851 50.941 28.9851C50.9408 28.9851 50.9399 28.9851 50.9396 28.9851C50.9394 28.9851 50.9398 28.9851 50.9396 28.9851C50.9393 28.9851 50.9385 28.9851 50.9382 28.9851C50.938 28.9851 50.9384 28.9851 50.9382 28.9851C50.9379 28.9851 50.9371 28.9851 50.9368 28.9851C50.9366 28.9851 50.937 28.9851 50.9368 28.9851C50.9365 28.9851 50.9356 28.9851 50.9354 28.9851C50.9351 28.9851 50.9357 28.9851 50.9354 28.9851C50.9352 28.9851 50.9342 28.9851 50.934 28.9851C50.9337 28.9851 50.9343 28.9851 50.934 28.9851C50.9338 28.9851 50.9328 28.9851 50.9326 28.9851C50.9323 28.9851 50.9329 28.9851 50.9326 28.9851C50.9324 28.9851 50.9314 28.9851 50.9312 28.9851C50.9309 28.9851 50.9315 28.9851 50.9312 28.9851C50.931 28.9851 50.93 28.9851 50.9298 28.9851C50.9295 28.9851 50.9301 28.9851 50.9298 28.9851C50.9295 28.9851 50.9286 28.9851 50.9283 28.9851C50.9281 28.9851 50.9285 28.9851 50.9283 28.9851C50.928 28.9851 50.9272 28.9851 50.9269 28.9851C50.9267 28.9851 50.9271 28.9851 50.9269 28.9851C50.9266 28.9851 50.9258 28.9851 50.9255 28.9851C50.9253 28.9851 50.9257 28.9851 50.9255 28.9851C50.9252 28.9851 50.9243 28.9851 50.9241 28.9851C50.9239 28.9851 50.9242 28.9851 50.9241 28.9851C50.9238 28.9851 50.9229 28.9851 50.9227 28.9851C50.9225 28.9851 50.9229 28.9851 50.9227 28.9851C50.9225 28.9851 50.9214 28.9851 50.9213 28.9851C50.921 28.9851 50.9215 28.9851 50.9213 28.9851C50.9211 28.9851 50.92 28.9851 50.9198 28.9851C50.9196 28.9851 50.9201 28.9851 50.9198 28.9851C50.9197 28.9851 50.9186 28.9851 50.9184 28.9851C50.9182 28.9851 50.9187 28.9851 50.9184 28.9851C50.9183 28.9851 50.9172 28.9851 50.917 28.9851C50.9167 28.9851 50.9173 28.9851 50.917 28.9851C50.9168 28.9851 50.9158 28.9851 50.9155 28.9851C50.9153 28.9851 50.9157 28.9851 50.9155 28.9851C50.9152 28.9851 50.9144 28.9851 50.9141 28.9851C50.9139 28.9851 50.9143 28.9851 50.9141 28.9851C50.9138 28.9851 50.913 28.9851 50.9127 28.9851C50.9125 28.9851 50.9129 28.9851 50.9127 28.9851C50.9124 28.9851 50.9116 28.9851 50.9113 28.9851C50.9111 28.9851 50.9115 28.9851 50.9113 28.9851C50.911 28.9851 50.9102 28.9851 50.9099 28.9851V31.0541ZM51.2724 31.0541C51.4218 31.0541 51.5709 31.0466 51.7199 31.0317L51.5501 28.9713C51.4574 28.9806 51.3649 28.9851 51.2724 28.9851V31.0541ZM52.4058 29.4127C52.1453 28.9975 51.8615 28.4479 51.5562 27.7511L49.8681 28.6514C50.2 29.4094 50.5313 30.0599 50.8643 30.5903L52.4058 29.4127ZM51.5539 27.7457L49.873 23.9634L48.1895 24.8744L49.8704 28.6567L51.5539 27.7457ZM48.4562 23.6019L45.3581 26.2568L46.5082 27.8908L49.6063 25.236L48.4562 23.6019ZM45.3604 26.2548C44.324 27.1374 43.5086 27.9562 42.9499 28.71L44.401 30.0201C44.831 29.4403 45.5208 28.7317 46.5059 27.8928L45.3604 26.2548ZM42.9552 28.7027C42.7437 28.9827 42.5743 29.1481 42.4512 29.2375C42.33 29.3256 42.2931 29.3125 42.3241 29.3125V31.3815C43.1768 31.3815 43.8699 30.7235 44.3957 30.0273L42.9552 28.7027ZM42.3241 29.3125C42.068 29.3125 41.9748 29.2455 41.9454 29.219L40.7582 30.8203C41.2122 31.2303 41.7673 31.3815 42.3241 31.3815V29.3125ZM41.9619 29.2342C41.7667 29.0496 41.5931 28.8576 41.4399 28.6586L40.0113 29.9986C40.2316 30.2846 40.4755 30.5534 40.7417 30.8051L41.9619 29.2342ZM41.4311 28.6475L40.739 27.7746L39.3279 29.137L40.02 30.0099L41.4311 28.6475ZM40.7452 27.7825C40.4978 27.4641 40.1873 27.1467 39.8281 26.8297L38.6568 28.4453C38.9568 28.7102 39.1734 28.9385 39.3216 29.1291L40.7452 27.7825ZM39.8033 26.8087L37.2655 24.7175L36.1437 26.3752L38.6815 28.4664L39.8033 26.8087ZM37.2541 24.7082C36.7503 24.306 36.2343 23.8731 35.7064 23.4095L34.5387 25.0282C35.0874 25.5102 35.6262 25.9624 36.1551 26.3844L37.2541 24.7082ZM34.2688 23.7915L31.8463 29.6832L33.5538 30.538L35.9763 24.6463L34.2688 23.7915ZM32.7001 31.145H33.1945V29.0761H32.7001V31.145ZM33.1945 31.145C34.251 31.145 34.8752 31.258 35.1796 31.3954L35.8895 29.4804C35.2271 29.1815 34.2912 29.0761 33.1945 29.0761V31.145ZM35.1967 31.4028C35.247 31.4243 35.2737 31.4435 35.2857 31.4534C35.2917 31.4585 35.2948 31.4619 35.2961 31.4634C35.2974 31.4649 35.298 31.4657 35.2983 31.4663C35.2987 31.467 35.2998 31.4688 35.3015 31.473C35.3031 31.4771 35.3059 31.4847 35.3088 31.497C35.3148 31.5216 35.3221 31.5665 35.3221 31.6381H37.1972C37.1972 31.1852 37.1038 30.7248 36.8584 30.3187C36.6112 29.9094 36.2596 29.638 35.8724 29.4729L35.1967 31.4028ZM35.3221 31.6381C35.3221 31.7442 35.3057 31.7877 35.3027 31.7949C35.3021 31.7963 35.3029 31.7987 35.2889 31.81C35.2406 31.8487 35.0536 31.9492 34.5787 31.9492V34.0182C35.2245 34.0182 35.878 33.8945 36.3899 33.4846C36.9577 33.0301 37.1972 32.3522 37.1972 31.6381H35.3221ZM34.616 31.9501L30.8917 31.7864L30.8171 33.8537L34.5414 34.0174L34.616 31.9501Z" fill="white"/>
</g>
<defs>
<clipPath id="clip0_8_260">
<rect width="30" height="30" fill="white" transform="translate(27 4)"/>
</clipPath>
</defs>
</svg>
