<svg viewBox="0 0 2000 1400" xmlns="http://www.w3.org/2000/svg"><path fill="#fff" d="M0 0h2000v1400H0z"/><rect x="42" y="860" width="10" height="25" fill="#FAFCC2" rx="0" transform="matrix(-.22608 .83918 -1.04482 -.54497 1270.219 1310.187)"/><rect x="107" y="1336" width="8" height="19" fill="#F9C0C0" rx="0" transform="matrix(.86202 .68293 -.53986 .73236 931.614 290.125)"/><rect x="495" y="115" width="8" height="23" fill="#F6D6AD" rx="0" transform="matrix(-.957 .46954 -.32988 -.88308 1001.717 -4.802)"/><rect x="1347" y="541" width="12" height="25" fill="#FAFCC2" rx="0" transform="matrix(-.67841 .60513 -.75225 -.80303 2748.13 321.445)"/><rect x="575" y="743" width="7" height="16" fill="#F6D6AD" rx="0" transform="matrix(1.04704 .517 -.19164 .86044 346.569 -143.667)"/><rect x="1967" y="1094" width="11" height="14" fill="#F6D6AD" rx="0" transform="matrix(.2421 .98223 -.97104 .19093 2584.498 -977.767)"/><rect x="1481" y="1306" width="13" height="14" fill="#F6D6AD" rx="0" transform="matrix(1.05196 .24733 .17595 .99197 37.976 -41.18)"/><rect x="892" y="1274" width="11" height="31" fill="#F6D6AD" rx="0" transform="matrix(.61178 .85084 -.76266 .5739 1121.527 -6.975)"/><rect x="328" y="977" width="10" height="23" fill="#F9C0C0" rx="0" transform="matrix(-.04315 .93415 -1.05306 -.37742 1625.973 1091.396)"/><rect x="1496" y="749" width="11" height="13" fill="#FAFCC2" rx="0" transform="matrix(.1929 .94566 -.99104 .32562 1871.037 -936.625)"/><rect x="1020" y="585" width="12" height="14" fill="#F9C0C0" rx="0" transform="matrix(.1523 1.03887 -.97056 -.05445 1382.338 -147.452)"/><rect x="487" y="522" width="9" height="14" fill="#FAFCC2" rx="0" transform="matrix(.79812 .60218 -.60148 .79912 398.334 -172.545)"/><rect x="911" y="205" width="9" height="22" fill="#ccf6c8" rx="0" transform="matrix(-.93436 .0365 -.64507 -1.04505 2061.854 688.218)"/><rect x="819" y="409" width="10" height="22" fill="#F6D6AD" rx="0" transform="matrix(.31617 1.02999 -.98193 -.03597 1041.625 -208.156)"/><rect x="1580" y="356" width="7" height="17" fill="#F9C0C0" rx="0" transform="matrix(-.80738 .23523 -.75404 -1.0189 3348.413 847.524)"/><rect x="1334" y="950" width="11" height="16" fill="#F9C0C0" rx="0" transform="matrix(-.63146 .55483 -.82998 -.85437 3173.434 1293.658)"/><rect x="1063" y="442" width="13" height="36" fill="#F6D6AD" rx="0" transform="matrix(-.68523 .83526 -.73504 -.5634 2128.989 -305.472)"/><rect x="1940" y="894" width="12" height="29" fill="#FAFCC2" rx="0" transform="matrix(.76298 .9056 -.66374 .52285 1116.755 -733.843)"/><rect x="650" y="1053" width="13" height="16" fill="#F6D6AD" rx="0" transform="matrix(.97819 .24933 -.08749 1 0 0)"/><rect x="1132" y="405" width="10" height="29" fill="#F9C0C0" rx="0" transform="matrix(.30573 1 -.96787 .1051 1287.122 -881.095)"/><rect x="182" y="793" width="10" height="25" fill="#F6D6AD" rx="0" transform="matrix(.8538 .53194 -.51352 .85129 383.507 36.675)"/><rect x="1465" y="1224" width="7" height="13" fill="#F6D6AD" rx="0" transform="matrix(-.05366 .97542 -1.01082 -.26136 2891.596 326.089)"/><rect x="1044" y="471" width="13" height="33" fill="#ccf6c8" rx="0" transform="matrix(-.3384 .82954 -.97723 -.55953 2003.41 -74.478)"/><rect x="491" y="892" width="12" height="12" fill="#F6D6AD" rx="0" transform="matrix(-.9994 0 -.28438 -1.00061 1477.294 1813.903)"/><rect x="1241" y="625" width="9" height="18" fill="#FAFCC2" rx="0" transform="matrix(-.32379 .7892 -.98565 -.68604 2380.34 466.793)"/><rect x="1648" y="181" width="8" height="8" fill="#FAFCC2" rx="0" transform="matrix(.51658 .76412 -.85964 .66424 958.98 -1461.856)"/><rect x="1505" y="423" width="12" height="24" fill="#ccf6c8" rx="0" transform="matrix(-.92533 .41073 -.35635 -.92252 3083.66 3.322)"/><rect x="1625" y="1334" width="10" height="10" fill="#ccf6c8" rx="0" transform="matrix(.41988 .78298 -.93716 .63405 2040.396 -986.388)"/><rect x="1338" y="422" width="10" height="23" fill="#FAFCC2" rx="0" transform="matrix(-.93564 .27907 -.32033 -.97324 2670.506 693.316)"/><rect x="1340" y="56" width="7" height="12" fill="#F6D6AD" rx="0" transform="matrix(.55439 .94487 -.85657 .3439 676.74 -1087.546)"/><rect x="1392" y="711" width="7" height="13" fill="#F9C0C0" rx="0" transform="matrix(-.24057 .84857 -1.02814 -.53024 2703.16 -37.492)"/><rect x="812" y="429" width="9" height="20" fill="#FAFCC2" rx="0" transform="matrix(.29237 .91 -.9563 .44384 997.596 -628.178)"/><rect x="1698" y="361" width="10" height="11" fill="#F6D6AD" rx="0" transform="matrix(.68994 .7328 -.69836 .70766 660.988 -809.792)"/><rect x="1245" y="1269" width="8" height="15" fill="#ccf6c8" rx="0" transform="matrix(1.00751 -.08764 -.10509 1.00168 24.565 -23.965)"/><rect x="957" y="163" width="8" height="20" fill="#ccf6c8" rx="0" transform="matrix(.85552 .39222 -.53409 .92402 225.023 -447.86)"/><rect x="1909" y="686" width="11" height="25" fill="#F6D6AD" rx="0" transform="matrix(.91515 .31205 -.38804 .9604 456 -838.834)"/><rect x="95" y="1183" width="10" height="11" fill="#ccf6c8" rx="0" transform="matrix(-.3159 .81018 -.9692 -.67983 1347.586 1949.887)"/><rect x="723" y="1275" width="11" height="25" fill="#F6D6AD" rx="0" transform="matrix(.62674 .88416 -.79777 .47012 1587.48 -.063)"/><rect x="1939" y="909" width="9" height="10" fill="#ccf6c8" rx="0" transform="matrix(.96636 .37466 -.27724 .92733 401.708 -627.81)"/><rect x="1909" y="324" width="12" height="16" fill="#F9C0C0" rx="0" transform="matrix(.62982 .8272 -.7679 .57921 977.201 -1713.527)"/><rect x="73" y="70" width="8" height="15" fill="#F9C0C0" rx="0" transform="matrix(.98984 -.08824 .01849 1.00861 5.063 -6.068)"/><rect x="1228" y="1269" width="11" height="14" fill="#F6D6AD" rx="0" transform="matrix(.89685 .27602 -.4953 .96258 545.64 -357.363)"/><rect x="1971" y="1074" width="12" height="30" fill="#F6D6AD" rx="0" transform="matrix(.88952 .37667 -.4532 .9323 727.329 -878.733)"/><rect x="305" y="183" width="7" height="12" fill="#ccf6c8" rx="0" transform="matrix(.94449 .2255 -.34356 .97675 73.284 -86.745)"/><rect x="1884" y="1152" width="13" height="35" fill="#FAFCC2" rx="0" transform="matrix(-.27595 .97452 -.96244 -.22499 3498.074 -442.706)"/><rect x="506" y="1167" width="7" height="20" fill="#F6D6AD" rx="0" transform="matrix(-.35719 .90554 -.9301 -.44166 1742.924 1298.022)"/><rect x="740" y="1229" width="12" height="24" fill="#FAFCC2" rx="0" transform="matrix(.9242 .49363 -.28764 .92839 231.372 -36.986)"/><rect x="774" y="96" width="10" height="15" fill="#F9C0C0" rx="0" transform="matrix(.23403 1.00368 -.97586 .08781 699.792 -783.101)"/><rect x="1298" y="926" width="10" height="26" fill="#F6D6AD" rx="0" transform="matrix(-.97713 -.05535 -.57849 -1.05617 3517.311 2451.527)"/><rect x="17" y="418" width="9" height="12" fill="#F6D6AD" rx="0" transform="matrix(.986 .2443 -.13874 .97983 44.217 6.32)"/><rect x="719" y="931" width="10" height="24" fill="#F9C0C0" rx="0" transform="matrix(-.91058 .36284 -.38394 -.94522 1615.449 1686.318)"/><rect x="404" y="818" width="12" height="34" fill="#F9C0C0" rx="0" transform="matrix(.44207 1.05082 -.96707 -.0367 1189.608 568.02)"/><rect x="1418" y="1115" width="9" height="24" fill="#ccf6c8" rx="0" transform="matrix(-.76955 .49652 -.5667 -.93382 2870.762 1962.922)"/><rect x="920" y="51" width="9" height="12" fill="#F9C0C0" rx="0" transform="matrix(-.5505 .67282 -.8749 -.74724 1510.486 -425.257)"/><rect x="849" y="1247" width="8" height="17" fill="#FAFCC2" rx="0" transform="matrix(.9382 .20947 -.35998 .9855 464.485 -265.203)"/><rect x="1203" y="319" width="9" height="16" fill="#FAFCC2" rx="0" transform="matrix(.74681 1.02119 -.83409 .1985 771.522 -624.746)"/><rect x="357" y="1041" width="8" height="15" fill="#ccf6c8" rx="0" transform="matrix(-.2253 .98354 -.96885 -.20906 1324.774 950.582)"/><rect x="1668" y="923" width="13" height="32" fill="#F6D6AD" rx="0" transform="matrix(-.82398 .37928 -.59717 -.93874 3720.358 1450.595)"/><rect x="1964" y="120" width="11" height="21" fill="#F6D6AD" rx="0" transform="matrix(.39367 .86603 -.92742 .5 1299.18 -1640.387)"/><rect x="1069" y="1380" width="11" height="18" fill="#F9C0C0" rx="0" transform="matrix(.3549 .99924 -.98216 .05237 2439.619 280.102)"/><rect x="1937" y="178" width="7" height="9" fill="#F6D6AD" rx="0" transform="matrix(-.7772 .50069 -.65112 -.86721 3602.37 -529.118)"/><rect x="55" y="530" width="7" height="14" fill="#F9C0C0" rx="0" transform="rotate(141 58.5 537)"/><rect x="605" y="566" width="12" height="24" fill="#F6D6AD" rx="0" transform="rotate(101 611 578)"/><rect x="142" y="1064" width="12" height="18" fill="#ccf6c8" rx="0" transform="matrix(.85279 .73236 -.57022 .68293 939.083 224.066)"/><rect x="1903" y="62" width="7" height="20" fill="#F6D6AD" rx="0" transform="matrix(.46603 .87682 -.87142 .50623 1052.525 -1938.067)"/><rect x="1591" y="1019" width="13" height="35" fill="#F6D6AD" rx="0" transform="matrix(-.43607 .86044 -.90018 -.517 3385.27 58.058)"/><rect x="983" y="1192" width="13" height="38" fill="#ccf6c8" rx="0" transform="matrix(.97564 .10478 -.26087 .99695 240.122 -169.183)"/><rect x="1492" y="104" width="8" height="15" fill="#ccf6c8" rx="0" transform="matrix(-.5315 .7524 -.8505 -.67747 2392.045 -701.622)"/><rect x="782" y="701" width="10" height="25" fill="#ccf6c8" rx="0" transform="matrix(.99575 .31378 -.12232 .96573 105.498 -83.726)"/><rect x="1090" y="12" width="11" height="20" fill="#FAFCC2" rx="0" transform="matrix(-.82717 .28536 -.61963 -.99517 2048.466 24.82)"/><rect x="1914" y="1340" width="8" height="13" fill="#F9C0C0" rx="0" transform="matrix(.0689 1.0049 -.99272 .0351 3014.29 -426.551)"/><rect x="1630" y="1004" width="8" height="11" fill="#FAFCC2" rx="0" transform="matrix(-.15814 .95762 -.99591 -.29277 2993.586 -174.058)"/><rect x="1198" y="883" width="7" height="19" fill="#F6D6AD" rx="0" transform="matrix(.92286 .39288 -.37116 .92558 518.027 -531.908)"/><rect x="1584" y="505" width="12" height="23" fill="#ccf6c8" rx="0" transform="matrix(.98642 .34286 -.20651 .94199 214.405 -626.36)"/><rect x="708" y="53" width="9" height="14" fill="#ccf6c8" rx="0" transform="matrix(.52987 1.01156 -.94221 .0885 441.243 -540.415)"/><rect x="777" y="697" width="13" height="17" fill="#ccf6c8" rx="0" transform="matrix(-.83534 .43753 -.49418 -.93828 1641.642 1234.592)"/><rect x="1590" y="500" width="13" height="30" fill="#F6D6AD" rx="0" transform="matrix(-.93855 .05418 -.5477 -1.03386 3594.616 1388.716)"/><rect x="672" y="16" width="7" height="10" fill="#F9C0C0" rx="0" transform="matrix(.90522 .56056 -.44189 .83106 78.073 -327.874)"/><rect x="815" y="651" width="10" height="17" fill="#FAFCC2" rx="0" transform="matrix(.79976 1.0042 -.81118 .23184 996.647 -112.391)"/><rect x="1950" y="883" width="9" height="21" fill="#F9C0C0" rx="0" transform="matrix(-.43837 .84497 -.8988 -.54873 3614.369 -27.72)"/><rect x="1511" y="537" width="9" height="13" fill="#F6D6AD" rx="0" transform="matrix(.82848 .43897 -.5794 .90003 526.067 -690.352)"/><rect x="604" y="1186" width="8" height="17" fill="#F9C0C0" rx="0" transform="matrix(-1.02655 -.14283 -.30318 -1.01632 1878.03 2635.7)"/><rect x="450" y="1319" width="13" height="15" fill="#FAFCC2" rx="0" transform="matrix(.32524 .92945 -.9445 .37552 1583.506 372.156)"/><rect x="606" y="65" width="9" height="10" fill="#F6D6AD" rx="0" transform="matrix(.99328 .54154 -.19348 .90128 27.017 -125.338)"/><rect x="1246" y="1092" width="12" height="30" fill="#F6D6AD" rx="0" transform="matrix(-.05224 .99324 -.9957 -.21112 2396.47 317.937)"/><rect x="1380" y="372" width="13" height="17" fill="#F6D6AD" rx="0" transform="matrix(-.03513 .98558 -1.00389 -.30132 1829.867 -525.661)"/><rect x="1393" y="800" width="8" height="10" fill="#F6D6AD" rx="0" transform="matrix(.81798 .82416 -.61906 .59879 865.783 -556.824)"/><rect x="942" y="588" width="9" height="18" fill="#F9C0C0" rx="0" transform="matrix(-.96164 -.16448 .00805 -1.03852 1708.618 1680.216)"/><rect x="101" y="89" width="13" height="29" fill="#F9C0C0" rx="0" transform="matrix(-.98961 .22776 -.1042 -.98652 227.688 164.094)"/><rect x="35" y="200" width="9" height="18" fill="#F6D6AD" rx="0" transform="matrix(-.8499 .39804 -.51005 -.93773 168.315 396.942)"/><rect x="58" y="612" width="13" height="32" fill="#ccf6c8" rx="0" transform="matrix(.9566 .19319 -.25507 .99386 217.032 -18.823)"/><rect x="507" y="487" width="12" height="26" fill="#F6D6AD" rx="0" transform="matrix(.17537 .99708 -.972 .17581 975.357 -180.661)"/><rect x="654" y="1129" width="7" height="8" fill="#ccf6c8" rx="0" transform="matrix(-.6209 .55127 -.82033 -.88222 2110.795 1958.632)"/><rect x="1475" y="490" width="12" height="18" fill="#F6D6AD" rx="0" transform="matrix(.65431 .8851 -.7819 .47062 986.82 -943.115)"/><rect x="303" y="115" width="10" height="17" fill="#FAFCC2" rx="0" transform="matrix(.56751 .90755 -.83723 .4232 259.424 -224.432)"/><rect x="838" y="408" width="9" height="23" fill="#FAFCC2" rx="0" transform="matrix(.89864 .39457 -.41734 .92955 292.117 -421.278)"/><rect x="1160" y="883" width="9" height="14" fill="#F6D6AD" rx="0" transform="matrix(.93542 .32877 -.325 .95481 216.368 -178.972)"/><rect x="204" y="1137" width="13" height="25" fill="#F6D6AD" rx="0" transform="matrix(-.4791 .8271 -.86097 -.60092 1196.555 1710.894)"/><rect x="818" y="972" width="13" height="17" fill="#ccf6c8" rx="0" transform="matrix(.97271 .27835 -.2004 .9707 402.78 -316.652)"/><rect x="207" y="922" width="8" height="23" fill="#FAFCC2" rx="0" transform="matrix(1.01267 .32736 -.1137 .95073 399.58 -45.254)"/><rect x="1083" y="796" width="8" height="22" fill="#FAFCC2" rx="0" transform="matrix(.53771 .96258 -.88469 .27602 1460.15 -519.037)"/><rect x="521" y="596" width="12" height="23" fill="#F6D6AD" rx="0" transform="matrix(.30264 1.0252 -1.01795 -.14408 1117.932 295.959)"/><rect x="699" y="672" width="10" height="25" fill="#F9C0C0" rx="0" transform="matrix(-.05254 .97044 -1.01736 -.24196 1580.255 154.64)"/><rect x="203" y="1345" width="11" height="27" fill="#F6D6AD" rx="0" transform="matrix(-.733 .56952 -.62714 -.877 988.04 2494.891)"/><rect x="1891" y="1242" width="10" height="26" fill="#FAFCC2" rx="0" transform="matrix(.1916 1.0281 -.98606 -.0719 2800.404 -131.333)"/><rect x="605" y="768" width="9" height="19" fill="#FAFCC2" rx="0" transform="matrix(-.65919 .69723 -.72735 -.7477 1465.414 1063.42)"/><rect x="1781" y="843" width="10" height="25" fill="#FAFCC2" rx="0" transform="matrix(1.03827 .22581 .06873 .9781 87.917 -228.3)"/><rect x="1217" y="1124" width="8" height="21" fill="#FAFCC2" rx="0" transform="matrix(-.7229 .54464 -.7229 -.83867 3164.946 1420.967)"/><rect x="1622" y="1328" width="12" height="17" fill="#F9C0C0" rx="0" transform="matrix(-.05194 1.00844 -.99435 .05285 3080.188 -604.681)"/><rect x="167" y="353" width="7" height="7" fill="#FAFCC2" rx="0" transform="matrix(-.21146 .84691 -1.04344 -.55 673.399 432.136)"/><rect x="783" y="173" width="9" height="9" fill="#FAFCC2" rx="0" transform="matrix(-.23911 .97125 -.96553 -.26024 1158.816 -623.933)"/><rect x="1667" y="1306" width="8" height="22" fill="#F9C0C0" rx="0" transform="matrix(.51197 .9512 -.88495 .30906 2278.293 -708.662)"/><rect x="963" y="729" width="11" height="28" fill="#FAFCC2" rx="0" transform="matrix(.04482 1 -1.0055 -.12278 1851.13 -253.188)"/><rect x="1878" y="444" width="12" height="17" fill="#ccf6c8" rx="0" transform="matrix(.77104 .9176 -.73025 .42789 935.16 -1171.49)"/><rect x="1325" y="1053" width="7" height="11" fill="#FAFCC2" rx="0" transform="matrix(.81047 .68962 -.54997 .7659 687.873 -337.121)"/><rect x="1607" y="97" width="11" height="31" fill="#F6D6AD" rx="0" transform="matrix(.76038 .74314 -.66099 .66913 474.566 -1161.098)"/><rect x="538" y="43" width="12" height="28" fill="#F9C0C0" rx="0" transform="matrix(-.86937 .26281 -.56046 -.98083 1070.377 65.86)"/><rect x="564" y="620" width="12" height="33" fill="#FAFCC2" rx="0" transform="matrix(-.30262 .70288 -1.0982 -.75374 1709.6 857.735)"/><rect x="1283" y="1220" width="9" height="18" fill="#F6D6AD" rx="0" transform="matrix(.08843 .99878 -1.00585 -.05234 2600.93 -15.074)"/><rect x="1934" y="1103" width="12" height="23" fill="#F6D6AD" rx="0" transform="matrix(-.96383 .26076 -.23784 -.97318 3884.79 1931.431)"/><rect x="73" y="895" width="8" height="15" fill="#F9C0C0" rx="0" transform="matrix(.69848 .78993 -.72021 .61716 831.397 279.3)"/><rect x="1971" y="377" width="7" height="16" fill="#FAFCC2" rx="0" transform="matrix(1.01255 .12204 .05228 .9939 15.073 -135.137)"/><rect x="902" y="1109" width="8" height="11" fill="#F9C0C0" rx="0" transform="matrix(-.12152 .99004 -.9729 -.30269 1981.657 797.63)"/><rect x="1859" y="1205" width="13" height="37" fill="#F9C0C0" rx="0" transform="matrix(1.00236 .06985 .01852 .99893 131.142 -226.77)"/><rect x="1928" y="760" width="7" height="8" fill="#FAFCC2" rx="0" transform="matrix(-.69554 .44658 -.8132 -.91562 4159.274 976.415)"/><rect x="780" y="1006" width="13" height="13" fill="#F6D6AD" rx="0" transform="matrix(-.41068 .96725 -.92382 -.25917 1942.777 472.952)"/><rect x="731" y="912" width="10" height="15" fill="#F6D6AD" rx="0" transform="matrix(-.99756 -.23523 -.06976 -1.0189 1534.348 2254.517)"/><rect x="279" y="550" width="8" height="19" fill="#F6D6AD" rx="0" transform="matrix(.45334 .92402 -.8898 .39222 642.345 103.312)"/><rect x="151" y="1386" width="13" height="27" fill="#F6D6AD" rx="0" transform="matrix(.47126 .83867 -.88632 .54464 1201.24 505.187)"/><rect x="1845" y="41" width="8" height="21" fill="#F6D6AD" rx="0" transform="matrix(-.77062 .57788 -.6299 -.8253 3272.194 -1201.533)"/><rect x="1182" y="40" width="13" height="35" fill="#FAFCC2" rx="0" transform="matrix(.74781 .71916 -.61612 .74472 268.861 -521.59)"/><rect x="1846" y="1053" width="12" height="24" fill="#FAFCC2" rx="0" transform="matrix(.61493 1.00518 -.81852 .28823 1698.937 -537.353)"/><rect x="586" y="776" width="11" height="28" fill="#F9C0C0" rx="0" transform="matrix(-.45543 .83018 -.89737 -.55996 1703.644 710.32)"/><rect x="1649" y="404" width="11" height="32" fill="#F9C0C0" rx="0" transform="matrix(-.17977 .9063 -1.01955 -.42262 2492.685 -901.987)"/><rect x="1095" y="749" width="9" height="23" fill="#FAFCC2" rx="0" transform="matrix(.20801 .97044 -.9786 .24196 1602.072 -509.704)"/><rect x="1972" y="578" width="10" height="14" fill="#FAFCC2" rx="0" transform="matrix(.71036 .55953 -.73406 .82954 911.07 -1075.52)"/><rect x="748" y="1150" width="10" height="19" fill="#F9C0C0" rx="0" transform="matrix(-.9426 .2443 -.3128 -.97983 2049.428 2005.83)"/><rect x="1360" y="924" width="7" height="8" fill="#ccf6c8" rx="0" transform="matrix(-.63359 .73854 -.76319 -.6887 3078.774 368.486)"/><rect x="669" y="179" width="13" height="19" fill="#FAFCC2" rx="0" transform="matrix(1.05298 .82193 -.36397 .66558 137.813 -259.58)"/><rect x="1180" y="281" width="13" height="30" fill="#ccf6c8" rx="0" transform="matrix(-.6193 .70754 -.79406 -.70754 2196.65 -375.496)"/><rect x="1494" y="789" width="11" height="30" fill="#FAFCC2" rx="0" transform="matrix(-1.03362 .3473 -.03955 -.95419 3005.368 785.995)"/><rect x="1857" y="1158" width="10" height="14" fill="#ccf6c8" rx="0" transform="matrix(.0567 .98223 -1.02912 -.19093 3270.764 -506.498)"/><rect x="1024" y="1250" width="8" height="12" fill="#F9C0C0" rx="0" transform="matrix(-.88687 .66099 -.49267 -.76038 2459.648 1405.318)"/><rect x="1193" y="18" width="9" height="14" fill="#F6D6AD" rx="0" transform="matrix(-.26908 .8656 -.9936 -.5201 1571.73 -830.245)"/><rect x="789" y="1241" width="11" height="32" fill="#ccf6c8" rx="0" transform="matrix(-.8326 .23087 -.72512 -1 2780.502 2514)"/><rect x="123" y="871" width="7" height="14" fill="#F9C0C0" rx="0" transform="matrix(-.95877 -.1099 -.02353 -1.0457 106.378 1851.132)"/><rect x="1857" y="906" width="12" height="31" fill="#FAFCC2" rx="0" transform="matrix(.84333 .62942 -.54735 .77726 905.42 -999.87)"/><rect x="318" y="645" width="12" height="30" fill="#FAFCC2" rx="0" transform="matrix(.7978 .57436 -.60168 .82028 403.397 -50.496)"/><rect x="82" y="1088" width="8" height="17" fill="#ccf6c8" rx="0" transform="matrix(.98043 .13951 -.19164 .99269 76.448 2.035)"/><rect x="378" y="359" width="8" height="19" fill="#ccf6c8" rx="0" transform="matrix(1.14179 .74785 -.19538 .74785 180.306 -61.229)"/><rect x="1568" y="28" width="13" height="31" fill="#FAFCC2" rx="0" transform="matrix(.3205 .9406 -.94013 .36106 1073.265 -1259.843)"/><rect x="1304" y="508" width="7" height="15" fill="#FAFCC2" rx="0" transform="matrix(.59149 1.00975 -.89666 .15993 1179.531 -609.28)"/><rect x="115" y="1109" width="7" height="10" fill="#F9C0C0" rx="0" transform="matrix(-.84067 .6019 -.54578 -.79876 728.474 1934.558)"/><rect x="1726" y="573" width="13" height="37" fill="#FAFCC2" rx="0" transform="matrix(-.91283 .10773 -.59757 -1.02497 3922.625 1443.09)"/><rect x="797" y="1105" width="8" height="12" fill="#ccf6c8" rx="0" transform="matrix(.56243 1.00786 -.92315 .12375 1711.648 307.458)"/><rect x="739" y="1198" width="10" height="26" fill="#FAFCC2" rx="0" transform="matrix(1.12289 .401 .15164 .94472 201.056 -59.638)"/><rect x="220" y="607" width="8" height="15" fill="#ccf6c8" rx="0" transform="matrix(-.83698 .21338 -.7488 -1.00388 1088.085 1235.3)"/><rect x="1461" y="929" width="11" height="28" fill="#FAFCC2" rx="0" transform="matrix(.30578 1.03777 -.94223 .07257 1858.978 -226.802)"/><rect x="491" y="1318" width="8" height="18" fill="#F6D6AD" rx="0" transform="matrix(.01779 .9894 -1.0066 .22842 1778.67 446.85)"/><rect x="822" y="373" width="13" height="22" fill="#F6D6AD" rx="0" transform="matrix(.7479 .95262 -.79222 .32801 670.902 -429.475)"/><rect x="480" y="861" width="7" height="15" fill="#FAFCC2" rx="0" transform="matrix(.23439 1.00975 -.95322 .15993 1078.787 344.156)"/><rect x="468" y="609" width="13" height="37" fill="#F9C0C0" rx="0" transform="matrix(.90633 .69476 -.5008 .71945 536.263 -161.903)"/><rect x="943" y="90" width="13" height="30" fill="#F6D6AD" rx="0" transform="matrix(.15797 .9563 -.9974 .29237 889.475 -833.71)"/><rect x="1436" y="191" width="12" height="25" fill="#FAFCC2" rx="0" transform="matrix(-.54129 .51274 -.97378 -.92502 2595.237 148.883)"/><rect x="936" y="325" width="11" height="13" fill="#F9C0C0" rx="0" transform="matrix(-.1051 .97949 -.9986 -.2082 1391.448 -472.33)"/><rect x="1463" y="153" width="9" height="19" fill="#ccf6c8" rx="0" transform="matrix(.83647 .48666 -.5458 .87796 282.605 -565.955)"/><rect x="264" y="797" width="7" height="14" fill="#ccf6c8" rx="0" transform="matrix(.8393 .63903 -.52843 .78913 684.863 -48.572)"/><rect x="313" y="535" width="11" height="14" fill="#F9C0C0" rx="0" transform="matrix(1.05229 .36637 .01186 .95444 84.425 -24.296)"/><rect x="882" y="1265" width="12" height="19" fill="#F6D6AD" rx="0" transform="matrix(-.30576 .80846 -.98931 -.65468 2581.113 1645.605)"/><rect x="680" y="633" width="12" height="33" fill="#FAFCC2" rx="0" transform="matrix(.50757 .9977 -.93097 .14022 1125.405 -41.767)"/><rect x="1406" y="154" width="8" height="21" fill="#FAFCC2" rx="0" transform="matrix(-.9655 .01791 -.51688 -1.02615 2987.678 633.57)"/><rect x="1433" y="1198" width="9" height="14" fill="#FAFCC2" rx="0" transform="matrix(1.05698 .29237 .03691 .9563 288.534 -367.632)"/><rect x="1130" y="781" width="7" height="16" fill="#F6D6AD" rx="0" transform="matrix(.78715 .66618 -.59558 .76635 607.25 -370.9)"/><rect x="1761" y="971" width="11" height="25" fill="#ccf6c8" rx="0" transform="matrix(.29237 .91521 -.9563 .42677 2190.551 -1301.222)"/><rect x="1974" y="916" width="7" height="13" fill="#FAFCC2" rx="0" transform="matrix(1.11396 .54471 .01812 .90656 157.704 -310.066)"/><rect x="638" y="120" width="10" height="18" fill="#F9C0C0" rx="0" transform="matrix(1.06992 .7257 -.30805 .7257 79.605 -282.797)"/><rect x="687" y="246" width="9" height="17" fill="#ccf6c8" rx="0" transform="matrix(.14827 1.00244 -1.00533 -.05254 900.455 -485.818)"/><rect x="1252" y="770" width="8" height="12" fill="#F6D6AD" rx="0" transform="matrix(.93843 .36189 -.31858 .94276 430.251 -586.631)"/><rect x="1226" y="409" width="7" height="14" fill="#F9C0C0" rx="0" transform="matrix(-.84034 .60932 -.52601 -.8086 2496.992 -191.515)"/><rect x="1519" y="1171" width="10" height="16" fill="#FAFCC2" rx="0" transform="matrix(.38074 1 -.94649 .14054 2206.091 -296.513)"/><rect x="1622" y="131" width="10" height="27" fill="#FAFCC2" rx="0" transform="matrix(-.78429 .25586 -.76277 -1.0262 3163.045 436.72)"/><rect x="1883" y="773" width="8" height="23" fill="#FAFCC2" rx="0" transform="matrix(1.0192 .0872 .18288 .9968 39.98 -227.95)"/><rect x="1890" y="1101" width="11" height="27" fill="#F6D6AD" rx="0" transform="matrix(-.99866 -.07063 -.12243 -1.01 3974.308 2674.233)"/><rect x="949" y="617" width="13" height="21" fill="#FAFCC2" rx="0" transform="matrix(-.45462 .69252 -.95649 -.74264 2159.272 600.282)"/><rect x="1708" y="1119" width="8" height="13" fill="#FAFCC2" rx="0" transform="matrix(-.30248 .84912 -.98125 -.55143 3505.728 563.585)"/><rect x="1208" y="1286" width="11" height="16" fill="#F6D6AD" rx="0" transform="matrix(-.9413 .2758 -.34302 -.96185 2931.19 2161.565)"/><rect x="982" y="374" width="8" height="18" fill="#F9C0C0" rx="0" transform="matrix(.41706 .96886 -.89663 .3148 878.005 -501.203)"/><rect x="1044" y="1310" width="9" height="16" fill="#F6D6AD" rx="0" transform="matrix(-.9848 .12254 -.14 -.99801 2413.874 2394.696)"/><rect x="746" y="566" width="8" height="23" fill="#F9C0C0" rx="0" transform="matrix(-.71599 .48488 -.77067 -.87475 1926.397 705.916)"/><rect x="1948" y="822" width="9" height="9" fill="#F6D6AD" rx="0" transform="matrix(.8492 .80914 -.6189 .58787 1069.079 -1205.144)"/><rect x="1947" y="1385" width="8" height="15" fill="#F9C0C0" rx="0" transform="matrix(-.658 .63716 -.75688 -.78683 4318.43 1554.064)"/><rect x="1249" y="839" width="11" height="30" fill="#FAFCC2" rx="0" transform="matrix(-.88807 .29277 -.51087 -.95762 2967.045 1370.267)"/><rect x="1227" y="621" width="13" height="29" fill="#ccf6c8" rx="0" transform="matrix(.70213 .8322 -.72804 .56133 895.132 -639.831)"/><rect x="418" y="238" width="7" height="8" fill="#F6D6AD" rx="0" transform="matrix(.63604 .85769 -.78375 .51535 383.15 -258.95)"/><rect x="737" y="831" width="7" height="17" fill="#F6D6AD" rx="0" transform="matrix(.25852 .96828 -.96348 .25945 1412.995 -147.105)"/><rect x="515" y="1222" width="8" height="13" fill="#FAFCC2" rx="0" transform="matrix(-1.07708 -.28823 -.28679 -1.00518 1802.018 2771.634)"/><rect x="1008" y="912" width="13" height="37" fill="#FAFCC2" rx="0" transform="matrix(.29726 .99467 -.97411 .10454 1786.539 -158.167)"/><rect x="27" y="296" width="12" height="35" fill="#F6D6AD" rx="0" transform="matrix(.01243 .9573 -1.04888 -.32963 423.368 390.474)"/><rect x="63" y="1148" width="11" height="13" fill="#F6D6AD" rx="0" transform="matrix(1.04057 .29255 -.01466 .95689 388.484 27.341)"/><rect x="136" y="391" width="10" height="12" fill="#F6D6AD" rx="0" transform="matrix(.9229 .52573 -.30362 .9106 84.867 7.18)"/><rect x="285" y="1138" width="8" height="12" fill="#FAFCC2" rx="0" transform="matrix(1.01038 .22619 -.04463 .97974 367.388 -72.563)"/><rect x="11" y="260" width="9" height="24" fill="#F9C0C0" rx="0" transform="matrix(-.76234 .75482 -.66212 -.65616 164.29 439.046)"/><rect x="1752" y="33" width="12" height="18" fill="#FAFCC2" rx="0" transform="matrix(.14696 1.03465 -.96138 .03613 1467.914 -1307.37)"/><rect x="1825" y="558" width="11" height="16" fill="#FAFCC2" rx="0" transform="matrix(1.12003 .81714 -.3168 .6617 359.267 -709.535)"/><rect x="1375" y="1095" width="8" height="23" fill="#FAFCC2" rx="0" transform="matrix(-.70226 .68575 -.70517 -.73538 3262.82 829.606)"/><rect x="504" y="706" width="11" height="24" fill="#FAFCC2" rx="0" transform="matrix(.4777 1.01496 -.90103 .17896 972.138 199.416)"/><rect x="1755" y="684" width="9" height="23" fill="#F9C0C0" rx="0" transform="matrix(-1.01213 -.14343 -.22984 -1.02058 3839.464 2096.38)"/><rect x="1866" y="1149" width="7" height="20" fill="#F6D6AD" rx="0" transform="matrix(-.65616 .76604 -.75482 -.64279 3950.8 471.87)"/><rect x="757" y="1094" width="11" height="15" fill="#F9C0C0" rx="0" transform="matrix(-.53656 .81964 -.81572 -.61765 1867.797 1332.896)"/><rect x="1301" y="561" width="12" height="24" fill="#FAFCC2" rx="0" transform="matrix(.75514 .9657 -.80465 .29525 1041.647 -674.662)"/><rect x="183" y="95" width="9" height="11" fill="#F9C0C0" rx="0" transform="matrix(.1288 1.00536 -.99692 -.01755 283.686 -105.948)"/><rect x="1864" y="710" width="9" height="22" fill="#ccf6c8" rx="0" transform="matrix(-.7463 .47671 -.6941 -.89657 3855.32 806.153)"/><rect x="1442" y="495" width="13" height="20" fill="#F6D6AD" rx="0" transform="matrix(-.58697 .78913 -.79189 -.63903 2751.687 -570.762)"/><rect x="1025" y="571" width="13" height="28" fill="#FAFCC2" rx="0" transform="matrix(.9284 .45572 -.37221 .89441 378.833 -498.554)"/><rect x="1450" y="476" width="13" height="36" fill="#F6D6AD" rx="0" transform="matrix(.76779 .82954 -.6876 .55953 804.963 -1041.501)"/><rect x="1394" y="725" width="8" height="12" fill="#F6D6AD" rx="0" transform="matrix(.71625 .55 -.71528 .84691 882.175 -853.457)"/><rect x="152" y="410" width="9" height="23" fill="#F9C0C0" rx="0" transform="matrix(-.92814 .59102 -.4145 -.81347 433.894 655.435)"/><rect x="1685" y="467" width="8" height="18" fill="#FAFCC2" rx="0" transform="matrix(-.25882 .8868 -.96593 -.55413 2585.926 -241.654)"/><rect x="658" y="188" width="10" height="12" fill="#FAFCC2" rx="0" transform="matrix(-.76604 .62942 -.64279 -.77726 1295.588 -60.941)"/><rect x="1265" y="569" width="10" height="10" fill="#F6D6AD" rx="0" transform="matrix(.45729 .81965 -.89983 .57393 1096.717 -752.041)"/><rect x="1174" y="948" width="8" height="10" fill="#ccf6c8" rx="0" transform="matrix(-.81627 .23402 -.73754 -1.01364 3164.272 1981.11)"/><rect x="1658" y="48" width="12" height="14" fill="#F9C0C0" rx="0" transform="matrix(-.7434 .89395 -.72335 -.47532 2973.839 -1669.948)"/><rect x="1387" y="828" width="9" height="21" fill="#ccf6c8" rx="0" transform="matrix(-.8818 .27602 -.5478 -.96258 3288.266 1334.474)"/><rect x="1598" y="959" width="7" height="9" fill="#F6D6AD" rx="0" transform="matrix(-.8234 .65696 -.57496 -.75575 3308.24 723.471)"/><rect x="1744" y="609" width="12" height="31" fill="#FAFCC2" rx="0" transform="matrix(-1.0297 -.25298 -.17692 -1.01463 3804.816 2235.873)"/><rect x="715" y="1169" width="10" height="11" fill="#FAFCC2" rx="0" transform="matrix(1.10843 .42108 .11476 .94577 179.244 -46.567)"/><rect x="823" y="1006" width="9" height="23" fill="#FAFCC2" rx="0" transform="matrix(-.54376 .83018 -.8378 -.55996 2198.035 856.922)"/><rect x="68" y="451" width="8" height="10" fill="#F9C0C0" rx="0" transform="matrix(-.70499 .51274 -.67846 -.92502 398.517 865.681)"/><rect x="846" y="821" width="12" height="32" fill="#F6D6AD" rx="0" transform="matrix(-.08843 .99878 -1.00585 .05234 1634.324 -42.902)"/><rect x="1194" y="711" width="9" height="26" fill="#F6D6AD" rx="0" transform="matrix(-.07017 .99772 -1.0072 .06977 1925.479 -543.194)"/><rect x="36" y="1024" width="13" height="37" fill="#F9C0C0" rx="0" transform="matrix(.93862 .4518 -.28895 .9263 211.708 68.218)"/><rect x="611" y="147" width="13" height="18" fill="#ccf6c8" rx="0" transform="matrix(1.01596 .49092 -.12625 .9233 33.952 -102.39)"/><rect x="948" y="377" width="7" height="17" fill="#F9C0C0" rx="0" transform="matrix(-.9397 .35842 -.34202 -.93372 1977.466 387.803)"/><rect x="550" y="579" width="12" height="20" fill="#F9C0C0" rx="0" transform="matrix(-.85862 .39073 -.53652 -.9205 1442.694 913.93)"/><rect x="204" y="1343" width="12" height="31" fill="#FAFCC2" rx="0" transform="matrix(.57708 .93486 -.84816 .35886 1627.419 663.662)"/><rect x="1679" y="228" width="7" height="16" fill="#FAFCC2" rx="0" transform="matrix(-.68957 .6887 -.71253 -.73854 2969.53 -511.983)"/><rect x="1977" y="1220" width="8" height="17" fill="#F9C0C0" rx="0" transform="matrix(.33843 1.04155 -.90043 .18365 2148.232 -378.322)"/><rect x="1908" y="505" width="9" height="19" fill="#FAFCC2" rx="0" transform="matrix(.92882 .15885 -.43098 1.00293 339.233 -642.527)"/><rect x="1586" y="590" width="13" height="38" fill="#F6D6AD" rx="0" transform="matrix(.0178 .99635 -1.00522 -.08717 2247.686 -952.393)"/><rect x="492" y="193" width="10" height="20" fill="#F9C0C0" rx="0" transform="matrix(-.61295 .71316 -.7449 -.76477 896.634 155.756)"/><rect x="700" y="459" width="10" height="19" fill="#F6D6AD" rx="0" transform="matrix(.90594 .43864 -.42234 .89934 287.444 -286.7)"/><rect x="1881" y="1081" width="12" height="29" fill="#F6D6AD" rx="0" transform="matrix(.88463 .62931 -.41508 .83513 526.102 -429.981)"/><rect x="635" y="930" width="12" height="29" fill="#F9C0C0" rx="0" transform="matrix(1.05686 .517 -.1753 .86044 435.04 -143.507)"/><rect x="526" y="534" width="7" height="14" fill="#FAFCC2" rx="0" transform="matrix(.9669 .32877 -.23356 .95481 251.595 -224.051)"/><rect x="1096" y="132" width="7" height="19" fill="#F6D6AD" rx="0" transform="matrix(.64564 .67282 -.76924 .74724 497.565 -819.558)"/><rect x="667" y="377" width="7" height="14" fill="#ccf6c8" rx="0" transform="matrix(.58313 .89657 -.80531 .47671 670.008 -518.435)"/><rect x="404" y="102" width="13" height="38" fill="#FAFCC2" rx="0" transform="matrix(-.306 .96848 -.9448 -.2777 656.61 -293.362)"/><rect x="618" y="143" width="7" height="19" fill="#F9C0C0" rx="0" transform="matrix(.99534 .12233 -.06789 .99634 27.039 -129.847)"/><rect x="308" y="212" width="9" height="10" fill="#ccf6c8" rx="0" transform="matrix(.70747 .73147 -.7074 .6821 256.009 -165.054)"/><rect x="1977" y="553" width="11" height="28" fill="#FAFCC2" rx="0" transform="matrix(-.45286 .89441 -.88731 -.45572 3318.616 -774.326)"/></svg>