<svg width="76" height="112" viewBox="0 0 76 112" fill="none" xmlns="http://www.w3.org/2000/svg">
<path d="M35.7099 0.508154C35.3997 1.01796 35.2446 1.09079 34.8568 0.690228C34.1201 0.0711743 32.8017 0.144004 31.2507 0.945133C30.514 1.3457 29.6221 1.6006 29.1956 1.49136C28.265 1.27287 25.2017 3.82191 25.2017 4.84153C25.2017 5.2421 25.0466 5.71549 24.814 5.93398C24.6201 6.11606 24.4262 6.69869 24.4262 7.17209C24.4262 7.6819 24.4262 9.10208 24.4262 10.3402C24.3875 11.724 24.5426 12.6343 24.7752 12.6343C25.0079 12.6343 25.2017 12.3794 25.2017 12.0881C25.2017 11.0321 26.365 9.3934 27.4507 8.88359C28.7691 8.22812 36.7956 6.44379 38.269 6.44379C40.5956 6.44379 42.1078 7.13567 43.3486 8.77435C44.0466 9.64831 44.5894 10.5587 44.5894 10.7772C44.5894 10.9592 44.8221 11.287 45.0935 11.4326C45.9466 11.9424 46.8772 13.6175 46.916 14.71C46.9547 18.2058 47.5364 23.3039 47.8078 22.5392C48.0017 22.1022 48.6996 21.3375 49.3976 20.8277C50.4057 20.0994 50.7935 19.4803 51.1812 17.8417C51.4527 16.6764 51.918 15.4019 52.1894 14.9649C52.6547 14.3094 52.6547 13.9817 52.1506 12.6343C51.8404 11.7604 51.6466 10.7772 51.7629 10.4494C52.2282 9.10208 50.2894 6.84435 47.3037 5.27851C46.1404 4.62304 44.3956 3.56701 43.4649 2.91154C42.5343 2.25607 41.3323 1.70985 40.8282 1.70985C40.2078 1.70985 39.7813 1.45494 39.665 0.981548C39.5486 0.580984 39.1609 0.253249 38.8119 0.216834C38.4629 0.216834 37.7262 0.107589 37.1446 0.0347593C36.4466 -0.0744855 35.9813 0.0711743 35.7099 0.508154Z" fill="white"/>
<path d="M35.7099 0.508154C35.3997 1.01796 35.2446 1.09079 34.8568 0.690228C34.1201 0.0711743 32.8017 0.144004 31.2507 0.945133C30.514 1.3457 29.6221 1.6006 29.1956 1.49136C28.265 1.27287 25.2017 3.82191 25.2017 4.84153C25.2017 5.2421 25.0466 5.71549 24.814 5.93398C24.6201 6.11606 24.4262 6.69869 24.4262 7.17209C24.4262 7.6819 24.4262 9.10208 24.4262 10.3402C24.3875 11.724 24.5426 12.6343 24.7752 12.6343C25.0079 12.6343 25.2017 12.3794 25.2017 12.0881C25.2017 11.0321 26.365 9.3934 27.4507 8.88359C28.7691 8.22812 36.7956 6.44379 38.269 6.44379C40.5956 6.44379 42.1078 7.13567 43.3486 8.77435C44.0466 9.64831 44.5894 10.5587 44.5894 10.7772C44.5894 10.9592 44.8221 11.287 45.0935 11.4326C45.9466 11.9424 46.8772 13.6175 46.916 14.71C46.9547 18.2058 47.5364 23.3039 47.8078 22.5392C48.0017 22.1022 48.6996 21.3375 49.3976 20.8277C50.4057 20.0994 50.7935 19.4803 51.1812 17.8417C51.4527 16.6764 51.918 15.4019 52.1894 14.9649C52.6547 14.3094 52.6547 13.9817 52.1506 12.6343C51.8404 11.7604 51.6466 10.7772 51.7629 10.4494C52.2282 9.10208 50.2894 6.84435 47.3037 5.27851C46.1404 4.62304 44.3956 3.56701 43.4649 2.91154C42.5343 2.25607 41.3323 1.70985 40.8282 1.70985C40.2078 1.70985 39.7813 1.45494 39.665 0.981548C39.5486 0.580984 39.1609 0.253249 38.8119 0.216834C38.4629 0.216834 37.7262 0.107589 37.1446 0.0347593C36.4466 -0.0744855 35.9813 0.0711743 35.7099 0.508154Z" fill="url(#paint0_linear_49_145)"/>
<path d="M24.8906 15.2574C24.3478 15.7672 24.2702 17.0053 24.7743 17.0053C25.007 17.0053 25.0457 17.5515 24.9294 18.207C24.7743 19.2266 24.8906 19.5179 25.6661 19.9913C27.1784 20.9381 28.5743 20.4283 30.1253 18.4255C30.862 17.4423 31.6376 16.6411 31.7927 16.6411C31.9865 16.6411 32.4906 17.151 32.9559 17.7336C33.9253 19.0081 35.6314 19.9185 36.911 19.8821C37.7641 19.8821 37.7641 19.8457 37.0273 19.5544C36.6008 19.3723 36.4845 19.2266 36.7947 19.2266C37.1049 19.1902 37.5314 18.8989 37.8028 18.5711C38.1906 18.0978 38.4232 18.0249 38.811 18.3527C39.5477 18.8989 41.8743 19.3359 41.8743 18.8989C41.8743 18.7168 41.0987 18.2798 40.1294 17.9521C38.5396 17.3694 37.8028 16.6411 38.7722 16.6411C39.6641 16.6411 39.0437 15.9857 37.7253 15.5123C36.0967 14.9296 32.6457 15.1845 32.1804 15.9493C31.9478 16.277 31.4437 16.1678 30.1641 15.5851C28.2641 14.7476 25.6274 14.5655 24.8906 15.2574Z" fill="#FF9F1C"/>
<path d="M24.8906 15.2574C24.3478 15.7672 24.2702 17.0053 24.7743 17.0053C25.007 17.0053 25.0457 17.5515 24.9294 18.207C24.7743 19.2266 24.8906 19.5179 25.6661 19.9913C27.1784 20.9381 28.5743 20.4283 30.1253 18.4255C30.862 17.4423 31.6376 16.6411 31.7927 16.6411C31.9865 16.6411 32.4906 17.151 32.9559 17.7336C33.9253 19.0081 35.6314 19.9185 36.911 19.8821C37.7641 19.8821 37.7641 19.8457 37.0273 19.5544C36.6008 19.3723 36.4845 19.2266 36.7947 19.2266C37.1049 19.1902 37.5314 18.8989 37.8028 18.5711C38.1906 18.0978 38.4232 18.0249 38.811 18.3527C39.5477 18.8989 41.8743 19.3359 41.8743 18.8989C41.8743 18.7168 41.0987 18.2798 40.1294 17.9521C38.5396 17.3694 37.8028 16.6411 38.7722 16.6411C39.6641 16.6411 39.0437 15.9857 37.7253 15.5123C36.0967 14.9296 32.6457 15.1845 32.1804 15.9493C31.9478 16.277 31.4437 16.1678 30.1641 15.5851C28.2641 14.7476 25.6274 14.5655 24.8906 15.2574Z" fill="url(#paint1_linear_49_145)"/>
<path d="M28.1112 24.58C28.305 25.4175 28.1112 25.7453 27.1418 26.4007C26.1336 27.129 25.9785 27.4568 26.0173 28.622C26.0948 29.3503 25.9785 30.1515 25.8234 30.4064C25.3969 31.0618 26.2499 33.1739 27.3356 34.1207C28.3826 35.0675 28.6152 36.3056 27.7622 36.3056C27.452 36.3056 26.8316 36.7426 26.405 37.2524C23.9622 40.1656 27.3356 46.6474 32.3377 48.7231C34.8968 49.7791 38.2315 49.7791 41.1784 48.7231C45.4825 47.1572 49.2437 42.8239 49.2437 39.4009C49.2437 37.7622 48.8172 37.0703 47.2274 36.1235C45.9866 35.3952 45.8703 35.5773 46.8009 36.8882C49.0111 40.0928 44.7458 45.8827 39.2397 47.0844C34.2764 48.1769 29.7397 46.1012 28.2663 42.1684C27.6071 40.3841 29.1581 37.8714 30.0499 39.2188C30.1662 39.4009 30.554 39.5829 30.8642 39.5829C31.1744 39.5829 32.2213 40.0563 33.1907 40.639C35.2846 41.8407 36.254 41.7678 37.0683 40.2748C37.3785 39.6922 37.7662 39.2188 37.9601 39.2188C38.154 39.2188 38.2315 38.9275 38.1152 38.5633C37.9989 38.0899 38.4642 37.6529 40.0152 36.8882C42.0315 35.8686 44.2029 34.2299 44.2029 33.7201C44.2029 33.5016 40.3642 32.8462 39.5499 32.9554C39.4335 32.9554 39.0458 32.8098 38.658 32.5913C38.1927 32.3728 37.7662 32.3728 37.4948 32.5913C37.2234 32.7733 35.5172 33.0283 33.6172 33.1011C30.7091 33.2467 30.0499 33.1739 28.7703 32.482C27.7622 31.9722 27.2969 31.4624 27.2193 30.7341C27.0642 29.6417 28.0336 29.3139 28.4601 30.2971C28.6152 30.6977 29.3132 30.8434 31.2132 30.8434C33.4621 30.8434 33.7336 30.7705 33.7336 30.1151C33.7336 29.4596 33.4621 29.3868 31.6009 29.3868C29.4683 29.3868 28.7703 28.9134 30.2438 28.4764C31.3683 28.1487 35.3234 28.6585 36.3315 29.2411C37.456 29.8966 37.6111 29.8966 37.6111 29.0954C37.6111 28.6949 37.2621 28.1122 36.7968 27.7117C36.1764 27.1654 35.9438 27.129 35.6723 27.5296C35.4397 27.9302 35.0907 27.9302 34.1213 27.6024C33.4234 27.3839 32.2601 27.2019 31.5622 27.2019C30.8642 27.2019 30.0499 27.0926 29.7009 26.9834C28.8091 26.6556 28.9254 26.0002 29.8173 26.2187C30.7479 26.4372 32.1438 25.199 31.3295 24.9077C31.0581 24.7985 31.4071 24.6892 32.105 24.6892C33.4234 24.6528 33.8111 24.0702 32.6866 23.8153C32.2989 23.706 31.0581 23.6332 29.9336 23.6332C27.8785 23.5968 27.8785 23.5968 28.1112 24.58Z" fill="white"/>
<path d="M28.1112 24.58C28.305 25.4175 28.1112 25.7453 27.1418 26.4007C26.1336 27.129 25.9785 27.4568 26.0173 28.622C26.0948 29.3503 25.9785 30.1515 25.8234 30.4064C25.3969 31.0618 26.2499 33.1739 27.3356 34.1207C28.3826 35.0675 28.6152 36.3056 27.7622 36.3056C27.452 36.3056 26.8316 36.7426 26.405 37.2524C23.9622 40.1656 27.3356 46.6474 32.3377 48.7231C34.8968 49.7791 38.2315 49.7791 41.1784 48.7231C45.4825 47.1572 49.2437 42.8239 49.2437 39.4009C49.2437 37.7622 48.8172 37.0703 47.2274 36.1235C45.9866 35.3952 45.8703 35.5773 46.8009 36.8882C49.0111 40.0928 44.7458 45.8827 39.2397 47.0844C34.2764 48.1769 29.7397 46.1012 28.2663 42.1684C27.6071 40.3841 29.1581 37.8714 30.0499 39.2188C30.1662 39.4009 30.554 39.5829 30.8642 39.5829C31.1744 39.5829 32.2213 40.0563 33.1907 40.639C35.2846 41.8407 36.254 41.7678 37.0683 40.2748C37.3785 39.6922 37.7662 39.2188 37.9601 39.2188C38.154 39.2188 38.2315 38.9275 38.1152 38.5633C37.9989 38.0899 38.4642 37.6529 40.0152 36.8882C42.0315 35.8686 44.2029 34.2299 44.2029 33.7201C44.2029 33.5016 40.3642 32.8462 39.5499 32.9554C39.4335 32.9554 39.0458 32.8098 38.658 32.5913C38.1927 32.3728 37.7662 32.3728 37.4948 32.5913C37.2234 32.7733 35.5172 33.0283 33.6172 33.1011C30.7091 33.2467 30.0499 33.1739 28.7703 32.482C27.7622 31.9722 27.2969 31.4624 27.2193 30.7341C27.0642 29.6417 28.0336 29.3139 28.4601 30.2971C28.6152 30.6977 29.3132 30.8434 31.2132 30.8434C33.4621 30.8434 33.7336 30.7705 33.7336 30.1151C33.7336 29.4596 33.4621 29.3868 31.6009 29.3868C29.4683 29.3868 28.7703 28.9134 30.2438 28.4764C31.3683 28.1487 35.3234 28.6585 36.3315 29.2411C37.456 29.8966 37.6111 29.8966 37.6111 29.0954C37.6111 28.6949 37.2621 28.1122 36.7968 27.7117C36.1764 27.1654 35.9438 27.129 35.6723 27.5296C35.4397 27.9302 35.0907 27.9302 34.1213 27.6024C33.4234 27.3839 32.2601 27.2019 31.5622 27.2019C30.8642 27.2019 30.0499 27.0926 29.7009 26.9834C28.8091 26.6556 28.9254 26.0002 29.8173 26.2187C30.7479 26.4372 32.1438 25.199 31.3295 24.9077C31.0581 24.7985 31.4071 24.6892 32.105 24.6892C33.4234 24.6528 33.8111 24.0702 32.6866 23.8153C32.2989 23.706 31.0581 23.6332 29.9336 23.6332C27.8785 23.5968 27.8785 23.5968 28.1112 24.58Z" fill="url(#paint2_linear_49_145)"/>
<path d="M63.3204 50.1419C62.2347 52.254 61.1102 54.6938 60.8776 55.5678C60.6449 56.4781 59.9469 58.044 59.3265 59.1C58.7449 60.1561 58.1245 61.8676 57.9694 62.8872C57.8143 63.8704 57.5429 64.7808 57.3878 64.8901C57.1939 64.9993 57.1551 65.9461 57.2714 67.0021C57.8143 71.372 57.4653 74.5401 56.4571 74.5401C56.1469 74.5401 55.798 74.795 55.6816 75.1227C55.3714 75.851 56.5347 77.1984 57.2714 76.9435C58.0082 76.6522 57.9306 79.3833 57.1551 80.8399L56.4959 82.0052L57.349 81.3133C58.2796 80.5122 58.2796 80.4758 57.7367 82.9156C57.3102 84.7727 57.3102 84.7727 55.9143 84.6635C54.2082 84.5178 53.898 85.1733 54.8286 86.8848C55.6429 88.3414 55.6041 89.179 54.6735 91.109C53.7429 93.039 52.1918 94.8233 50.602 95.6973C49.9816 96.0979 49.6714 96.3892 49.9429 96.3892C50.2918 96.3892 50.3694 96.6441 50.1755 97.1903C49.9429 97.8822 50.0592 97.8458 50.9898 96.9354C51.7653 96.0979 51.9592 96.025 51.7653 96.5713C51.6102 96.9718 51.4551 97.7365 51.4163 98.2828C51.3 99.4845 50.098 100.759 47.4612 102.398C46.1041 103.272 45.2122 103.563 44.5531 103.454C43.8939 103.308 43.7776 103.344 44.1265 103.599C45.2122 104.291 36.3714 104.692 33.7347 104.036C32.998 103.854 31.2531 103.454 29.8571 103.126C26.7163 102.398 24.6224 101.305 23.3041 99.6666L22.2959 98.4284L23.5367 99.2296C24.7388 100.031 27.6082 101.123 28.4612 101.123C28.6939 101.123 27.8408 100.613 26.5612 99.9943C23.3041 98.4649 21.2102 96.025 23.5755 96.5348C24.3898 96.7169 24.2735 96.5713 22.8388 95.6973C21.0939 94.6413 20.1245 93.4396 20.9 93.1847C21.0939 93.1118 20.551 91.9829 19.698 90.7084C18.3796 88.7784 18.1857 88.2686 18.651 87.9773C19.0776 87.7588 19.0776 87.6495 18.6898 87.6495C18.4184 87.6495 17.9531 87.1033 17.6429 86.4478L17.1 85.2826L17.0612 86.6299C17.0612 88.7056 16.402 88.305 15.5102 85.6103C14.4633 82.4058 14.5408 80.0024 15.7816 77.0891C16.0531 76.4337 16.5959 78.4729 16.9837 81.7867C17.2163 83.8259 17.3714 84.1173 18.1469 84.2265C19 84.3722 19 84.3358 18.4184 83.0612C17.8367 81.7139 17.6041 80.0388 18.1082 80.4758C18.2245 80.6214 18.5735 80.4393 18.8449 80.1116C19.2327 79.5654 19.1551 79.3105 18.3796 78.4365C17.3327 77.2712 17.2163 76.3608 17.9143 75.1591C18.1469 74.7222 18.3796 73.1563 18.4184 71.6997C18.4184 69.5148 18.3408 69.1506 17.9531 69.6604C17.0612 70.8257 16.6347 68.7136 17.0612 64.9993C17.2551 63.1421 17.3327 61.5763 17.2551 61.467C17.1388 61.3942 17.0612 61.6127 17.0612 62.0133C17.0224 62.6687 17.0224 62.6687 16.5959 61.9768C16.3633 61.5763 15.8204 60.9572 15.4327 60.5566C14.7347 59.8283 14.3857 59.0636 12.6796 54.1476C12.1755 52.6546 11.3612 50.5789 10.9347 49.5957C10.4694 48.5761 10.0041 47.4472 9.88776 47.0466C9.61633 46.3547 9.57755 46.3547 8.99592 47.1923C8.18163 48.3211 6.55306 51.8534 4.84694 56.1504C2.83061 61.2485 0.77551 65.9461 0.34898 66.3467C0.155102 66.5287 0 67.1114 0 67.6576C0 68.7501 1.5898 70.1338 3.56735 70.8621L4.61429 71.2263L4.38163 77.9267C4.22653 82.5514 4.30408 85.3554 4.61429 86.9212C5.11837 89.3246 8.29796 97.5545 9.15102 98.7562C10.3143 100.322 9.69388 101.56 4.65306 107.678C3.60612 108.989 2.71429 110.154 2.71429 110.263C2.71429 110.373 3.72245 110.773 4.96327 111.137C8.25918 112.084 16.5571 112.303 19.7755 111.538C21.1327 111.21 22.3347 110.846 22.451 110.773C22.5286 110.664 22.102 110.045 21.4429 109.389C20.7837 108.77 20.1633 107.787 20.0082 107.204C19.8918 106.658 19.6204 106.221 19.4265 106.221C18.9224 106.221 16.2857 102.398 16.2857 101.706C16.2857 101.342 16.0531 101.232 15.7041 101.342C15.3551 101.487 15.1224 101.342 15.1224 100.978C15.1224 100.65 14.3082 99.6301 13.3388 98.7198C11.5939 97.0447 10.6633 95.5516 10.8184 94.6413C10.8571 94.4228 10.702 94.2043 10.4694 94.2043C10.2755 94.2043 10.0816 93.8765 10.0816 93.5124C10.0816 93.1118 9.88776 92.7477 9.61633 92.6748C9.38367 92.602 9.03469 91.4003 8.87959 90.0529C8.68571 88.6692 8.37551 87.3946 8.18163 87.1397C7.98776 86.9212 7.79388 86.5571 7.7551 86.375C7.56122 85.6467 7.21225 84.9184 6.94082 84.7363C6.78571 84.6271 6.86327 83.8259 7.13469 82.9156C7.98776 80.0388 8.49184 79.3105 9.57755 79.2741C10.1592 79.2741 11.2449 81.1312 11.2449 82.078C11.2449 82.4058 12.0204 83.4618 12.951 84.3722C14.5408 85.8652 15.898 88.0865 17.6429 91.8373C17.9918 92.6384 19.3878 95.406 20.7061 98.0279C22.0633 100.613 23.5367 103.745 24.002 104.983C24.4673 106.221 25.398 107.787 26.0184 108.515L27.1429 109.79L31.5245 108.588C39.0082 106.476 45.0184 104.401 49.5551 102.325C53.5102 100.541 53.898 100.286 53.6653 99.5209C53.549 98.9747 53.7041 98.4649 54.0918 98.0643C54.4408 97.7365 54.7898 97.1175 54.8286 96.6805C54.8673 96.2071 55.1776 95.3331 55.5265 94.7505C56.1469 93.6216 56.8061 91.8009 58.1633 87.3582C58.6286 85.938 59.1327 84.7363 59.2878 84.7363C59.4429 84.7363 60.4898 83.8988 61.5755 82.9156C62.7 81.8959 63.7469 81.0948 63.902 81.0948C64.6 81.0948 65.4531 79.7839 65.5694 78.5457C65.7245 76.1788 65.6082 76.0331 63.7857 75.5961C60.9939 74.9406 60.8776 74.3944 63.3204 73.3384C66.0735 72.1731 74.0225 67.7669 75.1469 66.7836C75.6122 66.3831 76 65.8368 76 65.5819C76 64.9629 70.1449 53.5649 68.1286 50.324C65.298 45.6993 65.6469 45.7357 63.3204 50.1419ZM14.8898 72.9378C15.0061 73.2291 14.851 74.0303 14.5796 74.7222C13.6878 76.725 11.5163 77.344 10.0816 75.9967C9.6551 75.5961 9.30612 75.1227 9.30612 74.9771C9.30612 74.1759 10.4694 73.3748 12.2143 72.9014C14.7347 72.2823 14.6184 72.2823 14.8898 72.9378ZM50.951 100.905C50.5633 101.196 50.1367 101.342 50.0592 101.269C49.9429 101.196 50.2143 100.868 50.6408 100.613C51.0286 100.322 51.4551 100.176 51.5327 100.249C51.649 100.322 51.3776 100.65 50.951 100.905Z" fill="white"/>
<path d="M63.3204 50.1419C62.2347 52.254 61.1102 54.6938 60.8776 55.5678C60.6449 56.4781 59.9469 58.044 59.3265 59.1C58.7449 60.1561 58.1245 61.8676 57.9694 62.8872C57.8143 63.8704 57.5429 64.7808 57.3878 64.8901C57.1939 64.9993 57.1551 65.9461 57.2714 67.0021C57.8143 71.372 57.4653 74.5401 56.4571 74.5401C56.1469 74.5401 55.798 74.795 55.6816 75.1227C55.3714 75.851 56.5347 77.1984 57.2714 76.9435C58.0082 76.6522 57.9306 79.3833 57.1551 80.8399L56.4959 82.0052L57.349 81.3133C58.2796 80.5122 58.2796 80.4758 57.7367 82.9156C57.3102 84.7727 57.3102 84.7727 55.9143 84.6635C54.2082 84.5178 53.898 85.1733 54.8286 86.8848C55.6429 88.3414 55.6041 89.179 54.6735 91.109C53.7429 93.039 52.1918 94.8233 50.602 95.6973C49.9816 96.0979 49.6714 96.3892 49.9429 96.3892C50.2918 96.3892 50.3694 96.6441 50.1755 97.1903C49.9429 97.8822 50.0592 97.8458 50.9898 96.9354C51.7653 96.0979 51.9592 96.025 51.7653 96.5713C51.6102 96.9718 51.4551 97.7365 51.4163 98.2828C51.3 99.4845 50.098 100.759 47.4612 102.398C46.1041 103.272 45.2122 103.563 44.5531 103.454C43.8939 103.308 43.7776 103.344 44.1265 103.599C45.2122 104.291 36.3714 104.692 33.7347 104.036C32.998 103.854 31.2531 103.454 29.8571 103.126C26.7163 102.398 24.6224 101.305 23.3041 99.6666L22.2959 98.4284L23.5367 99.2296C24.7388 100.031 27.6082 101.123 28.4612 101.123C28.6939 101.123 27.8408 100.613 26.5612 99.9943C23.3041 98.4649 21.2102 96.025 23.5755 96.5348C24.3898 96.7169 24.2735 96.5713 22.8388 95.6973C21.0939 94.6413 20.1245 93.4396 20.9 93.1847C21.0939 93.1118 20.551 91.9829 19.698 90.7084C18.3796 88.7784 18.1857 88.2686 18.651 87.9773C19.0776 87.7588 19.0776 87.6495 18.6898 87.6495C18.4184 87.6495 17.9531 87.1033 17.6429 86.4478L17.1 85.2826L17.0612 86.6299C17.0612 88.7056 16.402 88.305 15.5102 85.6103C14.4633 82.4058 14.5408 80.0024 15.7816 77.0891C16.0531 76.4337 16.5959 78.4729 16.9837 81.7867C17.2163 83.8259 17.3714 84.1173 18.1469 84.2265C19 84.3722 19 84.3358 18.4184 83.0612C17.8367 81.7139 17.6041 80.0388 18.1082 80.4758C18.2245 80.6214 18.5735 80.4393 18.8449 80.1116C19.2327 79.5654 19.1551 79.3105 18.3796 78.4365C17.3327 77.2712 17.2163 76.3608 17.9143 75.1591C18.1469 74.7222 18.3796 73.1563 18.4184 71.6997C18.4184 69.5148 18.3408 69.1506 17.9531 69.6604C17.0612 70.8257 16.6347 68.7136 17.0612 64.9993C17.2551 63.1421 17.3327 61.5763 17.2551 61.467C17.1388 61.3942 17.0612 61.6127 17.0612 62.0133C17.0224 62.6687 17.0224 62.6687 16.5959 61.9768C16.3633 61.5763 15.8204 60.9572 15.4327 60.5566C14.7347 59.8283 14.3857 59.0636 12.6796 54.1476C12.1755 52.6546 11.3612 50.5789 10.9347 49.5957C10.4694 48.5761 10.0041 47.4472 9.88776 47.0466C9.61633 46.3547 9.57755 46.3547 8.99592 47.1923C8.18163 48.3211 6.55306 51.8534 4.84694 56.1504C2.83061 61.2485 0.77551 65.9461 0.34898 66.3467C0.155102 66.5287 0 67.1114 0 67.6576C0 68.7501 1.5898 70.1338 3.56735 70.8621L4.61429 71.2263L4.38163 77.9267C4.22653 82.5514 4.30408 85.3554 4.61429 86.9212C5.11837 89.3246 8.29796 97.5545 9.15102 98.7562C10.3143 100.322 9.69388 101.56 4.65306 107.678C3.60612 108.989 2.71429 110.154 2.71429 110.263C2.71429 110.373 3.72245 110.773 4.96327 111.137C8.25918 112.084 16.5571 112.303 19.7755 111.538C21.1327 111.21 22.3347 110.846 22.451 110.773C22.5286 110.664 22.102 110.045 21.4429 109.389C20.7837 108.77 20.1633 107.787 20.0082 107.204C19.8918 106.658 19.6204 106.221 19.4265 106.221C18.9224 106.221 16.2857 102.398 16.2857 101.706C16.2857 101.342 16.0531 101.232 15.7041 101.342C15.3551 101.487 15.1224 101.342 15.1224 100.978C15.1224 100.65 14.3082 99.6301 13.3388 98.7198C11.5939 97.0447 10.6633 95.5516 10.8184 94.6413C10.8571 94.4228 10.702 94.2043 10.4694 94.2043C10.2755 94.2043 10.0816 93.8765 10.0816 93.5124C10.0816 93.1118 9.88776 92.7477 9.61633 92.6748C9.38367 92.602 9.03469 91.4003 8.87959 90.0529C8.68571 88.6692 8.37551 87.3946 8.18163 87.1397C7.98776 86.9212 7.79388 86.5571 7.7551 86.375C7.56122 85.6467 7.21225 84.9184 6.94082 84.7363C6.78571 84.6271 6.86327 83.8259 7.13469 82.9156C7.98776 80.0388 8.49184 79.3105 9.57755 79.2741C10.1592 79.2741 11.2449 81.1312 11.2449 82.078C11.2449 82.4058 12.0204 83.4618 12.951 84.3722C14.5408 85.8652 15.898 88.0865 17.6429 91.8373C17.9918 92.6384 19.3878 95.406 20.7061 98.0279C22.0633 100.613 23.5367 103.745 24.002 104.983C24.4673 106.221 25.398 107.787 26.0184 108.515L27.1429 109.79L31.5245 108.588C39.0082 106.476 45.0184 104.401 49.5551 102.325C53.5102 100.541 53.898 100.286 53.6653 99.5209C53.549 98.9747 53.7041 98.4649 54.0918 98.0643C54.4408 97.7365 54.7898 97.1175 54.8286 96.6805C54.8673 96.2071 55.1776 95.3331 55.5265 94.7505C56.1469 93.6216 56.8061 91.8009 58.1633 87.3582C58.6286 85.938 59.1327 84.7363 59.2878 84.7363C59.4429 84.7363 60.4898 83.8988 61.5755 82.9156C62.7 81.8959 63.7469 81.0948 63.902 81.0948C64.6 81.0948 65.4531 79.7839 65.5694 78.5457C65.7245 76.1788 65.6082 76.0331 63.7857 75.5961C60.9939 74.9406 60.8776 74.3944 63.3204 73.3384C66.0735 72.1731 74.0225 67.7669 75.1469 66.7836C75.6122 66.3831 76 65.8368 76 65.5819C76 64.9629 70.1449 53.5649 68.1286 50.324C65.298 45.6993 65.6469 45.7357 63.3204 50.1419ZM14.8898 72.9378C15.0061 73.2291 14.851 74.0303 14.5796 74.7222C13.6878 76.725 11.5163 77.344 10.0816 75.9967C9.6551 75.5961 9.30612 75.1227 9.30612 74.9771C9.30612 74.1759 10.4694 73.3748 12.2143 72.9014C14.7347 72.2823 14.6184 72.2823 14.8898 72.9378ZM50.951 100.905C50.5633 101.196 50.1367 101.342 50.0592 101.269C49.9429 101.196 50.2143 100.868 50.6408 100.613C51.0286 100.322 51.4551 100.176 51.5327 100.249C51.649 100.322 51.3776 100.65 50.951 100.905Z" fill="url(#paint3_linear_49_145)"/>
<defs>
<linearGradient id="paint0_linear_49_145" x1="38.477" y1="22.6162" x2="43.2267" y2="19.8673" gradientUnits="userSpaceOnUse">
<stop offset="0.9999" stop-color="white"/>
<stop offset="1" stop-opacity="0"/>
</linearGradient>
<linearGradient id="paint1_linear_49_145" x1="33.1554" y1="20.4517" x2="34.4293" y2="18.6112" gradientUnits="userSpaceOnUse">
<stop offset="0.9999" stop-color="#FF9F1C"/>
<stop offset="1" stop-opacity="0"/>
</linearGradient>
<linearGradient id="paint2_linear_49_145" x1="37.4176" y1="49.5151" x2="41.935" y2="47.5939" gradientUnits="userSpaceOnUse">
<stop offset="0.9999" stop-color="white"/>
<stop offset="1" stop-opacity="0"/>
</linearGradient>
<linearGradient id="paint3_linear_49_145" x1="38" y1="112" x2="51.2644" y2="104.83" gradientUnits="userSpaceOnUse">
<stop offset="0.9999" stop-color="white"/>
<stop offset="1" stop-opacity="0"/>
</linearGradient>
</defs>
</svg>
