<?xml version="1.0" encoding="utf-8"?>
<!-- Generator: Adobe Illustrator 23.0.3, SVG Export Plug-In . SVG Version: 6.00 Build 0)  -->
<svg version="1.1" id="Layer_1" xmlns="http://www.w3.org/2000/svg" xmlns:xlink="http://www.w3.org/1999/xlink" x="0px" y="0px"
	 viewBox="0 0 512 512" style="enable-background:new 0 0 512 512;" xml:space="preserve">
<style type="text/css">
	.st0{fill:#00C8FF;}
	.st1{fill:#001D26;}
	.st2{opacity:6.000000e-02;}
	.st3{fill:#17292D;}
</style>
<title>ps-flat</title>
<path class="st0" d="M460.8,153.6V448c0,35.3-28.7,64-64,64H115.2c-35.3,0-64-28.7-64-64V64c0-35.3,28.7-64,64-64h192.1l33.4,33.4
	L460.8,153.6z"/>
<path class="st1" d="M460.8,153.6h-89.6c-35.3,0-64-28.7-64-64V0h0.1L460.8,153.6z"/>
<g class="st2">
	<path class="st3" d="M371.2,153.6c-35.3,0-64-28.7-64-64v25.6c0,35.3,28.7,64,64,64l0,0h89.6v-25.6H371.2z"/>
</g>
<g id="_Group_">
	<g>
		<g id="_Group_2_8_">
			<path class="st1" d="M179.2,270.7c0-1,0.2-1.5,1.1-1.5c7.3-0.2,21.7-0.4,36.3-0.4c37.6,0,52,20.7,52.2,45.1
				c0,33.5-26.4,46.2-54.7,46.2h-11.9v47.8c0,1.3-0.4,1.7-1.3,1.7h-20.4c-1,0-1.3-0.4-1.3-1.5V270.7z M202.2,339.7
				c1.5,0.2,4.4,0.4,12.5,0.4c15.2,0,29.8-4.1,29.8-25.1c0-16.9-9.8-25.5-27.8-25.5c-7.5,0-12.9,0.2-14.4,0.4V339.7z"/>
		</g>
	</g>
</g>
<g id="_Group_3">
	<g>
		<g id="_Group_4_8_">
			<path class="st1" d="M314.4,325.6c-8.8,0-11.2,5.2-11.2,9c0,4.8,2.3,7.4,15.9,13.4c18.6,8.4,26.5,15.8,26.5,30.2
				c0,20-13.9,31.4-33.7,31.4c-9.6,0-21.6-0.9-29.2-6.1c-0.7-0.4-1.2-1.2-1.1-2v-18.4c0-1,0.7-1.4,1.3-1c9.4,6.6,19.8,8.5,29.2,8.5
				c8.3,0,11.2-5.2,11.2-9.6c0-5.2-2-8.2-15-14c-18.6-8.4-26.3-15.6-26.3-30.2c0-16.2,13-29.6,34.2-29.6c11,0,18.8,0.3,23.8,3.5
				c0.8,0.6,1.2,1.6,1.1,2.6v16.4c0,1.2-0.7,1.8-1.6,1.2C333,326.9,323.8,325.6,314.4,325.6z"/>
		</g>
	</g>
</g>
</svg>
