<svg width="32" height="29" viewBox="0 0 32 29" fill="none" xmlns="http://www.w3.org/2000/svg">
<path d="M10.1582 17.2598C12.748 19.252 14.1953 20.4004 14.5 20.7051L15.1328 21.3555C15.4961 21.6953 15.8008 21.8652 16.0469 21.8652C16.293 21.8652 16.5098 21.8066 16.6973 21.6895C16.8848 21.5605 17.1074 21.3613 17.3652 21.0918C17.6348 20.8105 17.9336 20.5352 18.2617 20.2656L22.1816 17.2422L17.3828 6.88867C17.0664 6.19727 16.8145 5.67578 16.627 5.32422C16.4512 4.97266 16.2871 4.79688 16.1348 4.79688C15.9941 4.79688 15.8477 4.92578 15.6953 5.18359C15.5547 5.42969 15.3672 5.81641 15.1328 6.34375L10.1582 17.2598ZM4.11133 27.8594L1.50977 28C0.595703 28 0.138672 27.6309 0.138672 26.8926C0.138672 26.4121 0.519531 25.8789 1.28125 25.293C2.64062 24.2148 3.90625 22.5391 5.07812 20.2656L11.1953 7.96094L13.375 3.33789C13.8906 2.20117 14.3301 1.41602 14.6934 0.982422C15.0684 0.537109 15.543 0.314453 16.1172 0.314453C16.6914 0.314453 17.1719 0.507812 17.5586 0.894531C17.957 1.28125 18.4316 2.06641 18.9824 3.25L22.832 11.4766C26.125 18.0156 27.877 21.4785 28.0879 21.8652L28.7383 23.043C29.2539 23.9453 29.6113 24.4902 29.8105 24.6777C30.0098 24.8652 30.2148 25.0234 30.4258 25.1523C31.3516 25.7031 31.8145 26.1953 31.8145 26.6289C31.8145 27.543 31.3574 28 30.4434 28L27.7891 27.877L24.2207 28C23.623 28 23.1543 27.8828 22.8145 27.6484C22.4746 27.4141 22.3047 27.0625 22.3047 26.5938C22.3047 25.6328 23.3711 25.1523 25.5039 25.1523C25.6328 25.1523 25.7617 25.1523 25.8906 25.1523C26.0195 25.1523 26.1484 25.1465 26.2773 25.1348C25.9609 24.6777 25.6328 24.0977 25.293 23.3945L23.5 19.7383L20.1953 22.3047C19.1172 23.1367 18.3145 23.875 17.7871 24.5195C17.2598 25.1523 16.7793 25.4688 16.3457 25.4688C15.9121 25.4688 15.5664 25.3633 15.3086 25.1523C15.0625 24.9414 14.8398 24.7188 14.6406 24.4844L13.9023 23.6406C13.6914 23.3945 13.4102 23.1309 13.0586 22.8496L10.3516 20.8281C9.80078 20.4297 9.23828 20.002 8.66406 19.5449L6.08008 25.2402H6.60742C7.75586 25.2402 8.58789 25.3457 9.10352 25.5566C9.61914 25.7559 9.87695 26.1426 9.87695 26.7168C9.87695 27.584 9.2793 28.0176 8.08398 28.0176L4.11133 27.8594Z" fill="#4F709C"/>
<path d="M10.1582 17.2598L9.24824 16.8451L8.91879 17.568L9.54849 18.0524L10.1582 17.2598ZM14.5 20.7051L15.2168 20.0077L15.2071 19.998L14.5 20.7051ZM15.1328 21.3555L14.4161 22.0528L14.4325 22.0697L14.4497 22.0857L15.1328 21.3555ZM16.6973 21.6895L17.2273 22.5375L17.2458 22.5259L17.2638 22.5135L16.6973 21.6895ZM17.3652 21.0918L16.6432 20.3999L16.6426 20.4006L17.3652 21.0918ZM18.2617 20.2656L17.651 19.4738L17.6388 19.4832L17.627 19.4929L18.2617 20.2656ZM22.1816 17.2422L22.7924 18.034L23.4248 17.5463L23.0889 16.8217L22.1816 17.2422ZM17.3828 6.88867L16.4735 7.3048L16.4755 7.30919L17.3828 6.88867ZM16.627 5.32422L15.7325 5.77143L15.7384 5.7832L15.7446 5.79481L16.627 5.32422ZM15.6953 5.18359L14.8344 4.67486L14.8307 4.68113L14.8271 4.68745L15.6953 5.18359ZM15.1328 6.34375L16.0428 6.75845L16.0466 6.74989L15.1328 6.34375ZM4.11133 27.8594L4.15112 26.8602L4.10422 26.8583L4.05735 26.8608L4.11133 27.8594ZM1.50977 28V29H1.53677L1.56374 28.9985L1.50977 28ZM1.28125 25.293L1.89096 26.0856L1.89684 26.0811L1.90264 26.0765L1.28125 25.293ZM5.07812 20.2656L5.96699 20.7238L5.97033 20.7173L5.97357 20.7108L5.07812 20.2656ZM11.1953 7.96094L12.0908 8.4061L12.0954 8.3968L12.0998 8.3874L11.1953 7.96094ZM13.375 3.33789L14.2795 3.76435L14.2826 3.75769L14.2857 3.75099L13.375 3.33789ZM14.6934 0.982422L13.9284 0.338284L13.9268 0.340202L14.6934 0.982422ZM17.5586 0.894531L16.8515 1.60164L16.8568 1.60691L16.8621 1.61211L17.5586 0.894531ZM18.9824 3.25L18.0758 3.6719L18.0767 3.67384L18.9824 3.25ZM22.832 11.4766L21.9263 11.9004L21.9324 11.9135L21.9389 11.9263L22.832 11.4766ZM28.0879 21.8652L27.21 22.3441L27.2125 22.3487L28.0879 21.8652ZM28.7383 23.043L27.8629 23.5264L27.8664 23.5328L27.87 23.5391L28.7383 23.043ZM30.4258 25.1523L29.9043 26.0057L29.9145 26.0118L30.4258 25.1523ZM30.4434 28L30.3971 28.9989L30.4202 29H30.4434V28ZM27.7891 27.877L27.8354 26.878L27.795 26.8762L27.7546 26.8775L27.7891 27.877ZM24.2207 28V29H24.2379L24.2552 28.9994L24.2207 28ZM26.2773 25.1348L26.3679 26.1307L28.0756 25.9754L27.0995 24.5656L26.2773 25.1348ZM25.293 23.3945L26.1933 22.9594L26.1908 22.9542L25.293 23.3945ZM23.5 19.7383L24.3979 19.298L23.8569 18.1949L22.8866 18.9485L23.5 19.7383ZM20.1953 22.3047L20.8063 23.0964L20.8087 23.0945L20.1953 22.3047ZM17.7871 24.5195L18.5554 25.1597L18.5611 25.1528L17.7871 24.5195ZM15.3086 25.1523L14.6578 25.9116L14.6665 25.9191L14.6754 25.9263L15.3086 25.1523ZM14.6406 24.4844L15.4026 23.8367L15.3979 23.8313L15.3932 23.8259L14.6406 24.4844ZM13.9023 23.6406L13.143 24.2915L13.1498 24.2991L13.9023 23.6406ZM13.0586 22.8496L13.6833 22.0687L13.6703 22.0583L13.6569 22.0484L13.0586 22.8496ZM10.3516 20.8281L10.9499 20.0269L10.9438 20.0223L10.9377 20.0179L10.3516 20.8281ZM8.66406 19.5449L9.28681 18.7625L8.28331 17.9638L7.75341 19.1318L8.66406 19.5449ZM6.08008 25.2402L5.16942 24.8271L4.52826 26.2402H6.08008V25.2402ZM9.10352 25.5566L8.72488 26.4822L8.73396 26.4859L8.74312 26.4894L9.10352 25.5566ZM8.08398 28.0176L8.04419 29.0168L8.06408 29.0176H8.08398V28.0176ZM9.54849 18.0524C10.8419 19.0474 11.8466 19.829 12.5644 20.3986C13.307 20.9878 13.6908 21.3101 13.7929 21.4122L15.2071 19.998C15.0045 19.7954 14.5123 19.3911 13.8076 18.8319C13.0782 18.2531 12.0643 17.4644 10.7679 16.4671L9.54849 18.0524ZM13.7833 21.4024L14.4161 22.0528L15.8495 20.6581L15.2167 20.0077L13.7833 21.4024ZM14.4497 22.0857C14.8364 22.4475 15.3894 22.8652 16.0469 22.8652V20.8652C16.1508 20.8652 16.1829 20.8991 16.1209 20.8644C16.0624 20.8318 15.9612 20.7611 15.816 20.6252L14.4497 22.0857ZM16.0469 22.8652C16.4585 22.8652 16.8633 22.7649 17.2273 22.5375L16.1673 20.8415C16.1563 20.8483 16.1274 20.8652 16.0469 20.8652V22.8652ZM17.2638 22.5135C17.532 22.3291 17.8086 22.075 18.0879 21.783L16.6426 20.4006C16.4062 20.6477 16.2376 20.792 16.1307 20.8654L17.2638 22.5135ZM18.0872 21.7837C18.327 21.5335 18.5963 21.2849 18.8965 21.0384L17.627 19.4929C17.2709 19.7854 16.9426 20.0876 16.6432 20.3999L18.0872 21.7837ZM18.8725 21.0575L22.7924 18.034L21.5709 16.4504L17.651 19.4738L18.8725 21.0575ZM23.0889 16.8217L18.2901 6.46815L16.4755 7.30919L21.2744 17.6627L23.0889 16.8217ZM18.2921 6.47255C17.9734 5.77603 17.7114 5.2325 17.5093 4.85363L15.7446 5.79481C15.9175 6.11906 16.1594 6.6185 16.4735 7.3048L18.2921 6.47255ZM17.5214 4.87701C17.4141 4.66244 17.2788 4.43458 17.1031 4.24639C16.939 4.07051 16.6134 3.79688 16.1348 3.79688V5.79688C15.9736 5.79688 15.8466 5.74903 15.7656 5.70399C15.6894 5.66168 15.6493 5.61996 15.641 5.61103C15.6294 5.59863 15.664 5.63444 15.7325 5.77143L17.5214 4.87701ZM16.1348 3.79688C15.7412 3.79688 15.4439 3.97995 15.2588 4.14284C15.0761 4.30365 14.9387 4.49833 14.8344 4.67486L16.5562 5.69232C16.6043 5.61104 16.6163 5.61236 16.5801 5.64427C16.5414 5.67825 16.3877 5.79688 16.1348 5.79688V3.79688ZM14.8271 4.68745C14.6603 4.97933 14.4561 5.40413 14.219 5.93761L16.0466 6.74989C16.2783 6.22868 16.4491 5.88005 16.5636 5.67973L14.8271 4.68745ZM14.2228 5.92906L9.24824 16.8451L11.0682 17.6745L16.0428 6.75844L14.2228 5.92906ZM4.05735 26.8608L1.45579 27.0015L1.56374 28.9985L4.1653 28.8579L4.05735 26.8608ZM1.50977 27C1.34528 27 1.23627 26.983 1.16989 26.9652C1.10554 26.9478 1.09552 26.9337 1.10978 26.9452C1.1285 26.9603 1.14326 26.9823 1.14874 26.9956C1.15169 27.0027 1.13867 26.9758 1.13867 26.8926H-0.861328C-0.861328 27.4791 -0.669288 28.0791 -0.146892 28.5011C0.334675 28.89 0.944204 29 1.50977 29V27ZM1.13867 26.8926C1.13867 26.9244 1.12559 26.871 1.23805 26.7136C1.35133 26.555 1.5553 26.3438 1.89096 26.0856L0.671539 24.5003C-0.113854 25.1045 -0.861328 25.9008 -0.861328 26.8926H1.13867ZM1.90264 26.0765C3.41311 24.8785 4.75831 23.0686 5.96699 20.7238L4.18926 19.8074C3.05419 22.0095 1.86814 23.5512 0.659855 24.5095L1.90264 26.0765ZM5.97357 20.7108L12.0908 8.4061L10.2999 7.51577L4.18268 19.8205L5.97357 20.7108ZM12.0998 8.3874L14.2795 3.76435L12.4705 2.91143L10.2908 7.53448L12.0998 8.3874ZM14.2857 3.75099C14.7978 2.62208 15.1908 1.94575 15.4599 1.62464L13.9268 0.340202C13.4693 0.886281 12.9835 1.78026 12.4643 2.9248L14.2857 3.75099ZM15.4583 1.62656C15.6463 1.40326 15.8426 1.31445 16.1172 1.31445V-0.685547C15.2433 -0.685547 14.4904 -0.329044 13.9284 0.338286L15.4583 1.62656ZM16.1172 1.31445C16.4409 1.31445 16.6625 1.41263 16.8515 1.60164L18.2657 0.187424C17.6813 -0.397004 16.9419 -0.685547 16.1172 -0.685547V1.31445ZM16.8621 1.61211C17.1154 1.85798 17.5255 2.48935 18.0758 3.6719L19.8891 2.8281C19.3378 1.64347 18.7986 0.704522 18.2551 0.176951L16.8621 1.61211ZM18.0767 3.67384L21.9263 11.9004L23.7378 11.0527L19.8882 2.82616L18.0767 3.67384ZM21.9389 11.9263C25.2242 18.4502 26.9886 21.9383 27.21 22.3441L28.9658 21.3864C28.7653 21.0188 27.0258 17.5811 23.7252 11.0268L21.9389 11.9263ZM27.2125 22.3487L27.8629 23.5264L29.6137 22.5595L28.9633 21.3818L27.2125 22.3487ZM27.87 23.5391C28.1328 23.999 28.3624 24.3804 28.5569 24.6769C28.7359 24.9498 28.9309 25.2231 29.1252 25.4059L30.4959 23.9495C30.5043 23.9575 30.483 23.9379 30.4276 23.865C30.3765 23.7977 30.3107 23.7041 30.2292 23.58C30.0663 23.3316 29.8594 22.9893 29.6065 22.5468L27.87 23.5391ZM29.1252 25.4059C29.3693 25.6357 29.6287 25.8372 29.9043 26.0056L30.9472 24.2991C30.8009 24.2097 30.6502 24.0947 30.4959 23.9495L29.1252 25.4059ZM29.9145 26.0118C30.3387 26.2642 30.5976 26.4695 30.7388 26.6197C30.8897 26.7801 30.8145 26.7769 30.8145 26.6289H32.8145C32.8145 26.0474 32.5077 25.5812 32.1957 25.2495C31.8741 24.9075 31.4386 24.5913 30.9371 24.2929L29.9145 26.0118ZM30.8145 26.6289C30.8145 26.9318 30.7394 26.9753 30.7646 26.9501C30.7897 26.925 30.7462 27 30.4434 27V29C31.0545 29 31.6966 28.8465 32.1788 28.3643C32.661 27.8821 32.8145 27.2401 32.8145 26.6289H30.8145ZM30.4897 27.0011L27.8354 26.878L27.7428 28.8759L30.3971 28.9989L30.4897 27.0011ZM27.7546 26.8775L24.1862 27.0006L24.2552 28.9994L27.8235 28.8764L27.7546 26.8775ZM24.2207 27C23.7392 27 23.4957 26.9035 23.3822 26.8252L22.2467 28.4717C22.8129 28.8621 23.5069 29 24.2207 29V27ZM23.3822 26.8252C23.3464 26.8006 23.3377 26.7846 23.3325 26.7738C23.325 26.7582 23.3047 26.7072 23.3047 26.5938H21.3047C21.3047 27.3396 21.5963 28.0231 22.2467 28.4717L23.3822 26.8252ZM23.3047 26.5938C23.3047 26.58 23.3056 26.5708 23.3064 26.5656C23.3072 26.5604 23.3079 26.5582 23.3079 26.5582C23.3079 26.5581 23.3079 26.5583 23.3077 26.5587C23.3076 26.5591 23.3074 26.5594 23.3072 26.5598C23.3068 26.5606 23.307 26.56 23.3085 26.5579C23.3137 26.5509 23.3585 26.4951 23.5153 26.4244C23.8529 26.2723 24.4814 26.1523 25.5039 26.1523V24.1523C24.3936 24.1523 23.4225 24.2726 22.6937 24.601C22.3173 24.7706 21.9622 25.015 21.7007 25.3684C21.4307 25.7334 21.3047 26.1557 21.3047 26.5938H23.3047ZM25.5039 26.1523C25.5042 26.1523 25.5044 26.1523 25.5047 26.1523C25.5049 26.1523 25.5052 26.1523 25.5054 26.1523C25.5057 26.1523 25.5059 26.1523 25.5062 26.1523C25.5064 26.1523 25.5067 26.1523 25.5069 26.1523C25.5072 26.1523 25.5074 26.1523 25.5077 26.1523C25.5079 26.1523 25.5082 26.1523 25.5084 26.1523C25.5087 26.1523 25.5089 26.1523 25.5092 26.1523C25.5094 26.1523 25.5097 26.1523 25.5099 26.1523C25.5102 26.1523 25.5105 26.1523 25.5107 26.1523C25.511 26.1523 25.5112 26.1523 25.5115 26.1523C25.5117 26.1523 25.512 26.1523 25.5122 26.1523C25.5125 26.1523 25.5127 26.1523 25.513 26.1523C25.5132 26.1523 25.5135 26.1523 25.5137 26.1523C25.514 26.1523 25.5142 26.1523 25.5145 26.1523C25.5147 26.1523 25.515 26.1523 25.5152 26.1523C25.5155 26.1523 25.5157 26.1523 25.516 26.1523C25.5162 26.1523 25.5165 26.1523 25.5167 26.1523C25.517 26.1523 25.5173 26.1523 25.5175 26.1523C25.5178 26.1523 25.518 26.1523 25.5183 26.1523C25.5185 26.1523 25.5188 26.1523 25.519 26.1523C25.5193 26.1523 25.5195 26.1523 25.5198 26.1523C25.52 26.1523 25.5203 26.1523 25.5205 26.1523C25.5208 26.1523 25.521 26.1523 25.5213 26.1523C25.5215 26.1523 25.5218 26.1523 25.522 26.1523C25.5223 26.1523 25.5225 26.1523 25.5228 26.1523C25.523 26.1523 25.5233 26.1523 25.5235 26.1523C25.5238 26.1523 25.524 26.1523 25.5243 26.1523C25.5246 26.1523 25.5248 26.1523 25.5251 26.1523C25.5253 26.1523 25.5256 26.1523 25.5258 26.1523C25.5261 26.1523 25.5263 26.1523 25.5266 26.1523C25.5268 26.1523 25.5271 26.1523 25.5273 26.1523C25.5276 26.1523 25.5278 26.1523 25.5281 26.1523C25.5283 26.1523 25.5286 26.1523 25.5288 26.1523C25.5291 26.1523 25.5293 26.1523 25.5296 26.1523C25.5298 26.1523 25.5301 26.1523 25.5303 26.1523C25.5306 26.1523 25.5308 26.1523 25.5311 26.1523C25.5313 26.1523 25.5316 26.1523 25.5319 26.1523C25.5321 26.1523 25.5324 26.1523 25.5326 26.1523C25.5329 26.1523 25.5331 26.1523 25.5334 26.1523C25.5336 26.1523 25.5339 26.1523 25.5341 26.1523C25.5344 26.1523 25.5346 26.1523 25.5349 26.1523C25.5351 26.1523 25.5354 26.1523 25.5356 26.1523C25.5359 26.1523 25.5361 26.1523 25.5364 26.1523C25.5366 26.1523 25.5369 26.1523 25.5371 26.1523C25.5374 26.1523 25.5376 26.1523 25.5379 26.1523C25.5381 26.1523 25.5384 26.1523 25.5387 26.1523C25.5389 26.1523 25.5392 26.1523 25.5394 26.1523C25.5397 26.1523 25.5399 26.1523 25.5402 26.1523C25.5404 26.1523 25.5407 26.1523 25.5409 26.1523C25.5412 26.1523 25.5414 26.1523 25.5417 26.1523C25.5419 26.1523 25.5422 26.1523 25.5424 26.1523C25.5427 26.1523 25.5429 26.1523 25.5432 26.1523C25.5434 26.1523 25.5437 26.1523 25.5439 26.1523C25.5442 26.1523 25.5444 26.1523 25.5447 26.1523C25.5449 26.1523 25.5452 26.1523 25.5454 26.1523C25.5457 26.1523 25.546 26.1523 25.5462 26.1523C25.5465 26.1523 25.5467 26.1523 25.547 26.1523C25.5472 26.1523 25.5475 26.1523 25.5477 26.1523C25.548 26.1523 25.5482 26.1523 25.5485 26.1523C25.5487 26.1523 25.549 26.1523 25.5492 26.1523C25.5495 26.1523 25.5497 26.1523 25.55 26.1523C25.5502 26.1523 25.5505 26.1523 25.5507 26.1523C25.551 26.1523 25.5512 26.1523 25.5515 26.1523C25.5517 26.1523 25.552 26.1523 25.5522 26.1523C25.5525 26.1523 25.5527 26.1523 25.553 26.1523C25.5533 26.1523 25.5535 26.1523 25.5538 26.1523C25.554 26.1523 25.5543 26.1523 25.5545 26.1523C25.5548 26.1523 25.555 26.1523 25.5553 26.1523C25.5555 26.1523 25.5558 26.1523 25.556 26.1523C25.5563 26.1523 25.5565 26.1523 25.5568 26.1523C25.557 26.1523 25.5573 26.1523 25.5575 26.1523C25.5578 26.1523 25.558 26.1523 25.5583 26.1523C25.5585 26.1523 25.5588 26.1523 25.559 26.1523C25.5593 26.1523 25.5595 26.1523 25.5598 26.1523C25.5601 26.1523 25.5603 26.1523 25.5606 26.1523C25.5608 26.1523 25.5611 26.1523 25.5613 26.1523C25.5616 26.1523 25.5618 26.1523 25.5621 26.1523C25.5623 26.1523 25.5626 26.1523 25.5628 26.1523C25.5631 26.1523 25.5633 26.1523 25.5636 26.1523C25.5638 26.1523 25.5641 26.1523 25.5643 26.1523C25.5646 26.1523 25.5648 26.1523 25.5651 26.1523C25.5653 26.1523 25.5656 26.1523 25.5658 26.1523C25.5661 26.1523 25.5663 26.1523 25.5666 26.1523C25.5668 26.1523 25.5671 26.1523 25.5674 26.1523C25.5676 26.1523 25.5679 26.1523 25.5681 26.1523C25.5684 26.1523 25.5686 26.1523 25.5689 26.1523C25.5691 26.1523 25.5694 26.1523 25.5696 26.1523C25.5699 26.1523 25.5701 26.1523 25.5704 26.1523C25.5706 26.1523 25.5709 26.1523 25.5711 26.1523C25.5714 26.1523 25.5716 26.1523 25.5719 26.1523C25.5721 26.1523 25.5724 26.1523 25.5726 26.1523C25.5729 26.1523 25.5731 26.1523 25.5734 26.1523C25.5736 26.1523 25.5739 26.1523 25.5742 26.1523C25.5744 26.1523 25.5747 26.1523 25.5749 26.1523C25.5752 26.1523 25.5754 26.1523 25.5757 26.1523C25.5759 26.1523 25.5762 26.1523 25.5764 26.1523C25.5767 26.1523 25.5769 26.1523 25.5772 26.1523C25.5774 26.1523 25.5777 26.1523 25.5779 26.1523C25.5782 26.1523 25.5784 26.1523 25.5787 26.1523C25.5789 26.1523 25.5792 26.1523 25.5794 26.1523C25.5797 26.1523 25.5799 26.1523 25.5802 26.1523C25.5804 26.1523 25.5807 26.1523 25.5809 26.1523C25.5812 26.1523 25.5815 26.1523 25.5817 26.1523C25.582 26.1523 25.5822 26.1523 25.5825 26.1523C25.5827 26.1523 25.583 26.1523 25.5832 26.1523C25.5835 26.1523 25.5837 26.1523 25.584 26.1523C25.5842 26.1523 25.5845 26.1523 25.5847 26.1523C25.585 26.1523 25.5852 26.1523 25.5855 26.1523C25.5857 26.1523 25.586 26.1523 25.5862 26.1523C25.5865 26.1523 25.5867 26.1523 25.587 26.1523C25.5872 26.1523 25.5875 26.1523 25.5877 26.1523C25.588 26.1523 25.5882 26.1523 25.5885 26.1523C25.5888 26.1523 25.589 26.1523 25.5893 26.1523C25.5895 26.1523 25.5898 26.1523 25.59 26.1523C25.5903 26.1523 25.5905 26.1523 25.5908 26.1523C25.591 26.1523 25.5913 26.1523 25.5915 26.1523C25.5918 26.1523 25.592 26.1523 25.5923 26.1523C25.5925 26.1523 25.5928 26.1523 25.593 26.1523C25.5933 26.1523 25.5935 26.1523 25.5938 26.1523C25.594 26.1523 25.5943 26.1523 25.5945 26.1523C25.5948 26.1523 25.595 26.1523 25.5953 26.1523C25.5956 26.1523 25.5958 26.1523 25.5961 26.1523C25.5963 26.1523 25.5966 26.1523 25.5968 26.1523C25.5971 26.1523 25.5973 26.1523 25.5976 26.1523C25.5978 26.1523 25.5981 26.1523 25.5983 26.1523C25.5986 26.1523 25.5988 26.1523 25.5991 26.1523C25.5993 26.1523 25.5996 26.1523 25.5998 26.1523C25.6001 26.1523 25.6003 26.1523 25.6006 26.1523C25.6008 26.1523 25.6011 26.1523 25.6013 26.1523C25.6016 26.1523 25.6018 26.1523 25.6021 26.1523C25.6023 26.1523 25.6026 26.1523 25.6029 26.1523C25.6031 26.1523 25.6034 26.1523 25.6036 26.1523C25.6039 26.1523 25.6041 26.1523 25.6044 26.1523C25.6046 26.1523 25.6049 26.1523 25.6051 26.1523C25.6054 26.1523 25.6056 26.1523 25.6059 26.1523C25.6061 26.1523 25.6064 26.1523 25.6066 26.1523C25.6069 26.1523 25.6071 26.1523 25.6074 26.1523C25.6076 26.1523 25.6079 26.1523 25.6081 26.1523C25.6084 26.1523 25.6086 26.1523 25.6089 26.1523C25.6091 26.1523 25.6094 26.1523 25.6096 26.1523C25.6099 26.1523 25.6102 26.1523 25.6104 26.1523C25.6107 26.1523 25.6109 26.1523 25.6112 26.1523C25.6114 26.1523 25.6117 26.1523 25.6119 26.1523C25.6122 26.1523 25.6124 26.1523 25.6127 26.1523C25.6129 26.1523 25.6132 26.1523 25.6134 26.1523C25.6137 26.1523 25.6139 26.1523 25.6142 26.1523C25.6144 26.1523 25.6147 26.1523 25.6149 26.1523C25.6152 26.1523 25.6154 26.1523 25.6157 26.1523C25.6159 26.1523 25.6162 26.1523 25.6164 26.1523C25.6167 26.1523 25.617 26.1523 25.6172 26.1523C25.6175 26.1523 25.6177 26.1523 25.618 26.1523C25.6182 26.1523 25.6185 26.1523 25.6187 26.1523C25.619 26.1523 25.6192 26.1523 25.6195 26.1523C25.6197 26.1523 25.62 26.1523 25.6202 26.1523C25.6205 26.1523 25.6207 26.1523 25.621 26.1523C25.6212 26.1523 25.6215 26.1523 25.6217 26.1523C25.622 26.1523 25.6222 26.1523 25.6225 26.1523C25.6227 26.1523 25.623 26.1523 25.6232 26.1523C25.6235 26.1523 25.6237 26.1523 25.624 26.1523C25.6243 26.1523 25.6245 26.1523 25.6248 26.1523C25.625 26.1523 25.6253 26.1523 25.6255 26.1523C25.6258 26.1523 25.626 26.1523 25.6263 26.1523C25.6265 26.1523 25.6268 26.1523 25.627 26.1523C25.6273 26.1523 25.6275 26.1523 25.6278 26.1523C25.628 26.1523 25.6283 26.1523 25.6285 26.1523C25.6288 26.1523 25.629 26.1523 25.6293 26.1523C25.6295 26.1523 25.6298 26.1523 25.63 26.1523C25.6303 26.1523 25.6305 26.1523 25.6308 26.1523C25.6311 26.1523 25.6313 26.1523 25.6316 26.1523C25.6318 26.1523 25.6321 26.1523 25.6323 26.1523C25.6326 26.1523 25.6328 26.1523 25.6331 26.1523C25.6333 26.1523 25.6336 26.1523 25.6338 26.1523C25.6341 26.1523 25.6343 26.1523 25.6346 26.1523C25.6348 26.1523 25.6351 26.1523 25.6353 26.1523C25.6356 26.1523 25.6358 26.1523 25.6361 26.1523C25.6363 26.1523 25.6366 26.1523 25.6368 26.1523C25.6371 26.1523 25.6373 26.1523 25.6376 26.1523C25.6378 26.1523 25.6381 26.1523 25.6384 26.1523C25.6386 26.1523 25.6389 26.1523 25.6391 26.1523C25.6394 26.1523 25.6396 26.1523 25.6399 26.1523C25.6401 26.1523 25.6404 26.1523 25.6406 26.1523C25.6409 26.1523 25.6411 26.1523 25.6414 26.1523C25.6416 26.1523 25.6419 26.1523 25.6421 26.1523C25.6424 26.1523 25.6426 26.1523 25.6429 26.1523C25.6431 26.1523 25.6434 26.1523 25.6436 26.1523C25.6439 26.1523 25.6441 26.1523 25.6444 26.1523C25.6446 26.1523 25.6449 26.1523 25.6451 26.1523C25.6454 26.1523 25.6457 26.1523 25.6459 26.1523C25.6462 26.1523 25.6464 26.1523 25.6467 26.1523C25.6469 26.1523 25.6472 26.1523 25.6474 26.1523C25.6477 26.1523 25.6479 26.1523 25.6482 26.1523C25.6484 26.1523 25.6487 26.1523 25.6489 26.1523C25.6492 26.1523 25.6494 26.1523 25.6497 26.1523C25.6499 26.1523 25.6502 26.1523 25.6504 26.1523C25.6507 26.1523 25.6509 26.1523 25.6512 26.1523C25.6514 26.1523 25.6517 26.1523 25.6519 26.1523C25.6522 26.1523 25.6525 26.1523 25.6527 26.1523C25.653 26.1523 25.6532 26.1523 25.6535 26.1523C25.6537 26.1523 25.654 26.1523 25.6542 26.1523C25.6545 26.1523 25.6547 26.1523 25.655 26.1523C25.6552 26.1523 25.6555 26.1523 25.6557 26.1523C25.656 26.1523 25.6562 26.1523 25.6565 26.1523C25.6567 26.1523 25.657 26.1523 25.6572 26.1523C25.6575 26.1523 25.6577 26.1523 25.658 26.1523C25.6582 26.1523 25.6585 26.1523 25.6587 26.1523C25.659 26.1523 25.6592 26.1523 25.6595 26.1523C25.6598 26.1523 25.66 26.1523 25.6603 26.1523C25.6605 26.1523 25.6608 26.1523 25.661 26.1523C25.6613 26.1523 25.6615 26.1523 25.6618 26.1523C25.662 26.1523 25.6623 26.1523 25.6625 26.1523C25.6628 26.1523 25.663 26.1523 25.6633 26.1523C25.6635 26.1523 25.6638 26.1523 25.664 26.1523C25.6643 26.1523 25.6645 26.1523 25.6648 26.1523C25.665 26.1523 25.6653 26.1523 25.6655 26.1523C25.6658 26.1523 25.666 26.1523 25.6663 26.1523C25.6665 26.1523 25.6668 26.1523 25.6671 26.1523C25.6673 26.1523 25.6676 26.1523 25.6678 26.1523C25.6681 26.1523 25.6683 26.1523 25.6686 26.1523C25.6688 26.1523 25.6691 26.1523 25.6693 26.1523C25.6696 26.1523 25.6698 26.1523 25.6701 26.1523C25.6703 26.1523 25.6706 26.1523 25.6708 26.1523C25.6711 26.1523 25.6713 26.1523 25.6716 26.1523C25.6718 26.1523 25.6721 26.1523 25.6723 26.1523C25.6726 26.1523 25.6728 26.1523 25.6731 26.1523C25.6733 26.1523 25.6736 26.1523 25.6739 26.1523C25.6741 26.1523 25.6744 26.1523 25.6746 26.1523C25.6749 26.1523 25.6751 26.1523 25.6754 26.1523C25.6756 26.1523 25.6759 26.1523 25.6761 26.1523C25.6764 26.1523 25.6766 26.1523 25.6769 26.1523C25.6771 26.1523 25.6774 26.1523 25.6776 26.1523C25.6779 26.1523 25.6781 26.1523 25.6784 26.1523C25.6786 26.1523 25.6789 26.1523 25.6791 26.1523C25.6794 26.1523 25.6796 26.1523 25.6799 26.1523C25.6801 26.1523 25.6804 26.1523 25.6806 26.1523C25.6809 26.1523 25.6812 26.1523 25.6814 26.1523C25.6817 26.1523 25.6819 26.1523 25.6822 26.1523C25.6824 26.1523 25.6827 26.1523 25.6829 26.1523C25.6832 26.1523 25.6834 26.1523 25.6837 26.1523C25.6839 26.1523 25.6842 26.1523 25.6844 26.1523C25.6847 26.1523 25.6849 26.1523 25.6852 26.1523C25.6854 26.1523 25.6857 26.1523 25.6859 26.1523C25.6862 26.1523 25.6864 26.1523 25.6867 26.1523C25.6869 26.1523 25.6872 26.1523 25.6874 26.1523C25.6877 26.1523 25.688 26.1523 25.6882 26.1523C25.6885 26.1523 25.6887 26.1523 25.689 26.1523C25.6892 26.1523 25.6895 26.1523 25.6897 26.1523C25.69 26.1523 25.6902 26.1523 25.6905 26.1523C25.6907 26.1523 25.691 26.1523 25.6912 26.1523C25.6915 26.1523 25.6917 26.1523 25.692 26.1523C25.6922 26.1523 25.6925 26.1523 25.6927 26.1523C25.693 26.1523 25.6932 26.1523 25.6935 26.1523C25.6937 26.1523 25.694 26.1523 25.6942 26.1523C25.6945 26.1523 25.6947 26.1523 25.695 26.1523C25.6953 26.1523 25.6955 26.1523 25.6958 26.1523C25.696 26.1523 25.6963 26.1523 25.6965 26.1523C25.6968 26.1523 25.697 26.1523 25.6973 26.1523C25.6975 26.1523 25.6978 26.1523 25.698 26.1523C25.6983 26.1523 25.6985 26.1523 25.6988 26.1523C25.699 26.1523 25.6993 26.1523 25.6995 26.1523C25.6998 26.1523 25.7 26.1523 25.7003 26.1523C25.7005 26.1523 25.7008 26.1523 25.701 26.1523C25.7013 26.1523 25.7015 26.1523 25.7018 26.1523C25.702 26.1523 25.7023 26.1523 25.7026 26.1523C25.7028 26.1523 25.7031 26.1523 25.7033 26.1523C25.7036 26.1523 25.7038 26.1523 25.7041 26.1523C25.7043 26.1523 25.7046 26.1523 25.7048 26.1523C25.7051 26.1523 25.7053 26.1523 25.7056 26.1523C25.7058 26.1523 25.7061 26.1523 25.7063 26.1523C25.7066 26.1523 25.7068 26.1523 25.7071 26.1523C25.7073 26.1523 25.7076 26.1523 25.7078 26.1523C25.7081 26.1523 25.7083 26.1523 25.7086 26.1523C25.7088 26.1523 25.7091 26.1523 25.7094 26.1523C25.7096 26.1523 25.7099 26.1523 25.7101 26.1523C25.7104 26.1523 25.7106 26.1523 25.7109 26.1523C25.7111 26.1523 25.7114 26.1523 25.7116 26.1523C25.7119 26.1523 25.7121 26.1523 25.7124 26.1523C25.7126 26.1523 25.7129 26.1523 25.7131 26.1523C25.7134 26.1523 25.7136 26.1523 25.7139 26.1523C25.7141 26.1523 25.7144 26.1523 25.7146 26.1523C25.7149 26.1523 25.7151 26.1523 25.7154 26.1523C25.7156 26.1523 25.7159 26.1523 25.7161 26.1523C25.7164 26.1523 25.7167 26.1523 25.7169 26.1523C25.7172 26.1523 25.7174 26.1523 25.7177 26.1523C25.7179 26.1523 25.7182 26.1523 25.7184 26.1523C25.7187 26.1523 25.7189 26.1523 25.7192 26.1523C25.7194 26.1523 25.7197 26.1523 25.7199 26.1523C25.7202 26.1523 25.7204 26.1523 25.7207 26.1523C25.7209 26.1523 25.7212 26.1523 25.7214 26.1523C25.7217 26.1523 25.7219 26.1523 25.7222 26.1523C25.7224 26.1523 25.7227 26.1523 25.7229 26.1523C25.7232 26.1523 25.7234 26.1523 25.7237 26.1523C25.724 26.1523 25.7242 26.1523 25.7245 26.1523C25.7247 26.1523 25.725 26.1523 25.7252 26.1523C25.7255 26.1523 25.7257 26.1523 25.726 26.1523C25.7262 26.1523 25.7265 26.1523 25.7267 26.1523C25.727 26.1523 25.7272 26.1523 25.7275 26.1523C25.7277 26.1523 25.728 26.1523 25.7282 26.1523C25.7285 26.1523 25.7287 26.1523 25.729 26.1523C25.7292 26.1523 25.7295 26.1523 25.7297 26.1523C25.73 26.1523 25.7302 26.1523 25.7305 26.1523C25.7308 26.1523 25.731 26.1523 25.7313 26.1523C25.7315 26.1523 25.7318 26.1523 25.732 26.1523C25.7323 26.1523 25.7325 26.1523 25.7328 26.1523C25.733 26.1523 25.7333 26.1523 25.7335 26.1523C25.7338 26.1523 25.734 26.1523 25.7343 26.1523C25.7345 26.1523 25.7348 26.1523 25.735 26.1523C25.7353 26.1523 25.7355 26.1523 25.7358 26.1523C25.736 26.1523 25.7363 26.1523 25.7365 26.1523C25.7368 26.1523 25.737 26.1523 25.7373 26.1523C25.7375 26.1523 25.7378 26.1523 25.7381 26.1523C25.7383 26.1523 25.7386 26.1523 25.7388 26.1523C25.7391 26.1523 25.7393 26.1523 25.7396 26.1523C25.7398 26.1523 25.7401 26.1523 25.7403 26.1523C25.7406 26.1523 25.7408 26.1523 25.7411 26.1523C25.7413 26.1523 25.7416 26.1523 25.7418 26.1523C25.7421 26.1523 25.7423 26.1523 25.7426 26.1523C25.7428 26.1523 25.7431 26.1523 25.7433 26.1523C25.7436 26.1523 25.7438 26.1523 25.7441 26.1523C25.7443 26.1523 25.7446 26.1523 25.7449 26.1523C25.7451 26.1523 25.7454 26.1523 25.7456 26.1523C25.7459 26.1523 25.7461 26.1523 25.7464 26.1523C25.7466 26.1523 25.7469 26.1523 25.7471 26.1523C25.7474 26.1523 25.7476 26.1523 25.7479 26.1523C25.7481 26.1523 25.7484 26.1523 25.7486 26.1523C25.7489 26.1523 25.7491 26.1523 25.7494 26.1523C25.7496 26.1523 25.7499 26.1523 25.7501 26.1523C25.7504 26.1523 25.7506 26.1523 25.7509 26.1523C25.7511 26.1523 25.7514 26.1523 25.7516 26.1523C25.7519 26.1523 25.7522 26.1523 25.7524 26.1523C25.7527 26.1523 25.7529 26.1523 25.7532 26.1523C25.7534 26.1523 25.7537 26.1523 25.7539 26.1523C25.7542 26.1523 25.7544 26.1523 25.7547 26.1523C25.7549 26.1523 25.7552 26.1523 25.7554 26.1523C25.7557 26.1523 25.7559 26.1523 25.7562 26.1523C25.7564 26.1523 25.7567 26.1523 25.7569 26.1523C25.7572 26.1523 25.7574 26.1523 25.7577 26.1523C25.7579 26.1523 25.7582 26.1523 25.7584 26.1523C25.7587 26.1523 25.7589 26.1523 25.7592 26.1523C25.7595 26.1523 25.7597 26.1523 25.76 26.1523C25.7602 26.1523 25.7605 26.1523 25.7607 26.1523C25.761 26.1523 25.7612 26.1523 25.7615 26.1523C25.7617 26.1523 25.762 26.1523 25.7622 26.1523C25.7625 26.1523 25.7627 26.1523 25.763 26.1523C25.7632 26.1523 25.7635 26.1523 25.7637 26.1523C25.764 26.1523 25.7642 26.1523 25.7645 26.1523C25.7647 26.1523 25.765 26.1523 25.7652 26.1523C25.7655 26.1523 25.7657 26.1523 25.766 26.1523C25.7663 26.1523 25.7665 26.1523 25.7668 26.1523C25.767 26.1523 25.7673 26.1523 25.7675 26.1523C25.7678 26.1523 25.768 26.1523 25.7683 26.1523C25.7685 26.1523 25.7688 26.1523 25.769 26.1523C25.7693 26.1523 25.7695 26.1523 25.7698 26.1523C25.77 26.1523 25.7703 26.1523 25.7705 26.1523C25.7708 26.1523 25.771 26.1523 25.7713 26.1523C25.7715 26.1523 25.7718 26.1523 25.772 26.1523C25.7723 26.1523 25.7725 26.1523 25.7728 26.1523C25.773 26.1523 25.7733 26.1523 25.7736 26.1523C25.7738 26.1523 25.7741 26.1523 25.7743 26.1523C25.7746 26.1523 25.7748 26.1523 25.7751 26.1523C25.7753 26.1523 25.7756 26.1523 25.7758 26.1523C25.7761 26.1523 25.7763 26.1523 25.7766 26.1523C25.7768 26.1523 25.7771 26.1523 25.7773 26.1523C25.7776 26.1523 25.7778 26.1523 25.7781 26.1523C25.7783 26.1523 25.7786 26.1523 25.7788 26.1523C25.7791 26.1523 25.7793 26.1523 25.7796 26.1523C25.7798 26.1523 25.7801 26.1523 25.7803 26.1523C25.7806 26.1523 25.7809 26.1523 25.7811 26.1523C25.7814 26.1523 25.7816 26.1523 25.7819 26.1523C25.7821 26.1523 25.7824 26.1523 25.7826 26.1523C25.7829 26.1523 25.7831 26.1523 25.7834 26.1523C25.7836 26.1523 25.7839 26.1523 25.7841 26.1523C25.7844 26.1523 25.7846 26.1523 25.7849 26.1523C25.7851 26.1523 25.7854 26.1523 25.7856 26.1523C25.7859 26.1523 25.7861 26.1523 25.7864 26.1523C25.7866 26.1523 25.7869 26.1523 25.7871 26.1523C25.7874 26.1523 25.7877 26.1523 25.7879 26.1523C25.7882 26.1523 25.7884 26.1523 25.7887 26.1523C25.7889 26.1523 25.7892 26.1523 25.7894 26.1523C25.7897 26.1523 25.7899 26.1523 25.7902 26.1523C25.7904 26.1523 25.7907 26.1523 25.7909 26.1523C25.7912 26.1523 25.7914 26.1523 25.7917 26.1523C25.7919 26.1523 25.7922 26.1523 25.7924 26.1523C25.7927 26.1523 25.7929 26.1523 25.7932 26.1523C25.7934 26.1523 25.7937 26.1523 25.7939 26.1523C25.7942 26.1523 25.7944 26.1523 25.7947 26.1523C25.795 26.1523 25.7952 26.1523 25.7955 26.1523C25.7957 26.1523 25.796 26.1523 25.7962 26.1523C25.7965 26.1523 25.7967 26.1523 25.797 26.1523C25.7972 26.1523 25.7975 26.1523 25.7977 26.1523C25.798 26.1523 25.7982 26.1523 25.7985 26.1523C25.7987 26.1523 25.799 26.1523 25.7992 26.1523C25.7995 26.1523 25.7997 26.1523 25.8 26.1523C25.8002 26.1523 25.8005 26.1523 25.8007 26.1523C25.801 26.1523 25.8012 26.1523 25.8015 26.1523C25.8018 26.1523 25.802 26.1523 25.8023 26.1523C25.8025 26.1523 25.8028 26.1523 25.803 26.1523C25.8033 26.1523 25.8035 26.1523 25.8038 26.1523C25.804 26.1523 25.8043 26.1523 25.8045 26.1523C25.8048 26.1523 25.805 26.1523 25.8053 26.1523C25.8055 26.1523 25.8058 26.1523 25.806 26.1523C25.8063 26.1523 25.8065 26.1523 25.8068 26.1523C25.807 26.1523 25.8073 26.1523 25.8075 26.1523C25.8078 26.1523 25.808 26.1523 25.8083 26.1523C25.8085 26.1523 25.8088 26.1523 25.8091 26.1523C25.8093 26.1523 25.8096 26.1523 25.8098 26.1523C25.8101 26.1523 25.8103 26.1523 25.8106 26.1523C25.8108 26.1523 25.8111 26.1523 25.8113 26.1523C25.8116 26.1523 25.8118 26.1523 25.8121 26.1523C25.8123 26.1523 25.8126 26.1523 25.8128 26.1523C25.8131 26.1523 25.8133 26.1523 25.8136 26.1523C25.8138 26.1523 25.8141 26.1523 25.8143 26.1523C25.8146 26.1523 25.8148 26.1523 25.8151 26.1523C25.8153 26.1523 25.8156 26.1523 25.8158 26.1523C25.8161 26.1523 25.8164 26.1523 25.8166 26.1523C25.8169 26.1523 25.8171 26.1523 25.8174 26.1523C25.8176 26.1523 25.8179 26.1523 25.8181 26.1523C25.8184 26.1523 25.8186 26.1523 25.8189 26.1523C25.8191 26.1523 25.8194 26.1523 25.8196 26.1523C25.8199 26.1523 25.8201 26.1523 25.8204 26.1523C25.8206 26.1523 25.8209 26.1523 25.8211 26.1523C25.8214 26.1523 25.8216 26.1523 25.8219 26.1523C25.8221 26.1523 25.8224 26.1523 25.8226 26.1523C25.8229 26.1523 25.8232 26.1523 25.8234 26.1523C25.8237 26.1523 25.8239 26.1523 25.8242 26.1523C25.8244 26.1523 25.8247 26.1523 25.8249 26.1523C25.8252 26.1523 25.8254 26.1523 25.8257 26.1523C25.8259 26.1523 25.8262 26.1523 25.8264 26.1523C25.8267 26.1523 25.8269 26.1523 25.8272 26.1523C25.8274 26.1523 25.8277 26.1523 25.8279 26.1523C25.8282 26.1523 25.8284 26.1523 25.8287 26.1523C25.8289 26.1523 25.8292 26.1523 25.8294 26.1523C25.8297 26.1523 25.8299 26.1523 25.8302 26.1523C25.8305 26.1523 25.8307 26.1523 25.831 26.1523C25.8312 26.1523 25.8315 26.1523 25.8317 26.1523C25.832 26.1523 25.8322 26.1523 25.8325 26.1523C25.8327 26.1523 25.833 26.1523 25.8332 26.1523C25.8335 26.1523 25.8337 26.1523 25.834 26.1523C25.8342 26.1523 25.8345 26.1523 25.8347 26.1523C25.835 26.1523 25.8352 26.1523 25.8355 26.1523C25.8357 26.1523 25.836 26.1523 25.8362 26.1523C25.8365 26.1523 25.8367 26.1523 25.837 26.1523C25.8372 26.1523 25.8375 26.1523 25.8378 26.1523C25.838 26.1523 25.8383 26.1523 25.8385 26.1523C25.8388 26.1523 25.839 26.1523 25.8393 26.1523C25.8395 26.1523 25.8398 26.1523 25.84 26.1523C25.8403 26.1523 25.8405 26.1523 25.8408 26.1523C25.841 26.1523 25.8413 26.1523 25.8415 26.1523C25.8418 26.1523 25.842 26.1523 25.8423 26.1523C25.8425 26.1523 25.8428 26.1523 25.843 26.1523C25.8433 26.1523 25.8435 26.1523 25.8438 26.1523C25.844 26.1523 25.8443 26.1523 25.8446 26.1523C25.8448 26.1523 25.8451 26.1523 25.8453 26.1523C25.8456 26.1523 25.8458 26.1523 25.8461 26.1523C25.8463 26.1523 25.8466 26.1523 25.8468 26.1523C25.8471 26.1523 25.8473 26.1523 25.8476 26.1523C25.8478 26.1523 25.8481 26.1523 25.8483 26.1523C25.8486 26.1523 25.8488 26.1523 25.8491 26.1523C25.8493 26.1523 25.8496 26.1523 25.8498 26.1523C25.8501 26.1523 25.8503 26.1523 25.8506 26.1523C25.8508 26.1523 25.8511 26.1523 25.8513 26.1523C25.8516 26.1523 25.8519 26.1523 25.8521 26.1523C25.8524 26.1523 25.8526 26.1523 25.8529 26.1523C25.8531 26.1523 25.8534 26.1523 25.8536 26.1523C25.8539 26.1523 25.8541 26.1523 25.8544 26.1523C25.8546 26.1523 25.8549 26.1523 25.8551 26.1523C25.8554 26.1523 25.8556 26.1523 25.8559 26.1523C25.8561 26.1523 25.8564 26.1523 25.8566 26.1523C25.8569 26.1523 25.8571 26.1523 25.8574 26.1523C25.8576 26.1523 25.8579 26.1523 25.8581 26.1523C25.8584 26.1523 25.8587 26.1523 25.8589 26.1523C25.8592 26.1523 25.8594 26.1523 25.8597 26.1523C25.8599 26.1523 25.8602 26.1523 25.8604 26.1523C25.8607 26.1523 25.8609 26.1523 25.8612 26.1523C25.8614 26.1523 25.8617 26.1523 25.8619 26.1523C25.8622 26.1523 25.8624 26.1523 25.8627 26.1523C25.8629 26.1523 25.8632 26.1523 25.8634 26.1523C25.8637 26.1523 25.8639 26.1523 25.8642 26.1523C25.8644 26.1523 25.8647 26.1523 25.8649 26.1523C25.8652 26.1523 25.8654 26.1523 25.8657 26.1523C25.866 26.1523 25.8662 26.1523 25.8665 26.1523C25.8667 26.1523 25.867 26.1523 25.8672 26.1523C25.8675 26.1523 25.8677 26.1523 25.868 26.1523C25.8682 26.1523 25.8685 26.1523 25.8687 26.1523C25.869 26.1523 25.8692 26.1523 25.8695 26.1523C25.8697 26.1523 25.87 26.1523 25.8702 26.1523C25.8705 26.1523 25.8707 26.1523 25.871 26.1523C25.8712 26.1523 25.8715 26.1523 25.8717 26.1523C25.872 26.1523 25.8722 26.1523 25.8725 26.1523C25.8727 26.1523 25.873 26.1523 25.8733 26.1523C25.8735 26.1523 25.8738 26.1523 25.874 26.1523C25.8743 26.1523 25.8745 26.1523 25.8748 26.1523C25.875 26.1523 25.8753 26.1523 25.8755 26.1523C25.8758 26.1523 25.876 26.1523 25.8763 26.1523C25.8765 26.1523 25.8768 26.1523 25.877 26.1523C25.8773 26.1523 25.8775 26.1523 25.8778 26.1523C25.878 26.1523 25.8783 26.1523 25.8785 26.1523C25.8788 26.1523 25.879 26.1523 25.8793 26.1523C25.8795 26.1523 25.8798 26.1523 25.8801 26.1523C25.8803 26.1523 25.8806 26.1523 25.8808 26.1523C25.8811 26.1523 25.8813 26.1523 25.8816 26.1523C25.8818 26.1523 25.8821 26.1523 25.8823 26.1523C25.8826 26.1523 25.8828 26.1523 25.8831 26.1523C25.8833 26.1523 25.8836 26.1523 25.8838 26.1523C25.8841 26.1523 25.8843 26.1523 25.8846 26.1523C25.8848 26.1523 25.8851 26.1523 25.8853 26.1523C25.8856 26.1523 25.8858 26.1523 25.8861 26.1523C25.8863 26.1523 25.8866 26.1523 25.8868 26.1523C25.8871 26.1523 25.8874 26.1523 25.8876 26.1523C25.8879 26.1523 25.8881 26.1523 25.8884 26.1523C25.8886 26.1523 25.8889 26.1523 25.8891 26.1523C25.8894 26.1523 25.8896 26.1523 25.8899 26.1523C25.8901 26.1523 25.8904 26.1523 25.8906 26.1523V24.1523C25.8904 24.1523 25.8901 24.1523 25.8899 24.1523C25.8896 24.1523 25.8894 24.1523 25.8891 24.1523C25.8889 24.1523 25.8886 24.1523 25.8884 24.1523C25.8881 24.1523 25.8879 24.1523 25.8876 24.1523C25.8874 24.1523 25.8871 24.1523 25.8868 24.1523C25.8866 24.1523 25.8863 24.1523 25.8861 24.1523C25.8858 24.1523 25.8856 24.1523 25.8853 24.1523C25.8851 24.1523 25.8848 24.1523 25.8846 24.1523C25.8843 24.1523 25.8841 24.1523 25.8838 24.1523C25.8836 24.1523 25.8833 24.1523 25.8831 24.1523C25.8828 24.1523 25.8826 24.1523 25.8823 24.1523C25.8821 24.1523 25.8818 24.1523 25.8816 24.1523C25.8813 24.1523 25.8811 24.1523 25.8808 24.1523C25.8806 24.1523 25.8803 24.1523 25.8801 24.1523C25.8798 24.1523 25.8795 24.1523 25.8793 24.1523C25.879 24.1523 25.8788 24.1523 25.8785 24.1523C25.8783 24.1523 25.878 24.1523 25.8778 24.1523C25.8775 24.1523 25.8773 24.1523 25.877 24.1523C25.8768 24.1523 25.8765 24.1523 25.8763 24.1523C25.876 24.1523 25.8758 24.1523 25.8755 24.1523C25.8753 24.1523 25.875 24.1523 25.8748 24.1523C25.8745 24.1523 25.8743 24.1523 25.874 24.1523C25.8738 24.1523 25.8735 24.1523 25.8733 24.1523C25.873 24.1523 25.8727 24.1523 25.8725 24.1523C25.8722 24.1523 25.872 24.1523 25.8717 24.1523C25.8715 24.1523 25.8712 24.1523 25.871 24.1523C25.8707 24.1523 25.8705 24.1523 25.8702 24.1523C25.87 24.1523 25.8697 24.1523 25.8695 24.1523C25.8692 24.1523 25.869 24.1523 25.8687 24.1523C25.8685 24.1523 25.8682 24.1523 25.868 24.1523C25.8677 24.1523 25.8675 24.1523 25.8672 24.1523C25.867 24.1523 25.8667 24.1523 25.8665 24.1523C25.8662 24.1523 25.866 24.1523 25.8657 24.1523C25.8654 24.1523 25.8652 24.1523 25.8649 24.1523C25.8647 24.1523 25.8644 24.1523 25.8642 24.1523C25.8639 24.1523 25.8637 24.1523 25.8634 24.1523C25.8632 24.1523 25.8629 24.1523 25.8627 24.1523C25.8624 24.1523 25.8622 24.1523 25.8619 24.1523C25.8617 24.1523 25.8614 24.1523 25.8612 24.1523C25.8609 24.1523 25.8607 24.1523 25.8604 24.1523C25.8602 24.1523 25.8599 24.1523 25.8597 24.1523C25.8594 24.1523 25.8592 24.1523 25.8589 24.1523C25.8587 24.1523 25.8584 24.1523 25.8581 24.1523C25.8579 24.1523 25.8576 24.1523 25.8574 24.1523C25.8571 24.1523 25.8569 24.1523 25.8566 24.1523C25.8564 24.1523 25.8561 24.1523 25.8559 24.1523C25.8556 24.1523 25.8554 24.1523 25.8551 24.1523C25.8549 24.1523 25.8546 24.1523 25.8544 24.1523C25.8541 24.1523 25.8539 24.1523 25.8536 24.1523C25.8534 24.1523 25.8531 24.1523 25.8529 24.1523C25.8526 24.1523 25.8524 24.1523 25.8521 24.1523C25.8519 24.1523 25.8516 24.1523 25.8513 24.1523C25.8511 24.1523 25.8508 24.1523 25.8506 24.1523C25.8503 24.1523 25.8501 24.1523 25.8498 24.1523C25.8496 24.1523 25.8493 24.1523 25.8491 24.1523C25.8488 24.1523 25.8486 24.1523 25.8483 24.1523C25.8481 24.1523 25.8478 24.1523 25.8476 24.1523C25.8473 24.1523 25.8471 24.1523 25.8468 24.1523C25.8466 24.1523 25.8463 24.1523 25.8461 24.1523C25.8458 24.1523 25.8456 24.1523 25.8453 24.1523C25.8451 24.1523 25.8448 24.1523 25.8446 24.1523C25.8443 24.1523 25.844 24.1523 25.8438 24.1523C25.8435 24.1523 25.8433 24.1523 25.843 24.1523C25.8428 24.1523 25.8425 24.1523 25.8423 24.1523C25.842 24.1523 25.8418 24.1523 25.8415 24.1523C25.8413 24.1523 25.841 24.1523 25.8408 24.1523C25.8405 24.1523 25.8403 24.1523 25.84 24.1523C25.8398 24.1523 25.8395 24.1523 25.8393 24.1523C25.839 24.1523 25.8388 24.1523 25.8385 24.1523C25.8383 24.1523 25.838 24.1523 25.8378 24.1523C25.8375 24.1523 25.8372 24.1523 25.837 24.1523C25.8367 24.1523 25.8365 24.1523 25.8362 24.1523C25.836 24.1523 25.8357 24.1523 25.8355 24.1523C25.8352 24.1523 25.835 24.1523 25.8347 24.1523C25.8345 24.1523 25.8342 24.1523 25.834 24.1523C25.8337 24.1523 25.8335 24.1523 25.8332 24.1523C25.833 24.1523 25.8327 24.1523 25.8325 24.1523C25.8322 24.1523 25.832 24.1523 25.8317 24.1523C25.8315 24.1523 25.8312 24.1523 25.831 24.1523C25.8307 24.1523 25.8305 24.1523 25.8302 24.1523C25.8299 24.1523 25.8297 24.1523 25.8294 24.1523C25.8292 24.1523 25.8289 24.1523 25.8287 24.1523C25.8284 24.1523 25.8282 24.1523 25.8279 24.1523C25.8277 24.1523 25.8274 24.1523 25.8272 24.1523C25.8269 24.1523 25.8267 24.1523 25.8264 24.1523C25.8262 24.1523 25.8259 24.1523 25.8257 24.1523C25.8254 24.1523 25.8252 24.1523 25.8249 24.1523C25.8247 24.1523 25.8244 24.1523 25.8242 24.1523C25.8239 24.1523 25.8237 24.1523 25.8234 24.1523C25.8232 24.1523 25.8229 24.1523 25.8226 24.1523C25.8224 24.1523 25.8221 24.1523 25.8219 24.1523C25.8216 24.1523 25.8214 24.1523 25.8211 24.1523C25.8209 24.1523 25.8206 24.1523 25.8204 24.1523C25.8201 24.1523 25.8199 24.1523 25.8196 24.1523C25.8194 24.1523 25.8191 24.1523 25.8189 24.1523C25.8186 24.1523 25.8184 24.1523 25.8181 24.1523C25.8179 24.1523 25.8176 24.1523 25.8174 24.1523C25.8171 24.1523 25.8169 24.1523 25.8166 24.1523C25.8164 24.1523 25.8161 24.1523 25.8158 24.1523C25.8156 24.1523 25.8153 24.1523 25.8151 24.1523C25.8148 24.1523 25.8146 24.1523 25.8143 24.1523C25.8141 24.1523 25.8138 24.1523 25.8136 24.1523C25.8133 24.1523 25.8131 24.1523 25.8128 24.1523C25.8126 24.1523 25.8123 24.1523 25.8121 24.1523C25.8118 24.1523 25.8116 24.1523 25.8113 24.1523C25.8111 24.1523 25.8108 24.1523 25.8106 24.1523C25.8103 24.1523 25.8101 24.1523 25.8098 24.1523C25.8096 24.1523 25.8093 24.1523 25.8091 24.1523C25.8088 24.1523 25.8085 24.1523 25.8083 24.1523C25.808 24.1523 25.8078 24.1523 25.8075 24.1523C25.8073 24.1523 25.807 24.1523 25.8068 24.1523C25.8065 24.1523 25.8063 24.1523 25.806 24.1523C25.8058 24.1523 25.8055 24.1523 25.8053 24.1523C25.805 24.1523 25.8048 24.1523 25.8045 24.1523C25.8043 24.1523 25.804 24.1523 25.8038 24.1523C25.8035 24.1523 25.8033 24.1523 25.803 24.1523C25.8028 24.1523 25.8025 24.1523 25.8023 24.1523C25.802 24.1523 25.8018 24.1523 25.8015 24.1523C25.8012 24.1523 25.801 24.1523 25.8007 24.1523C25.8005 24.1523 25.8002 24.1523 25.8 24.1523C25.7997 24.1523 25.7995 24.1523 25.7992 24.1523C25.799 24.1523 25.7987 24.1523 25.7985 24.1523C25.7982 24.1523 25.798 24.1523 25.7977 24.1523C25.7975 24.1523 25.7972 24.1523 25.797 24.1523C25.7967 24.1523 25.7965 24.1523 25.7962 24.1523C25.796 24.1523 25.7957 24.1523 25.7955 24.1523C25.7952 24.1523 25.795 24.1523 25.7947 24.1523C25.7944 24.1523 25.7942 24.1523 25.7939 24.1523C25.7937 24.1523 25.7934 24.1523 25.7932 24.1523C25.7929 24.1523 25.7927 24.1523 25.7924 24.1523C25.7922 24.1523 25.7919 24.1523 25.7917 24.1523C25.7914 24.1523 25.7912 24.1523 25.7909 24.1523C25.7907 24.1523 25.7904 24.1523 25.7902 24.1523C25.7899 24.1523 25.7897 24.1523 25.7894 24.1523C25.7892 24.1523 25.7889 24.1523 25.7887 24.1523C25.7884 24.1523 25.7882 24.1523 25.7879 24.1523C25.7877 24.1523 25.7874 24.1523 25.7871 24.1523C25.7869 24.1523 25.7866 24.1523 25.7864 24.1523C25.7861 24.1523 25.7859 24.1523 25.7856 24.1523C25.7854 24.1523 25.7851 24.1523 25.7849 24.1523C25.7846 24.1523 25.7844 24.1523 25.7841 24.1523C25.7839 24.1523 25.7836 24.1523 25.7834 24.1523C25.7831 24.1523 25.7829 24.1523 25.7826 24.1523C25.7824 24.1523 25.7821 24.1523 25.7819 24.1523C25.7816 24.1523 25.7814 24.1523 25.7811 24.1523C25.7809 24.1523 25.7806 24.1523 25.7803 24.1523C25.7801 24.1523 25.7798 24.1523 25.7796 24.1523C25.7793 24.1523 25.7791 24.1523 25.7788 24.1523C25.7786 24.1523 25.7783 24.1523 25.7781 24.1523C25.7778 24.1523 25.7776 24.1523 25.7773 24.1523C25.7771 24.1523 25.7768 24.1523 25.7766 24.1523C25.7763 24.1523 25.7761 24.1523 25.7758 24.1523C25.7756 24.1523 25.7753 24.1523 25.7751 24.1523C25.7748 24.1523 25.7746 24.1523 25.7743 24.1523C25.7741 24.1523 25.7738 24.1523 25.7736 24.1523C25.7733 24.1523 25.773 24.1523 25.7728 24.1523C25.7725 24.1523 25.7723 24.1523 25.772 24.1523C25.7718 24.1523 25.7715 24.1523 25.7713 24.1523C25.771 24.1523 25.7708 24.1523 25.7705 24.1523C25.7703 24.1523 25.77 24.1523 25.7698 24.1523C25.7695 24.1523 25.7693 24.1523 25.769 24.1523C25.7688 24.1523 25.7685 24.1523 25.7683 24.1523C25.768 24.1523 25.7678 24.1523 25.7675 24.1523C25.7673 24.1523 25.767 24.1523 25.7668 24.1523C25.7665 24.1523 25.7663 24.1523 25.766 24.1523C25.7657 24.1523 25.7655 24.1523 25.7652 24.1523C25.765 24.1523 25.7647 24.1523 25.7645 24.1523C25.7642 24.1523 25.764 24.1523 25.7637 24.1523C25.7635 24.1523 25.7632 24.1523 25.763 24.1523C25.7627 24.1523 25.7625 24.1523 25.7622 24.1523C25.762 24.1523 25.7617 24.1523 25.7615 24.1523C25.7612 24.1523 25.761 24.1523 25.7607 24.1523C25.7605 24.1523 25.7602 24.1523 25.76 24.1523C25.7597 24.1523 25.7595 24.1523 25.7592 24.1523C25.7589 24.1523 25.7587 24.1523 25.7584 24.1523C25.7582 24.1523 25.7579 24.1523 25.7577 24.1523C25.7574 24.1523 25.7572 24.1523 25.7569 24.1523C25.7567 24.1523 25.7564 24.1523 25.7562 24.1523C25.7559 24.1523 25.7557 24.1523 25.7554 24.1523C25.7552 24.1523 25.7549 24.1523 25.7547 24.1523C25.7544 24.1523 25.7542 24.1523 25.7539 24.1523C25.7537 24.1523 25.7534 24.1523 25.7532 24.1523C25.7529 24.1523 25.7527 24.1523 25.7524 24.1523C25.7522 24.1523 25.7519 24.1523 25.7516 24.1523C25.7514 24.1523 25.7511 24.1523 25.7509 24.1523C25.7506 24.1523 25.7504 24.1523 25.7501 24.1523C25.7499 24.1523 25.7496 24.1523 25.7494 24.1523C25.7491 24.1523 25.7489 24.1523 25.7486 24.1523C25.7484 24.1523 25.7481 24.1523 25.7479 24.1523C25.7476 24.1523 25.7474 24.1523 25.7471 24.1523C25.7469 24.1523 25.7466 24.1523 25.7464 24.1523C25.7461 24.1523 25.7459 24.1523 25.7456 24.1523C25.7454 24.1523 25.7451 24.1523 25.7449 24.1523C25.7446 24.1523 25.7443 24.1523 25.7441 24.1523C25.7438 24.1523 25.7436 24.1523 25.7433 24.1523C25.7431 24.1523 25.7428 24.1523 25.7426 24.1523C25.7423 24.1523 25.7421 24.1523 25.7418 24.1523C25.7416 24.1523 25.7413 24.1523 25.7411 24.1523C25.7408 24.1523 25.7406 24.1523 25.7403 24.1523C25.7401 24.1523 25.7398 24.1523 25.7396 24.1523C25.7393 24.1523 25.7391 24.1523 25.7388 24.1523C25.7386 24.1523 25.7383 24.1523 25.7381 24.1523C25.7378 24.1523 25.7375 24.1523 25.7373 24.1523C25.737 24.1523 25.7368 24.1523 25.7365 24.1523C25.7363 24.1523 25.736 24.1523 25.7358 24.1523C25.7355 24.1523 25.7353 24.1523 25.735 24.1523C25.7348 24.1523 25.7345 24.1523 25.7343 24.1523C25.734 24.1523 25.7338 24.1523 25.7335 24.1523C25.7333 24.1523 25.733 24.1523 25.7328 24.1523C25.7325 24.1523 25.7323 24.1523 25.732 24.1523C25.7318 24.1523 25.7315 24.1523 25.7313 24.1523C25.731 24.1523 25.7308 24.1523 25.7305 24.1523C25.7302 24.1523 25.73 24.1523 25.7297 24.1523C25.7295 24.1523 25.7292 24.1523 25.729 24.1523C25.7287 24.1523 25.7285 24.1523 25.7282 24.1523C25.728 24.1523 25.7277 24.1523 25.7275 24.1523C25.7272 24.1523 25.727 24.1523 25.7267 24.1523C25.7265 24.1523 25.7262 24.1523 25.726 24.1523C25.7257 24.1523 25.7255 24.1523 25.7252 24.1523C25.725 24.1523 25.7247 24.1523 25.7245 24.1523C25.7242 24.1523 25.724 24.1523 25.7237 24.1523C25.7234 24.1523 25.7232 24.1523 25.7229 24.1523C25.7227 24.1523 25.7224 24.1523 25.7222 24.1523C25.7219 24.1523 25.7217 24.1523 25.7214 24.1523C25.7212 24.1523 25.7209 24.1523 25.7207 24.1523C25.7204 24.1523 25.7202 24.1523 25.7199 24.1523C25.7197 24.1523 25.7194 24.1523 25.7192 24.1523C25.7189 24.1523 25.7187 24.1523 25.7184 24.1523C25.7182 24.1523 25.7179 24.1523 25.7177 24.1523C25.7174 24.1523 25.7172 24.1523 25.7169 24.1523C25.7167 24.1523 25.7164 24.1523 25.7161 24.1523C25.7159 24.1523 25.7156 24.1523 25.7154 24.1523C25.7151 24.1523 25.7149 24.1523 25.7146 24.1523C25.7144 24.1523 25.7141 24.1523 25.7139 24.1523C25.7136 24.1523 25.7134 24.1523 25.7131 24.1523C25.7129 24.1523 25.7126 24.1523 25.7124 24.1523C25.7121 24.1523 25.7119 24.1523 25.7116 24.1523C25.7114 24.1523 25.7111 24.1523 25.7109 24.1523C25.7106 24.1523 25.7104 24.1523 25.7101 24.1523C25.7099 24.1523 25.7096 24.1523 25.7094 24.1523C25.7091 24.1523 25.7088 24.1523 25.7086 24.1523C25.7083 24.1523 25.7081 24.1523 25.7078 24.1523C25.7076 24.1523 25.7073 24.1523 25.7071 24.1523C25.7068 24.1523 25.7066 24.1523 25.7063 24.1523C25.7061 24.1523 25.7058 24.1523 25.7056 24.1523C25.7053 24.1523 25.7051 24.1523 25.7048 24.1523C25.7046 24.1523 25.7043 24.1523 25.7041 24.1523C25.7038 24.1523 25.7036 24.1523 25.7033 24.1523C25.7031 24.1523 25.7028 24.1523 25.7026 24.1523C25.7023 24.1523 25.702 24.1523 25.7018 24.1523C25.7015 24.1523 25.7013 24.1523 25.701 24.1523C25.7008 24.1523 25.7005 24.1523 25.7003 24.1523C25.7 24.1523 25.6998 24.1523 25.6995 24.1523C25.6993 24.1523 25.699 24.1523 25.6988 24.1523C25.6985 24.1523 25.6983 24.1523 25.698 24.1523C25.6978 24.1523 25.6975 24.1523 25.6973 24.1523C25.697 24.1523 25.6968 24.1523 25.6965 24.1523C25.6963 24.1523 25.696 24.1523 25.6958 24.1523C25.6955 24.1523 25.6953 24.1523 25.695 24.1523C25.6947 24.1523 25.6945 24.1523 25.6942 24.1523C25.694 24.1523 25.6937 24.1523 25.6935 24.1523C25.6932 24.1523 25.693 24.1523 25.6927 24.1523C25.6925 24.1523 25.6922 24.1523 25.692 24.1523C25.6917 24.1523 25.6915 24.1523 25.6912 24.1523C25.691 24.1523 25.6907 24.1523 25.6905 24.1523C25.6902 24.1523 25.69 24.1523 25.6897 24.1523C25.6895 24.1523 25.6892 24.1523 25.689 24.1523C25.6887 24.1523 25.6885 24.1523 25.6882 24.1523C25.688 24.1523 25.6877 24.1523 25.6874 24.1523C25.6872 24.1523 25.6869 24.1523 25.6867 24.1523C25.6864 24.1523 25.6862 24.1523 25.6859 24.1523C25.6857 24.1523 25.6854 24.1523 25.6852 24.1523C25.6849 24.1523 25.6847 24.1523 25.6844 24.1523C25.6842 24.1523 25.6839 24.1523 25.6837 24.1523C25.6834 24.1523 25.6832 24.1523 25.6829 24.1523C25.6827 24.1523 25.6824 24.1523 25.6822 24.1523C25.6819 24.1523 25.6817 24.1523 25.6814 24.1523C25.6812 24.1523 25.6809 24.1523 25.6806 24.1523C25.6804 24.1523 25.6801 24.1523 25.6799 24.1523C25.6796 24.1523 25.6794 24.1523 25.6791 24.1523C25.6789 24.1523 25.6786 24.1523 25.6784 24.1523C25.6781 24.1523 25.6779 24.1523 25.6776 24.1523C25.6774 24.1523 25.6771 24.1523 25.6769 24.1523C25.6766 24.1523 25.6764 24.1523 25.6761 24.1523C25.6759 24.1523 25.6756 24.1523 25.6754 24.1523C25.6751 24.1523 25.6749 24.1523 25.6746 24.1523C25.6744 24.1523 25.6741 24.1523 25.6739 24.1523C25.6736 24.1523 25.6733 24.1523 25.6731 24.1523C25.6728 24.1523 25.6726 24.1523 25.6723 24.1523C25.6721 24.1523 25.6718 24.1523 25.6716 24.1523C25.6713 24.1523 25.6711 24.1523 25.6708 24.1523C25.6706 24.1523 25.6703 24.1523 25.6701 24.1523C25.6698 24.1523 25.6696 24.1523 25.6693 24.1523C25.6691 24.1523 25.6688 24.1523 25.6686 24.1523C25.6683 24.1523 25.6681 24.1523 25.6678 24.1523C25.6676 24.1523 25.6673 24.1523 25.6671 24.1523C25.6668 24.1523 25.6665 24.1523 25.6663 24.1523C25.666 24.1523 25.6658 24.1523 25.6655 24.1523C25.6653 24.1523 25.665 24.1523 25.6648 24.1523C25.6645 24.1523 25.6643 24.1523 25.664 24.1523C25.6638 24.1523 25.6635 24.1523 25.6633 24.1523C25.663 24.1523 25.6628 24.1523 25.6625 24.1523C25.6623 24.1523 25.662 24.1523 25.6618 24.1523C25.6615 24.1523 25.6613 24.1523 25.661 24.1523C25.6608 24.1523 25.6605 24.1523 25.6603 24.1523C25.66 24.1523 25.6598 24.1523 25.6595 24.1523C25.6592 24.1523 25.659 24.1523 25.6587 24.1523C25.6585 24.1523 25.6582 24.1523 25.658 24.1523C25.6577 24.1523 25.6575 24.1523 25.6572 24.1523C25.657 24.1523 25.6567 24.1523 25.6565 24.1523C25.6562 24.1523 25.656 24.1523 25.6557 24.1523C25.6555 24.1523 25.6552 24.1523 25.655 24.1523C25.6547 24.1523 25.6545 24.1523 25.6542 24.1523C25.654 24.1523 25.6537 24.1523 25.6535 24.1523C25.6532 24.1523 25.653 24.1523 25.6527 24.1523C25.6525 24.1523 25.6522 24.1523 25.6519 24.1523C25.6517 24.1523 25.6514 24.1523 25.6512 24.1523C25.6509 24.1523 25.6507 24.1523 25.6504 24.1523C25.6502 24.1523 25.6499 24.1523 25.6497 24.1523C25.6494 24.1523 25.6492 24.1523 25.6489 24.1523C25.6487 24.1523 25.6484 24.1523 25.6482 24.1523C25.6479 24.1523 25.6477 24.1523 25.6474 24.1523C25.6472 24.1523 25.6469 24.1523 25.6467 24.1523C25.6464 24.1523 25.6462 24.1523 25.6459 24.1523C25.6457 24.1523 25.6454 24.1523 25.6451 24.1523C25.6449 24.1523 25.6446 24.1523 25.6444 24.1523C25.6441 24.1523 25.6439 24.1523 25.6436 24.1523C25.6434 24.1523 25.6431 24.1523 25.6429 24.1523C25.6426 24.1523 25.6424 24.1523 25.6421 24.1523C25.6419 24.1523 25.6416 24.1523 25.6414 24.1523C25.6411 24.1523 25.6409 24.1523 25.6406 24.1523C25.6404 24.1523 25.6401 24.1523 25.6399 24.1523C25.6396 24.1523 25.6394 24.1523 25.6391 24.1523C25.6389 24.1523 25.6386 24.1523 25.6384 24.1523C25.6381 24.1523 25.6378 24.1523 25.6376 24.1523C25.6373 24.1523 25.6371 24.1523 25.6368 24.1523C25.6366 24.1523 25.6363 24.1523 25.6361 24.1523C25.6358 24.1523 25.6356 24.1523 25.6353 24.1523C25.6351 24.1523 25.6348 24.1523 25.6346 24.1523C25.6343 24.1523 25.6341 24.1523 25.6338 24.1523C25.6336 24.1523 25.6333 24.1523 25.6331 24.1523C25.6328 24.1523 25.6326 24.1523 25.6323 24.1523C25.6321 24.1523 25.6318 24.1523 25.6316 24.1523C25.6313 24.1523 25.6311 24.1523 25.6308 24.1523C25.6305 24.1523 25.6303 24.1523 25.63 24.1523C25.6298 24.1523 25.6295 24.1523 25.6293 24.1523C25.629 24.1523 25.6288 24.1523 25.6285 24.1523C25.6283 24.1523 25.628 24.1523 25.6278 24.1523C25.6275 24.1523 25.6273 24.1523 25.627 24.1523C25.6268 24.1523 25.6265 24.1523 25.6263 24.1523C25.626 24.1523 25.6258 24.1523 25.6255 24.1523C25.6253 24.1523 25.625 24.1523 25.6248 24.1523C25.6245 24.1523 25.6243 24.1523 25.624 24.1523C25.6237 24.1523 25.6235 24.1523 25.6232 24.1523C25.623 24.1523 25.6227 24.1523 25.6225 24.1523C25.6222 24.1523 25.622 24.1523 25.6217 24.1523C25.6215 24.1523 25.6212 24.1523 25.621 24.1523C25.6207 24.1523 25.6205 24.1523 25.6202 24.1523C25.62 24.1523 25.6197 24.1523 25.6195 24.1523C25.6192 24.1523 25.619 24.1523 25.6187 24.1523C25.6185 24.1523 25.6182 24.1523 25.618 24.1523C25.6177 24.1523 25.6175 24.1523 25.6172 24.1523C25.617 24.1523 25.6167 24.1523 25.6164 24.1523C25.6162 24.1523 25.6159 24.1523 25.6157 24.1523C25.6154 24.1523 25.6152 24.1523 25.6149 24.1523C25.6147 24.1523 25.6144 24.1523 25.6142 24.1523C25.6139 24.1523 25.6137 24.1523 25.6134 24.1523C25.6132 24.1523 25.6129 24.1523 25.6127 24.1523C25.6124 24.1523 25.6122 24.1523 25.6119 24.1523C25.6117 24.1523 25.6114 24.1523 25.6112 24.1523C25.6109 24.1523 25.6107 24.1523 25.6104 24.1523C25.6102 24.1523 25.6099 24.1523 25.6096 24.1523C25.6094 24.1523 25.6091 24.1523 25.6089 24.1523C25.6086 24.1523 25.6084 24.1523 25.6081 24.1523C25.6079 24.1523 25.6076 24.1523 25.6074 24.1523C25.6071 24.1523 25.6069 24.1523 25.6066 24.1523C25.6064 24.1523 25.6061 24.1523 25.6059 24.1523C25.6056 24.1523 25.6054 24.1523 25.6051 24.1523C25.6049 24.1523 25.6046 24.1523 25.6044 24.1523C25.6041 24.1523 25.6039 24.1523 25.6036 24.1523C25.6034 24.1523 25.6031 24.1523 25.6029 24.1523C25.6026 24.1523 25.6023 24.1523 25.6021 24.1523C25.6018 24.1523 25.6016 24.1523 25.6013 24.1523C25.6011 24.1523 25.6008 24.1523 25.6006 24.1523C25.6003 24.1523 25.6001 24.1523 25.5998 24.1523C25.5996 24.1523 25.5993 24.1523 25.5991 24.1523C25.5988 24.1523 25.5986 24.1523 25.5983 24.1523C25.5981 24.1523 25.5978 24.1523 25.5976 24.1523C25.5973 24.1523 25.5971 24.1523 25.5968 24.1523C25.5966 24.1523 25.5963 24.1523 25.5961 24.1523C25.5958 24.1523 25.5956 24.1523 25.5953 24.1523C25.595 24.1523 25.5948 24.1523 25.5945 24.1523C25.5943 24.1523 25.594 24.1523 25.5938 24.1523C25.5935 24.1523 25.5933 24.1523 25.593 24.1523C25.5928 24.1523 25.5925 24.1523 25.5923 24.1523C25.592 24.1523 25.5918 24.1523 25.5915 24.1523C25.5913 24.1523 25.591 24.1523 25.5908 24.1523C25.5905 24.1523 25.5903 24.1523 25.59 24.1523C25.5898 24.1523 25.5895 24.1523 25.5893 24.1523C25.589 24.1523 25.5888 24.1523 25.5885 24.1523C25.5882 24.1523 25.588 24.1523 25.5877 24.1523C25.5875 24.1523 25.5872 24.1523 25.587 24.1523C25.5867 24.1523 25.5865 24.1523 25.5862 24.1523C25.586 24.1523 25.5857 24.1523 25.5855 24.1523C25.5852 24.1523 25.585 24.1523 25.5847 24.1523C25.5845 24.1523 25.5842 24.1523 25.584 24.1523C25.5837 24.1523 25.5835 24.1523 25.5832 24.1523C25.583 24.1523 25.5827 24.1523 25.5825 24.1523C25.5822 24.1523 25.582 24.1523 25.5817 24.1523C25.5815 24.1523 25.5812 24.1523 25.5809 24.1523C25.5807 24.1523 25.5804 24.1523 25.5802 24.1523C25.5799 24.1523 25.5797 24.1523 25.5794 24.1523C25.5792 24.1523 25.5789 24.1523 25.5787 24.1523C25.5784 24.1523 25.5782 24.1523 25.5779 24.1523C25.5777 24.1523 25.5774 24.1523 25.5772 24.1523C25.5769 24.1523 25.5767 24.1523 25.5764 24.1523C25.5762 24.1523 25.5759 24.1523 25.5757 24.1523C25.5754 24.1523 25.5752 24.1523 25.5749 24.1523C25.5747 24.1523 25.5744 24.1523 25.5742 24.1523C25.5739 24.1523 25.5736 24.1523 25.5734 24.1523C25.5731 24.1523 25.5729 24.1523 25.5726 24.1523C25.5724 24.1523 25.5721 24.1523 25.5719 24.1523C25.5716 24.1523 25.5714 24.1523 25.5711 24.1523C25.5709 24.1523 25.5706 24.1523 25.5704 24.1523C25.5701 24.1523 25.5699 24.1523 25.5696 24.1523C25.5694 24.1523 25.5691 24.1523 25.5689 24.1523C25.5686 24.1523 25.5684 24.1523 25.5681 24.1523C25.5679 24.1523 25.5676 24.1523 25.5674 24.1523C25.5671 24.1523 25.5668 24.1523 25.5666 24.1523C25.5663 24.1523 25.5661 24.1523 25.5658 24.1523C25.5656 24.1523 25.5653 24.1523 25.5651 24.1523C25.5648 24.1523 25.5646 24.1523 25.5643 24.1523C25.5641 24.1523 25.5638 24.1523 25.5636 24.1523C25.5633 24.1523 25.5631 24.1523 25.5628 24.1523C25.5626 24.1523 25.5623 24.1523 25.5621 24.1523C25.5618 24.1523 25.5616 24.1523 25.5613 24.1523C25.5611 24.1523 25.5608 24.1523 25.5606 24.1523C25.5603 24.1523 25.5601 24.1523 25.5598 24.1523C25.5595 24.1523 25.5593 24.1523 25.559 24.1523C25.5588 24.1523 25.5585 24.1523 25.5583 24.1523C25.558 24.1523 25.5578 24.1523 25.5575 24.1523C25.5573 24.1523 25.557 24.1523 25.5568 24.1523C25.5565 24.1523 25.5563 24.1523 25.556 24.1523C25.5558 24.1523 25.5555 24.1523 25.5553 24.1523C25.555 24.1523 25.5548 24.1523 25.5545 24.1523C25.5543 24.1523 25.554 24.1523 25.5538 24.1523C25.5535 24.1523 25.5533 24.1523 25.553 24.1523C25.5527 24.1523 25.5525 24.1523 25.5522 24.1523C25.552 24.1523 25.5517 24.1523 25.5515 24.1523C25.5512 24.1523 25.551 24.1523 25.5507 24.1523C25.5505 24.1523 25.5502 24.1523 25.55 24.1523C25.5497 24.1523 25.5495 24.1523 25.5492 24.1523C25.549 24.1523 25.5487 24.1523 25.5485 24.1523C25.5482 24.1523 25.548 24.1523 25.5477 24.1523C25.5475 24.1523 25.5472 24.1523 25.547 24.1523C25.5467 24.1523 25.5465 24.1523 25.5462 24.1523C25.546 24.1523 25.5457 24.1523 25.5454 24.1523C25.5452 24.1523 25.5449 24.1523 25.5447 24.1523C25.5444 24.1523 25.5442 24.1523 25.5439 24.1523C25.5437 24.1523 25.5434 24.1523 25.5432 24.1523C25.5429 24.1523 25.5427 24.1523 25.5424 24.1523C25.5422 24.1523 25.5419 24.1523 25.5417 24.1523C25.5414 24.1523 25.5412 24.1523 25.5409 24.1523C25.5407 24.1523 25.5404 24.1523 25.5402 24.1523C25.5399 24.1523 25.5397 24.1523 25.5394 24.1523C25.5392 24.1523 25.5389 24.1523 25.5387 24.1523C25.5384 24.1523 25.5381 24.1523 25.5379 24.1523C25.5376 24.1523 25.5374 24.1523 25.5371 24.1523C25.5369 24.1523 25.5366 24.1523 25.5364 24.1523C25.5361 24.1523 25.5359 24.1523 25.5356 24.1523C25.5354 24.1523 25.5351 24.1523 25.5349 24.1523C25.5346 24.1523 25.5344 24.1523 25.5341 24.1523C25.5339 24.1523 25.5336 24.1523 25.5334 24.1523C25.5331 24.1523 25.5329 24.1523 25.5326 24.1523C25.5324 24.1523 25.5321 24.1523 25.5319 24.1523C25.5316 24.1523 25.5313 24.1523 25.5311 24.1523C25.5308 24.1523 25.5306 24.1523 25.5303 24.1523C25.5301 24.1523 25.5298 24.1523 25.5296 24.1523C25.5293 24.1523 25.5291 24.1523 25.5288 24.1523C25.5286 24.1523 25.5283 24.1523 25.5281 24.1523C25.5278 24.1523 25.5276 24.1523 25.5273 24.1523C25.5271 24.1523 25.5268 24.1523 25.5266 24.1523C25.5263 24.1523 25.5261 24.1523 25.5258 24.1523C25.5256 24.1523 25.5253 24.1523 25.5251 24.1523C25.5248 24.1523 25.5246 24.1523 25.5243 24.1523C25.524 24.1523 25.5238 24.1523 25.5235 24.1523C25.5233 24.1523 25.523 24.1523 25.5228 24.1523C25.5225 24.1523 25.5223 24.1523 25.522 24.1523C25.5218 24.1523 25.5215 24.1523 25.5213 24.1523C25.521 24.1523 25.5208 24.1523 25.5205 24.1523C25.5203 24.1523 25.52 24.1523 25.5198 24.1523C25.5195 24.1523 25.5193 24.1523 25.519 24.1523C25.5188 24.1523 25.5185 24.1523 25.5183 24.1523C25.518 24.1523 25.5178 24.1523 25.5175 24.1523C25.5173 24.1523 25.517 24.1523 25.5167 24.1523C25.5165 24.1523 25.5162 24.1523 25.516 24.1523C25.5157 24.1523 25.5155 24.1523 25.5152 24.1523C25.515 24.1523 25.5147 24.1523 25.5145 24.1523C25.5142 24.1523 25.514 24.1523 25.5137 24.1523C25.5135 24.1523 25.5132 24.1523 25.513 24.1523C25.5127 24.1523 25.5125 24.1523 25.5122 24.1523C25.512 24.1523 25.5117 24.1523 25.5115 24.1523C25.5112 24.1523 25.511 24.1523 25.5107 24.1523C25.5105 24.1523 25.5102 24.1523 25.5099 24.1523C25.5097 24.1523 25.5094 24.1523 25.5092 24.1523C25.5089 24.1523 25.5087 24.1523 25.5084 24.1523C25.5082 24.1523 25.5079 24.1523 25.5077 24.1523C25.5074 24.1523 25.5072 24.1523 25.5069 24.1523C25.5067 24.1523 25.5064 24.1523 25.5062 24.1523C25.5059 24.1523 25.5057 24.1523 25.5054 24.1523C25.5052 24.1523 25.5049 24.1523 25.5047 24.1523C25.5044 24.1523 25.5042 24.1523 25.5039 24.1523V26.1523ZM25.8906 26.1523C26.0499 26.1523 26.209 26.1451 26.3679 26.1307L26.1868 24.1389C26.0879 24.1479 25.9892 24.1523 25.8906 24.1523V26.1523ZM27.0995 24.5656C26.8217 24.1643 26.5189 23.633 26.1933 22.9594L24.3926 23.8297C24.7467 24.5624 25.1001 25.1912 25.4552 25.704L27.0995 24.5656ZM26.1908 22.9542L24.3979 19.298L22.6021 20.1786L24.3951 23.8348L26.1908 22.9542ZM22.8866 18.9485L19.582 21.5149L20.8087 23.0945L24.1134 20.5281L22.8866 18.9485ZM19.5844 21.513C18.4789 22.3662 17.6092 23.1577 17.0132 23.8863L18.5611 25.1528C19.0197 24.5923 19.7555 23.9073 20.8063 23.0964L19.5844 21.513ZM17.0189 23.8793C16.7933 24.15 16.6126 24.3098 16.4813 24.3963C16.352 24.4814 16.3126 24.4688 16.3457 24.4688V26.4688C17.2552 26.4688 17.9945 25.8327 18.5553 25.1597L17.0189 23.8793ZM16.3457 24.4688C16.0725 24.4688 15.9731 24.404 15.9418 24.3784L14.6754 25.9263C15.1597 26.3226 15.7518 26.4688 16.3457 26.4688V24.4688ZM15.9594 24.3931C15.7511 24.2146 15.566 24.029 15.4026 23.8367L13.8787 25.132C14.1137 25.4085 14.3739 25.6683 14.6578 25.9116L15.9594 24.3931ZM15.3932 23.8259L14.6549 22.9821L13.1498 24.2991L13.888 25.1429L15.3932 23.8259ZM14.6616 22.9898C14.3977 22.682 14.0664 22.3752 13.6833 22.0687L12.4339 23.6305C12.7539 23.8865 12.9851 24.1071 13.1431 24.2914L14.6616 22.9898ZM13.6569 22.0484L10.9499 20.0269L9.75323 21.6294L12.4603 23.6509L13.6569 22.0484ZM10.9377 20.0179C10.4003 19.6291 9.84997 19.2107 9.28681 18.7625L8.04132 20.3273C8.62659 20.7932 9.20131 21.2303 9.76544 21.6383L10.9377 20.0179ZM7.75341 19.1318L5.16942 24.8271L6.99073 25.6534L9.57472 19.9581L7.75341 19.1318ZM6.08008 26.2402H6.60742V24.2402H6.08008V26.2402ZM6.60742 26.2402C7.73444 26.2402 8.40017 26.3494 8.72488 26.4822L9.48215 24.6311C8.77561 24.3421 7.77727 24.2402 6.60742 24.2402V26.2402ZM8.74312 26.4894C8.79682 26.5102 8.8253 26.5287 8.83804 26.5383C8.84444 26.5432 8.84779 26.5465 8.84921 26.548C8.85058 26.5494 8.85117 26.5502 8.85154 26.5508C8.85193 26.5514 8.85312 26.5532 8.85489 26.5572C8.85669 26.5612 8.85961 26.5686 8.86277 26.5804C8.86915 26.6042 8.87695 26.6476 8.87695 26.7168H10.877C10.877 26.279 10.7774 25.834 10.5156 25.4414C10.2519 25.0458 9.87688 24.7834 9.46391 24.6238L8.74312 26.4894ZM8.87695 26.7168C8.87695 26.8194 8.8594 26.8615 8.85622 26.8684C8.85555 26.8698 8.85645 26.8721 8.84148 26.883C8.78992 26.9204 8.59053 27.0176 8.08398 27.0176V29.0176C8.77275 29.0176 9.46984 28.898 10.0159 28.5018C10.6216 28.0624 10.877 27.4071 10.877 26.7168H8.87695ZM8.12378 27.0184L4.15112 26.8602L4.07154 28.8586L8.04419 29.0168L8.12378 27.0184Z" fill="#4F709C"/>
</svg>
